<?xml version="1.0" encoding="UTF-8" standalone="no"?>
<!-- Generator: Adobe Illustrator 19.0.0, SVG Export Plug-In . SVG Version: 6.00 Build 0)  -->

<svg
   xmlns:dc="http://purl.org/dc/elements/1.1/"
   xmlns:cc="http://creativecommons.org/ns#"
   xmlns:rdf="http://www.w3.org/1999/02/22-rdf-syntax-ns#"
   xmlns:svg="http://www.w3.org/2000/svg"
   xmlns="http://www.w3.org/2000/svg"
   xmlns:sodipodi="http://sodipodi.sourceforge.net/DTD/sodipodi-0.dtd"
   xmlns:inkscape="http://www.inkscape.org/namespaces/inkscape"
   version="1.1"
   id="Capa_1"
   x="0px"
   y="0px"
   viewBox="0 0 1920 1080"
   xml:space="preserve"
   sodipodi:docname="FLAG_CHINA.svg"
   width="1920"
   height="1080"
   inkscape:version="0.92.3 (2405546, 2018-03-11)"><metadata
   id="metadata57"><rdf:RDF><cc:Work
       rdf:about=""><dc:format>image/svg+xml</dc:format><dc:type
         rdf:resource="http://purl.org/dc/dcmitype/StillImage" /><dc:title></dc:title></cc:Work></rdf:RDF></metadata><defs
   id="defs55" /><sodipodi:namedview
   pagecolor="#ffffff"
   bordercolor="#666666"
   borderopacity="1"
   objecttolerance="10"
   gridtolerance="10"
   guidetolerance="10"
   inkscape:pageopacity="0"
   inkscape:pageshadow="2"
   inkscape:window-width="1920"
   inkscape:window-height="1017"
   id="namedview53"
   showgrid="false"
   inkscape:zoom="0.33644597"
   inkscape:cx="927.03488"
   inkscape:cy="451.17688"
   inkscape:window-x="-8"
   inkscape:window-y="-8"
   inkscape:window-maximized="1"
   inkscape:current-layer="Capa_1" />







<g
   id="g4577"
   transform="matrix(1.2096774,0,0,1.2096774,660,-466.4516)"><path
     inkscape:connector-curvature="0"
     id="path2"
     d="m 496,953.6 c 0,27.2 -21.6,46.4 -48,46.4 H 48 C 21.6,1000 0,980.8 0,953.6 V 710.4 C 0,683.2 21.6,664 48,664 h 400 c 26.4,0 48,19.2 48,46.4 z"
     style="fill:#dc3027" /><path
     inkscape:connector-curvature="0"
     id="path4"
     d="m 48,664 h 400 c 26.4,0 48,19.2 48,46.4 v 243.2 c 0,27.2 -25.6,46.4 -52,46.4"
     style="fill:#ce2420" /><g
     transform="translate(0,584)"
     id="g10">
	<path
   inkscape:connector-curvature="0"
   id="path6"
   d="m 48,80 h 400 c 26.4,0 48,19.2 48,46.4 V 216"
   style="fill:#b50808" />
	<path
   inkscape:connector-curvature="0"
   id="path8"
   d="m 496,368.8 c 0,29.6 -21.6,47.2 -48,47.2 H 48 C 21.6,416 0,395.2 0,368"
   style="fill:#b50808" />
</g><polygon
     transform="translate(0,584)"
     id="polygon12"
     points="74.4,168 86.4,130.4 98.4,168 137.6,168 106.4,190.4 118.4,227.2 86.4,204 55.2,226.4 67.2,190.4 35.2,168 "
     style="fill:#f8d12e" /><polygon
     transform="translate(0,584)"
     id="polygon14"
     points="167.2,116 177.6,108 174.4,120.8 185.6,128.8 172,128.8 168,142.4 163.2,128.8 149.6,129.6 160.8,121.6 156,108.8 "
     style="fill:#f7b92f" /><polygon
     transform="translate(0,584)"
     id="polygon16"
     points="167.2,232.8 177.6,224.8 174.4,237.6 185.6,245.6 172,246.4 168,259.2 163.2,246.4 149.6,246.4 160.8,238.4 156,225.6 "
     style="fill:#f8d12e" /><polygon
     transform="translate(0,584)"
     id="polygon18"
     points="200,152 211.2,143.2 207.2,156.8 218.4,164 204.8,164.8 200.8,177.6 196.8,164.8 183.2,165.6 193.6,156.8 188.8,144 "
     style="fill:#f7b92f" /><polygon
     transform="translate(0,584)"
     id="polygon20"
     points="200,199.2 211.2,191.2 207.2,204 218.4,212 204.8,212 200.8,225.6 196.8,212.8 183.2,212.8 193.6,204.8 188.8,192 "
     style="fill:#f8d12e" /></g>
<g
   id="g22"
   transform="translate(0,584)">
</g>
<g
   id="g24"
   transform="translate(0,584)">
</g>
<g
   id="g26"
   transform="translate(0,584)">
</g>
<g
   id="g28"
   transform="translate(0,584)">
</g>
<g
   id="g30"
   transform="translate(0,584)">
</g>
<g
   id="g32"
   transform="translate(0,584)">
</g>
<g
   id="g34"
   transform="translate(0,584)">
</g>
<g
   id="g36"
   transform="translate(0,584)">
</g>
<g
   id="g38"
   transform="translate(0,584)">
</g>
<g
   id="g40"
   transform="translate(0,584)">
</g>
<g
   id="g42"
   transform="translate(0,584)">
</g>
<g
   id="g44"
   transform="translate(0,584)">
</g>
<g
   id="g46"
   transform="translate(0,584)">
</g>
<g
   id="g48"
   transform="translate(0,584)">
</g>
<g
   id="g50"
   transform="translate(0,584)">
</g>
</svg>