<?xml version="1.0" encoding="UTF-8" standalone="no"?>
<!-- Generator: Adobe Illustrator 19.0.0, SVG Export Plug-In . SVG Version: 6.00 Build 0)  -->

<svg
   xmlns:dc="http://purl.org/dc/elements/1.1/"
   xmlns:cc="http://creativecommons.org/ns#"
   xmlns:rdf="http://www.w3.org/1999/02/22-rdf-syntax-ns#"
   xmlns:svg="http://www.w3.org/2000/svg"
   xmlns="http://www.w3.org/2000/svg"
   xmlns:sodipodi="http://sodipodi.sourceforge.net/DTD/sodipodi-0.dtd"
   xmlns:inkscape="http://www.inkscape.org/namespaces/inkscape"
   version="1.1"
   id="Capa_1"
   x="0px"
   y="0px"
   viewBox="0 0 1920 1080"
   xml:space="preserve"
   sodipodi:docname="FLAG_MEXICO.svg"
   width="1920"
   height="1080"
   inkscape:version="0.92.3 (2405546, 2018-03-11)"><metadata
   id="metadata95"><rdf:RDF><cc:Work
       rdf:about=""><dc:format>image/svg+xml</dc:format><dc:type
         rdf:resource="http://purl.org/dc/dcmitype/StillImage" /><dc:title></dc:title></cc:Work></rdf:RDF></metadata><defs
   id="defs93" /><sodipodi:namedview
   pagecolor="#ffffff"
   bordercolor="#666666"
   borderopacity="1"
   objecttolerance="10"
   gridtolerance="10"
   guidetolerance="10"
   inkscape:pageopacity="0"
   inkscape:pageshadow="2"
   inkscape:window-width="1920"
   inkscape:window-height="1017"
   id="namedview91"
   showgrid="false"
   inkscape:zoom="0.33644597"
   inkscape:cx="912.0437"
   inkscape:cy="298.67754"
   inkscape:window-x="-8"
   inkscape:window-y="-8"
   inkscape:window-maximized="1"
   inkscape:current-layer="Capa_1" />

















<g
   id="g932"
   transform="matrix(1.2096774,0,0,1.2096774,660,-466.45158)"><rect
     id="rect2"
     height="340.79999"
     width="170.39999"
     style="fill:#ffffff"
     y="661.59998"
     x="162.39999" /><path
     inkscape:connector-curvature="0"
     id="path4"
     d="M 162.4,661.6 H 48 c -26.4,0 -48,21.6 -48,48.8 v 243.2 c 0,27.2 21.6,48.8 48,48.8 H 163.2 V 661.6 Z"
     style="fill:#006847" /><path
     inkscape:connector-curvature="0"
     id="path6"
     d="M 448,661.6 H 333.6 v 340.8 H 448 c 26.4,0 48,-21.6 48,-48.8 V 710.4 c 0,-27.2 -21.6,-48.8 -48,-48.8 z"
     style="fill:#ce1126" /><path
     inkscape:connector-curvature="0"
     id="path8"
     d="M 448,661.6 H 333.6 v 243.2 l 114.4,97.6 c 26.4,0 48,-21.6 48,-48.8 V 710.4 c 0,-27.2 -21.6,-48.8 -48,-48.8 z"
     style="fill:#b50b24" /><polygon
     transform="translate(0,584)"
     id="polygon10"
     points="333.6,77.6 162.4,77.6 162.4,175.2 333.6,320.8 "
     style="fill:#dfe5e2" /><polygon
     transform="translate(0,584)"
     id="polygon12"
     points="162.4,77.6 48,77.6 162.4,175.2 "
     style="fill:#01563a" /><path
     inkscape:connector-curvature="0"
     id="path14"
     d="M 333.6,1002.4 H 448 c 26.4,0 48,-21.6 48,-48.8 H 333.6 Z"
     style="fill:#8c072d" /><rect
     id="rect16"
     height="48.799999"
     width="170.39999"
     style="fill:#c6ceca"
     y="953.59998"
     x="162.39999" /><path
     inkscape:connector-curvature="0"
     id="path18"
     d="m 0,953.6 c 0,27.2 21.6,48.8 48,48.8 h 115.2 v -48.8 z"
     style="fill:#03442d" /><path
     inkscape:connector-curvature="0"
     id="path20"
     d="M 448,661.6 H 333.6 v 87.2 L 496,798.4 v -88 c 0,-27.2 -21.6,-48.8 -48,-48.8 z"
     style="fill:#8c072d" /><polygon
     transform="translate(0,584)"
     id="polygon22"
     points="333.6,77.6 162.4,77.6 162.4,112.8 333.6,164.8 "
     style="fill:#c6ceca" /><polygon
     transform="translate(0,584)"
     id="polygon24"
     points="162.4,77.6 48,77.6 162.4,112.8 "
     style="fill:#03442d" /><path
     inkscape:connector-curvature="0"
     d="m 324.8,826.4 c 0,-0.8 0,-0.8 0,0 0,-0.8 0,-0.8 0,-0.8 0,0 -0.8,0.8 -0.8,1.6 0,0 0,0.8 0,1.6 0,0 0,-1.6 -0.8,-3.2 -0.8,-1.6 -1.6,-3.2 -1.6,-3.2 v 0 0 c 0,0 -1.6,1.6 -2.4,3.2 -0.8,1.6 -0.8,4 -0.8,5.6 0,-0.8 -0.8,-2.4 -1.6,-4 -1.6,-2.4 -2.4,-1.6 -2.4,-1.6 v 0 0 0 c 0,0 1.6,1.6 0.8,3.2 0,1.6 -0.8,4.8 0,6.4 0.8,1.6 1.6,2.4 2.4,3.2 0,0.8 0,2.4 0,3.2 v 0 0.8 l -2.4,-1.6 c 0,0 0,0 0,-0.8 0,-0.8 -0.8,-1.6 -1.6,-1.6 -0.8,0 -1.6,1.6 -1.6,2.4 0,0.8 0.8,1.6 1.6,1.6 h 0.8 l 2.4,2.4 c 0,0.8 -0.8,1.6 -0.8,1.6 0,0 0,0 -0.8,0 v 0 c -0.8,0.8 -2.4,3.2 -2.4,3.2 0,0 0,-0.8 0,-1.6 0,-0.8 0,-1.6 0,-1.6 v 0 0 c 0,0 -1.6,0.8 -4.8,2.4 -2.4,2.4 -4,4.8 -3.2,6.4 0,1.6 1.6,4 1.6,6.4 0,1.6 0,4 0,4 v 0 c 0,0 0,0.8 -0.8,0.8 l -3.2,-3.2 0.8,-0.8 c 0,-0.8 -0.8,-1.6 -1.6,-1.6 -0.8,0 -1.6,0.8 -1.6,1.6 0,0.8 0.8,1.6 1.6,1.6 v 0 l 2.4,4 c -0.8,0.8 -0.8,0.8 -1.6,0.8 0,0 -0.8,0 -3.2,0.8 -1.6,0.8 -3.2,2.4 -3.2,2.4 0,0 0.8,-0.8 0.8,-2.4 0,-2.4 -0.8,-3.2 -0.8,-3.2 v 0 0 c 0,0 0,0.8 0,1.6 v 0.8 c 0,0 0,0.8 -0.8,0.8 -0.8,1.6 -6.4,4.8 -7.2,7.2 -0.8,2.4 0,2.4 -0.8,3.2 -0.8,1.6 -1.6,2.4 -1.6,3.2 0,0 0,0 -0.8,0.8 0,0 -0.8,0 -0.8,0.8 l -0.8,-3.2 0.8,-0.8 c 0,-0.8 -0.8,-1.6 -1.6,-1.6 -0.8,0 -1.6,0.8 -1.6,1.6 0,0.8 0.8,1.6 1.6,1.6 v 0 4 l -0.8,0.8 c 0,0.8 -0.8,0.8 -0.8,1.6 v 0 0 0 c -0.8,0 -1.6,-0.8 -2.4,-0.8 -0.8,0 -1.6,0 -2.4,0 0,0 0.8,-0.8 1.6,-0.8 0.8,-0.8 0.8,-0.8 0.8,-0.8 v 0 c 0,0 -2.4,-0.8 -4,-0.8 -1.6,0 -4,0 -5.6,1.6 -1.6,0.8 -2.4,3.2 -4.8,4 -1.6,0.8 -4,1.6 -4,1.6 0,0 0,0 -0.8,0 -1.6,0 -2.4,-0.8 -4,-0.8 -1.6,0 -3.2,0 -3.2,0 0,-0.8 0,-0.8 0,-0.8 0,0 0,0 0,-0.8 h -1.6 v 0 H 248 v 0 0 h -1.6 c 0,0 -0.8,0 -0.8,0.8 0,0 0,0.8 0,1.6 -0.8,0 -1.6,-0.8 -3.2,-0.8 -3.2,0 -4.8,0.8 -5.6,0.8 H 236 c -1.6,-0.8 -1.6,-2.4 -2.4,-2.4 -0.8,0 0,2.4 -0.8,2.4 -0.8,0 -2.4,-4 -4.8,-4.8 -1.6,0 -2.4,0 -2.4,0.8 0,0.8 2.4,3.2 1.6,3.2 -0.8,0 -3.2,-4 -5.6,-4 -1.6,0 -2.4,0.8 -1.6,0.8 0,0.8 2.4,0.8 1.6,2.4 -0.8,1.6 -2.4,-2.4 -4,-1.6 -0.8,0 -1.6,0 -1.6,0 v 0 l -0.8,-4.8 c 0,0 0.8,0 0.8,-0.8 l 0.8,-0.8 c 0,0 0,0 0,-0.8 v 0 c 0,0 0,0 -0.8,0 0,0 0,0 -0.8,0 v 0 -0.8 l -0.8,-0.8 c 0,0 -0.8,0 -0.8,0.8 v 0.8 0.8 h -0.8 c 0,0 0,0 0,0.8 v 0 c 0,0.8 0,0.8 0.8,0.8 0,0 0.8,0 1.6,0 v 0 3.2 c -0.8,-0.8 -1.6,-1.6 -1.6,-1.6 v 0 c 0,0 -1.6,-0.8 -2.4,-2.4 -0.8,-1.6 0,-4 -0.8,-4 -0.8,0 -0.8,2.4 -1.6,1.6 -0.8,-0.8 0,-4 -0.8,-5.6 -0.8,-1.6 -2.4,-3.2 -3.2,-2.4 -0.8,0.8 0,4 -1.6,3.2 -0.8,-0.8 0,-4 0,-5.6 0,-1.6 -0.8,-2.4 -1.6,-2.4 -0.8,0 0,3.2 -0.8,3.2 -0.8,0 -0.8,-1.6 -1.6,-2.4 -0.8,0 -0.8,0 -0.8,0 0,0 0,-1.6 -0.8,-1.6 0,0 0,0 0,0.8 0,0.8 0,1.6 0,2.4 0,0 -0.8,-0.8 -1.6,-0.8 v -4 h 0.8 l 0.8,-0.8 v 0 0 0 0 c 0,0 0,-0.8 -0.8,-0.8 0,0 0,0 -0.8,0 V 864 c 0,-0.8 0,-0.8 0,-0.8 l -0.8,-0.8 c 0,0 -0.8,0 -0.8,0.8 v 0.8 0.8 0 h -0.8 c 0,0 0,0 -0.8,0.8 v 0 c 0,0.8 0,0.8 0.8,0.8 h 0.8 v 3.2 c -0.8,-0.8 -1.6,-1.6 -2.4,-2.4 0,0 -0.8,-1.6 -0.8,-3.2 0,-2.4 1.6,-5.6 1.6,-6.4 -0.8,-0.8 -1.6,2.4 -2.4,1.6 -0.8,-0.8 0.8,-4 0,-5.6 -0.8,-1.6 -0.8,-2.4 -1.6,-2.4 -1.6,0 -1.6,4 -2.4,4 -0.8,-0.8 0,-2.4 0,-4 -3.2,-3.2 -3.2,-3.2 -4,-3.2 -0.8,0 -0.8,2.4 -1.6,2.4 0,0 -0.8,-0.8 -1.6,-1.6 0,-0.8 0,-1.6 0,-3.2 l 1.6,-4 h 0.8 c 0.8,0 0.8,0 0.8,0 l 0.8,-0.8 V 840 l -0.8,-0.8 v 0 l 0.8,-0.8 v 0 0 -0.8 -0.8 0 c -0.8,0 -0.8,0 -1.6,0.8 v 0.8 0 0 0 c 0,0 0,0 -0.8,0 0,0 -0.8,0 -0.8,0.8 v 0.8 c 0,0.8 0,0.8 0.8,1.6 l -1.6,2.4 c -0.8,-1.6 -0.8,-2.4 -0.8,-4 0,-1.6 0.8,-1.6 0.8,-2.4 0,-0.8 -0.8,0.8 -0.8,-0.8 0,-0.8 4,-3.2 3.2,-4 -0.8,-0.8 -4,1.6 -3.2,0 0.8,-1.6 4,-1.6 4,-4.8 0,-1.6 -3.2,0.8 -3.2,0 0,-0.8 1.6,-2.4 1.6,-4 0,-0.8 0.8,-1.6 0,-1.6 0,0 0,0 -0.8,0 -1.6,0.8 -0.8,1.6 -2.4,1.6 0,0 -0.8,-1.6 -0.8,-0.8 -0.8,0 -1.6,1.6 -1.6,2.4 0,0.8 0,2.4 0,3.2 -0.8,0.8 -0.8,-1.6 -2.4,-1.6 -0.8,0 -1.6,1.6 -1.6,2.4 0,0.8 2.4,3.2 1.6,4 -0.8,0.8 -2.4,-2.4 -4,-0.8 -0.8,1.6 3.2,4 4,4 0.8,0 0,0.8 0.8,1.6 0.8,0.8 1.6,1.6 2.4,1.6 0.8,0.8 1.6,2.4 1.6,4 l -3.2,-1.6 v -0.8 -0.8 l -0.8,-0.8 h -0.8 c 0,0 0,0 -0.8,0.8 0,0 0,0 -0.8,-0.8 v 0 0 h -0.8 c 0,0 -0.8,0 -0.8,0.8 v 0 c 0,0.8 0,0.8 0.8,1.6 0,0 0,0 0.8,0 v 0 0 0 c 0,0 0,0 0,0.8 0,0 0,0.8 0.8,0.8 h 0.8 c 0.8,0 0.8,0 1.6,-0.8 l 4,3.2 c 0,1.6 0,2.4 0,2.4 v 0 0 0.8 c -0.8,0 -1.6,-0.8 -1.6,0 0,0.8 1.6,1.6 0.8,2.4 0,0 -3.2,-0.8 -3.2,0 0,0.8 0,2.4 1.6,2.4 1.6,0.8 5.6,1.6 4.8,1.6 -0.8,0.8 -4.8,-2.4 -4.8,0 0,2.4 1.6,3.2 2.4,3.2 0.8,0 4.8,0 4.8,0.8 0,0.8 -3.2,0 -3.2,0.8 0,1.6 2.4,1.6 2.4,1.6 0.8,0 2.4,0 3.2,0.8 0.8,0.8 3.2,3.2 4,4 v 0 0 h -2.4 c 0,-0.8 0,-0.8 -0.8,-1.6 l -0.8,-0.8 v 0 0 c 0,0 0,0 -0.8,0 0,0 0,0 0,0.8 v 0 c 0,0 0,0 0,0.8 H 184 c -0.8,0 -0.8,0 -0.8,0 v 0 0 0 c 0,0 0.8,0.8 1.6,0.8 v 0 0 0 0.8 c 0,0 0,0 0.8,0.8 v 0 c 0.8,0 1.6,-0.8 1.6,-1.6 h 4 c 1.6,0.8 2.4,1.6 2.4,1.6 v 0 0 0 0 c -0.8,0 -2.4,0 -2.4,0 0,0.8 6.4,3.2 4,4 -1.6,0.8 -4,-1.6 -4,0 -0.8,1.6 1.6,3.2 2.4,3.2 0.8,0.8 6.4,0 5.6,1.6 -0.8,1.6 -4.8,-0.8 -5.6,0.8 0,1.6 2.4,4 4,4 1.6,0 3.2,-2.4 4,-0.8 0.8,1.6 -0.8,1.6 0,2.4 1.6,0 2.4,-1.6 4,-0.8 1.6,0 4,1.6 4.8,2.4 h -3.2 c 0,0 0,-0.8 -0.8,-0.8 l -0.8,-0.8 h -0.8 v 0.8 c 0,0 0,0 0,0.8 v 0 c -0.8,0 -0.8,0 -0.8,0 l -0.8,0.8 c 0,0 0,0.8 0.8,0.8 h 0.8 0.8 v 0 0.8 h 0.8 v 0 c 0,0 0.8,0 0.8,-0.8 v -0.8 -0.8 h 4 c 0.8,0.8 1.6,1.6 1.6,1.6 0,0 -1.6,0 -2.4,0.8 -0.8,0 -1.6,1.6 -1.6,1.6 0,0 0,0 0,0.8 v 0 0 0 0 h 1.6 l 0.8,-0.8 c 0,0 0,0.8 0.8,0.8 0.8,0 2.4,-1.6 4,-0.8 1.6,0.8 -2.4,1.6 -1.6,3.2 0.8,1.6 3.2,0.8 4,0 0.8,0 2.4,-3.2 4,-1.6 0.8,1.6 -2.4,2.4 -1.6,4 0.8,1.6 2.4,0.8 4,0.8 0.8,-0.8 3.2,-4 4,-3.2 0.8,1.6 -1.6,2.4 -1.6,4 0.8,0.8 2.4,0 3.2,-0.8 0.8,-0.8 1.6,-2.4 3.2,-3.2 1.6,-0.8 1.6,-0.8 1.6,-0.8 v 0 c 0,0 0.8,-0.8 1.6,-0.8 0.8,-0.8 2.4,-1.6 4,-1.6 0.8,0 1.6,0 1.6,0.8 -1.6,0.8 -4,1.6 -5.6,2.4 -1.6,0.8 -2.4,1.6 -3.2,2.4 v 0 c 0,0 0.8,0.8 1.6,0.8 0.8,0 1.6,-0.8 1.6,-0.8 0,0 1.6,-0.8 3.2,-2.4 0.8,-0.8 3.2,-1.6 4,-1.6 0,0.8 0,0.8 0,1.6 0,0.8 -1.6,0.8 -4,3.2 -2.4,2.4 -3.2,4.8 -3.2,4.8 0,0 0.8,-0.8 1.6,-0.8 0.8,0 1.6,-0.8 1.6,-0.8 v 0 c 0,0 0,0 0.8,0 0.8,0 0.8,0.8 1.6,0.8 0,0 0,0 0.8,0.8 0,0.8 0.8,0.8 0.8,0.8 0,0 0.8,-1.6 2.4,-2.4 0,0 0.8,-0.8 1.6,-1.6 0,0.8 0.8,0.8 1.6,1.6 0.8,0.8 2.4,0.8 3.2,1.6 0.8,0.8 1.6,0.8 1.6,0.8 l 0.8,-0.8 0.8,-0.8 v 0 c 0,0 0,0 0.8,-0.8 0.8,0 0.8,0 0.8,0 v 0 c 0,0 0,0 1.6,0 1.6,0 1.6,0.8 1.6,0.8 0,0 -1.6,-2.4 -2.4,-3.2 -0.8,-0.8 -3.2,-1.6 -4.8,-2.4 -0.8,-0.8 -1.6,-1.6 -1.6,-1.6 v 0 -0.8 c 0.8,0 2.4,0.8 4,1.6 1.6,0.8 2.4,1.6 2.4,2.4 0,0 0.8,0.8 1.6,0.8 0.8,0 1.6,-0.8 0.8,-0.8 v 0 0 0 0 c 0,0 -0.8,-1.6 -4,-3.2 -2.4,-0.8 -4,-1.6 -4.8,-1.6 0,0 0,0 0,-0.8 0.8,0 4.8,0 6.4,0.8 1.6,0.8 3.2,1.6 4.8,2.4 1.6,1.6 4.8,4 6.4,4 3.2,0 9.6,-4 11.2,-4 1.6,-0.8 3.2,-0.8 3.2,-0.8 v 0 0 0 0 0 0 0 c 0,0 0,0 -0.8,0 0,0 0,0 0.8,0 0,0 -0.8,-0.8 -2.4,-0.8 -0.8,0 -0.8,-0.8 -0.8,-0.8 -0.8,0 -2.4,0 -2.4,0 0,0 1.6,-1.6 2.4,-1.6 0.8,-0.8 2.4,-1.6 2.4,-1.6 v 0 c 0,0 0.8,-0.8 1.6,-1.6 l 4,2.4 v 0 0.8 0 0 0 l 0.8,0.8 h 0.8 c 0.8,0 0.8,-0.8 0.8,-1.6 V 888 l -0.8,-0.8 h -0.8 v 0 l -2.4,-2.4 c 0.8,-0.8 1.6,-0.8 2.4,-0.8 1.6,0 9.6,0 12.8,-1.6 4,-2.4 3.2,-6.4 3.2,-7.2 0,-0.8 0.8,-1.6 0.8,-1.6 0,0 -0.8,0 -1.6,0 -0.8,0 -1.6,0.8 -1.6,0.8 0,0 0,-1.6 0.8,-2.4 0,-0.8 0,-0.8 0,-1.6 v 0 0 c 0.8,0 0.8,0 1.6,-0.8 l 3.2,0.8 c 0,0.8 0.8,1.6 1.6,1.6 0.8,0 1.6,-0.8 1.6,-1.6 0,-0.8 -0.8,-1.6 -1.6,-1.6 -0.8,0 -0.8,0 -1.6,0.8 l -2.4,-0.8 c 0,-0.8 0.8,-0.8 1.6,-1.6 0,0 0.8,-0.8 1.6,-0.8 0.8,0 2.4,0 4.8,-1.6 3.2,-1.6 4.8,-6.4 5.6,-8.8 0.8,-2.4 3.2,-4 3.2,-4 v 0 c 0,0 -1.6,-0.8 -4.8,2.4 0,0 0,-2.4 0,-4 0,-0.8 0,-1.6 0,-2.4 v -0.8 0 -0.8 l 4.8,-1.6 0.8,0.8 c 0.8,0 1.6,-0.8 1.6,-1.6 0,-0.8 -0.8,-1.6 -1.6,-1.6 -0.8,0 -1.6,0.8 -1.6,1.6 h -4 v -0.8 c 0,-0.8 1.6,-1.6 2.4,-3.2 1.6,-1.6 5.6,-3.2 5.6,-7.2 v 0 c 0.8,-4.8 -0.8,-5.6 -1.6,-6.4 z m -112,52.8 z m 39.2,13.6 c 0,0 -0.8,0 0,0 -0.8,0 -0.8,0 0,0 z m 31.2,-4.8 z m 21.6,-18.4 z"
     style="fill:#006847"
     id="SVGCleanerId_0" /><g
     transform="translate(0,584)"
     id="g37">
	<path
   inkscape:connector-curvature="0"
   id="path27"
   d="M 178.4,264 Z"
   style="fill:#006847" />
	<path
   inkscape:connector-curvature="0"
   id="path29"
   d="m 191.2,241.6 1.6,2.4 -0.8,0.8 h 0.8 v 0.8 H 192 v -0.8 l -1.6,1.6 c 0,0 0,0 0.8,0 v 0.8 l 0.8,0.8 c 0,0 0.8,0 1.6,0 v 0 c 0,0.8 0,1.6 0.8,2.4 0.8,1.6 1.6,2.4 2.4,2.4 0,0.8 -0.8,1.6 -0.8,3.2 v 0.8 0 h -0.8 c 0,0 0,0.8 0.8,0.8 v 0 c 0.8,1.6 1.6,3.2 3.2,4.8 v 0 h -1.6 c 0,0 0.8,0.8 1.6,0.8 h 0.8 c 1.6,0.8 3.2,1.6 4,2.4 0,0 0,0 0,0.8 l -0.8,0.8 v 0 c 0,0 1.6,0 1.6,-0.8 v -0.8 c 1.6,0.8 3.2,0.8 4,0.8 v 0 0 0 c 0,0.8 0.8,1.6 1.6,3.2 v 0 c -0.8,0 -1.6,1.6 -1.6,1.6 0,0 1.6,0 1.6,-0.8 0,0 0,0 0.8,0 1.6,0.8 3.2,1.6 5.6,2.4 0,0.8 0,0.8 0,0.8 0,0 0.8,-0.8 1.6,-0.8 v 0 0 0 c 0,0.8 -0.8,1.6 -0.8,1.6 0,0 0.8,0 1.6,-0.8 0,0 0,-0.8 0.8,-0.8 h 0.8 c 0.8,0 0.8,0 1.6,0 3.2,0 5.6,-0.8 6.4,-1.6 0,1.6 0.8,2.4 1.6,4 0.8,0.8 1.6,0.8 2.4,1.6 v 0.8 h -0.8 0.8 c 0,0 0.8,0 0.8,-0.8 h 0.8 c 0.8,0 2.4,0.8 4.8,0.8 0,0.8 -0.8,1.6 -0.8,1.6 0,0 0.8,0 1.6,-0.8 v 0 c 0.8,0 1.6,0 1.6,0 0.8,0 1.6,0 2.4,0 v 0 c 0,0.8 -0.8,1.6 -0.8,1.6 0,0 0.8,0 0.8,-0.8 l 0.8,-0.8 c 0,0.8 0,1.6 0,1.6 0,0 0.8,-0.8 0.8,-1.6 0,0 0,0 0,-0.8 v 0 c 1.6,-0.8 2.4,-0.8 3.2,-1.6 0,0 0,0 0,0.8 0,0.8 0,1.6 0,3.2 0,0.8 0,1.6 0,2.4 -0.8,0 -0.8,0 -1.6,0 v 0 c -0.8,0 -3.2,0 -3.2,0 v 0 c 0,0 0,0 -0.8,0 h -0.8 c 0,0 0,0 -0.8,0 -0.8,0 -1.6,0 -1.6,0 v 0 h -0.8 -0.8 v 0 c -0.8,-0.8 -0.8,-0.8 -1.6,-0.8 v 0 c -0.8,0 -1.6,0.8 -1.6,0.8 -0.8,0.8 -0.8,1.6 -0.8,2.4 v 0 c 0,0 0,0 -0.8,0 -0.8,0 -1.6,-0.8 -2.4,-0.8 -0.8,-0.8 -1.6,-1.6 -2.4,-3.2 0,-0.8 -0.8,-0.8 -0.8,-0.8 0.8,-0.8 0.8,-0.8 0.8,-1.6 0,-1.6 -0.8,-2.4 -2.4,-2.4 -1.6,0 -2.4,0.8 -2.4,2.4 0,1.6 0.8,2.4 1.6,2.4 v 0.8 0.8 0 0 0 c 0,0 -0.8,0 -1.6,0 -1.6,-0.8 -4.8,-1.6 -7.2,-3.2 -1.6,-0.8 -2.4,-1.6 -3.2,-1.6 -0.8,0 -0.8,-0.8 -0.8,-0.8 v 0 c -0.8,-1.6 -6.4,-3.2 -6.4,-1.6 -0.8,1.6 1.6,4.8 4,4.8 0.8,0 1.6,0 2.4,0 0.8,0 2.4,1.6 4,2.4 0.8,0.8 1.6,0.8 1.6,1.6 l 0.8,0.8 v 0 0 0.8 c 0,0 -0.8,0 -0.8,0.8 0,0 0,0 -0.8,0 -0.8,-0.8 -0.8,-0.8 -1.6,-0.8 -1.6,0 -2.4,0.8 -2.4,2.4 0,1.6 0.8,2.4 2.4,2.4 1.6,0 2.4,-0.8 2.4,-2.4 v 0 c 1.6,0 4,0 6.4,0.8 1.6,0 2.4,0.8 3.2,0.8 0.8,0 0.8,0.8 0.8,0.8 v 0.8 0 0.8 c 0,0 -0.8,0.8 -1.6,0.8 h -0.8 v 0 c -0.8,0 -1.6,0 -2.4,0 -1.6,0.8 -3.2,2.4 -2.4,3.2 0.8,0.8 3.2,1.6 4.8,0.8 0.8,-0.8 1.6,-0.8 2.4,-1.6 0,0 0,0 0.8,0 0.8,0 2.4,0 4,0 0.8,0 1.6,0 1.6,0 v 0 c 0,0.8 0.8,0.8 0.8,1.6 0.8,0.8 0.8,0.8 1.6,0.8 0,0 0,0 0.8,0 v 0 c 0.8,0.8 1.6,1.6 2.4,1.6 0,0 0.8,0 1.6,0.8 1.6,0 4.8,0.8 8,0.8 2.4,0 4,0 6.4,0 0.8,0 1.6,0 2.4,0 0.8,0 0.8,0 1.6,0 1.6,0 2.4,-0.8 3.2,-2.4 0,0 0.8,0 0.8,-0.8 0,0 0,0 0.8,-0.8 0.8,-0.8 2.4,-1.6 4,-1.6 2.4,-0.8 3.2,-0.8 4.8,-0.8 h 0.8 c 0.8,0.8 1.6,1.6 2.4,1.6 1.6,0 2.4,-0.8 2.4,-2.4 0,-1.6 -0.8,-2.4 -2.4,-2.4 -0.8,0 -2.4,0.8 -2.4,1.6 0,0 -0.8,0 -0.8,-0.8 l -0.8,-0.8 v -0.8 0 0 c 0,0 0,0 0.8,-0.8 0.8,-0.8 3.2,-1.6 4.8,-1.6 0.8,0 1.6,-0.8 2.4,-0.8 v 0 0 c 1.6,1.6 3.2,0 4,-0.8 0.8,-0.8 2.4,-1.6 1.6,-3.2 -0.8,-0.8 -2.4,-0.8 -3.2,-0.8 -0.8,0 -1.6,0.8 -2.4,1.6 -0.8,0 -1.6,0 -3.2,0.8 -1.6,0.8 -4.8,1.6 -8.8,1.6 -0.8,0 -2.4,0 -2.4,0 v -0.8 c 0,-0.8 -0.8,-1.6 -0.8,-2.4 l -0.8,-0.8 h -0.8 c -0.8,0 -0.8,0 -1.6,0.8 0,0 -0.8,0 -0.8,0.8 v 0 l -0.8,-0.8 c 0,-0.8 0.8,-0.8 0.8,-0.8 0,0 0.8,-0.8 1.6,-0.8 0.8,0 0.8,-0.8 0.8,-0.8 0,0 0,0 0.8,0 L 268,280 c 0.8,0 0.8,0 1.6,0 0.8,0 2.4,0 3.2,-0.8 0.8,0 1.6,0.8 3.2,1.6 h 0.8 c 0,0 0,0.8 0.8,1.6 0.8,0.8 1.6,0.8 1.6,0.8 l -0.8,-1.6 v 0 c 1.6,0.8 4,0.8 5.6,0.8 v 0 c 1.6,0 3.2,-0.8 4.8,-0.8 0,0 0,0.8 0.8,0.8 0.8,0 1.6,0 1.6,0 0,0 -0.8,-0.8 -1.6,-0.8 0,0 0,0 -0.8,-0.8 v 0 l 0.8,0.8 c 0.8,0 1.6,0 1.6,0 0,0 -1.6,0 -1.6,-0.8 v 0 c 0,0 0.8,0 0.8,-0.8 0.8,-0.8 1.6,-0.8 2.4,-1.6 l 0.8,-0.8 c 0,0 0,0 0.8,-0.8 h 0.8 c 0.8,0 1.6,-0.8 1.6,-0.8 h -0.8 -0.8 v 0 -0.8 c 0,-0.8 0,-1.6 0,-2.4 0,0 0,0 0,-0.8 0.8,0 0.8,-0.8 1.6,-0.8 0.8,-0.8 1.6,-1.6 1.6,-2.4 v 0 c 0,0 0.8,0 1.6,0 v -0.8 0 -1.6 0.8 c 0,0 0,0 -0.8,0 v 0 c 0,0 0,0 0,-0.8 0,0 0,0 0.8,0 v 0 l 1.6,-2.4 h 0.8 c 0.8,0 0.8,0 1.6,-0.8 v -0.8 c 0,-0.8 0,-0.8 -0.8,-1.6 v 0 h -0.8 c -0.8,0 -0.8,0 -1.6,0.8 v 0.8 c 0,0 0,0 0,0.8 l -2.4,1.6 v 0 0 0 h -0.8 v -0.8 0 l -1.6,-0.8 c 0,0 0,0 0,0.8 h -0.8 l -0.8,0.8 v 0 0.8 h 0.8 c -0.8,0 -1.6,0.8 -2.4,1.6 -0.8,0.8 -0.8,0.8 -1.6,1.6 -0.8,0 -0.8,-0.8 -1.6,-0.8 -0.8,0 -0.8,-0.8 -1.6,-0.8 h -0.8 v 0 0 0 l 0.8,-1.6 c 0,0 -0.8,0 -1.6,0.8 v 0.8 c -0.8,0 -0.8,0.8 -1.6,0.8 -0.8,0.8 -1.6,0.8 -2.4,1.6 v 0 c 0,-0.8 0,-1.6 0,-1.6 l -0.8,0.8 c 0,0 0,0.8 0,1.6 v 0 c -0.8,0.8 -1.6,1.6 -2.4,2.4 l -0.8,0.8 c 0,0 -0.8,0 -1.6,0 v 0 c -0.8,0 -1.6,0 -1.6,0 0,0 0,0 0,-0.8 v 0 0 0 c 0,-0.8 0,-0.8 0,-1.6 0,-0.8 0,-1.6 0,-1.6 0,0 1.6,0 1.6,0.8 0.8,1.6 -1.6,1.6 -1.6,1.6 0,0 0.8,0 1.6,0 v 0 h 0.8 c 0,0 0.8,0 0.8,-0.8 v 0 0 -0.8 c 0,-0.8 0,-1.6 -0.8,-1.6 v 0 0 0 0 c -0.8,-0.8 -0.8,-0.8 -0.8,-0.8 v 0 0 0 0 -0.8 l -0.8,-0.8 h -0.8 c -0.8,0 -0.8,0 -1.6,0 0,0 0,-0.8 -0.8,-0.8 l -0.8,-0.8 v 0 0 c 0,0 0,0 -0.8,-0.8 0,-0.8 -0.8,-0.8 -0.8,-0.8 v 0 c 0,0 0,-0.8 -0.8,-0.8 0,0 -0.8,0 -0.8,-0.8 0,-0.8 0,-1.6 0,-2.4 0.8,0.8 1.6,1.6 1.6,0.8 0.8,0 0,-1.6 0,-2.4 0,0 0,-0.8 0,-1.6 0,0 0,0 0,-0.8 l 5.6,6.4 c 0,0 0.8,0.8 2.4,0.8 0.8,0 1.6,-0.8 1.6,-0.8 0,0 0.8,1.6 3.2,1.6 1.6,0 2.4,-0.8 3.2,-1.6 0.8,0 0.8,0.8 0.8,0.8 2.4,0.8 5.6,-1.6 6.4,-1.6 h 0.8 c 4,0.8 6.4,-2.4 6.4,-2.4 l -1.6,-1.6 v 0 0 0 0 c 0,0 -4.8,-4 -12,-8.8 -5.6,-4 -11.2,-8.8 -13.6,-10.4 0,-1.6 0,-4 -0.8,-5.6 -0.8,-2.4 -1.6,-3.2 -1.6,-4 0.8,-0.8 0.8,-1.6 0.8,-2.4 0,0 0,0 0.8,0 0.8,0.8 1.6,2.4 3.2,3.2 1.6,0.8 1.6,0 2.4,0.8 0.8,0.8 4.8,6.4 4.8,6.4 v 0 c 0.8,0.8 0.8,1.6 0.8,1.6 v 0 l 0.8,0.8 c 0.8,0 0.8,0 0.8,-0.8 0,0 -1.6,-1.6 -2.4,-3.2 -0.8,-1.6 -1.6,-4.8 -2.4,-6.4 v 0 c 0,0 0.8,0 1.6,0 0.8,0 4,3.2 4,4 0,0.8 0,1.6 1.6,4 1.6,3.2 2.4,4 2.4,4 v 0 0 c 0,0.8 0.8,1.6 1.6,1.6 0.8,0 0,-0.8 -0.8,-1.6 0,-0.8 -0.8,-2.4 -1.6,-4.8 -0.8,-2.4 -1.6,-5.6 -1.6,-5.6 0,0 0,0 -0.8,-0.8 0,0 0,0 0.8,0 l 0.8,0.8 v 0 c 0.8,0.8 2.4,3.2 2.4,4 0.8,1.6 0.8,4 1.6,6.4 0.8,2.4 1.6,4.8 2.4,4 0,-0.8 0,-4.8 -1.6,-8 -0.8,-3.2 -1.6,-7.2 -1.6,-8 v 0 c 0,0 0.8,0.8 1.6,2.4 0.8,1.6 0,3.2 1.6,8 1.6,4.8 2.4,5.6 3.2,7.2 0.8,1.6 -0.8,6.4 0.8,7.2 0,0 0,-8 0,-10.4 0,-2.4 0,-2.4 -0.8,-8 -0.8,-5.6 -0.8,-6.4 -0.8,-6.4 v 0 c 0,0 0.8,0.8 1.6,3.2 0.8,4 0.8,9.6 1.6,11.2 0.8,1.6 0.8,0.8 1.6,3.2 0.8,1.6 -0.8,10.4 0.8,10.4 1.6,0 0.8,-11.2 0.8,-14.4 0,-3.2 -0.8,-12.8 -0.8,-13.6 v 0 c 0.8,0.8 1.6,2.4 1.6,3.2 v 0 0 c 0,2.4 0,11.2 0.8,13.6 0,3.2 0.8,3.2 0.8,6.4 0,2.4 -0.8,5.6 -0.8,6.4 0,0.8 0,2.4 0.8,2.4 0.8,0 0,-1.6 0.8,-2.4 0,-0.8 0.8,-0.8 0.8,-1.6 0.8,-1.6 0.8,-11.2 1.6,-16 0.8,-4.8 1.6,-4 1.6,-9.6 0,-4.8 -1.6,-8.8 -1.6,-9.6 0.8,0 0.8,0 1.6,0 0.8,0 0.8,-0.8 0.8,-0.8 0,-0.8 -0.8,-0.8 -2.4,-1.6 l -1.6,-3.2 c -1.6,-3.2 -3.2,-8 -7.2,-13.6 -4.8,-7.2 -12,-12 -12.8,-12 v 0 0 0 0 0 c 0,0 0,-0.8 0.8,-0.8 0,0 1.6,-1.6 0.8,-1.6 -0.8,0 -2.4,0 -3.2,0 -0.8,0 -1.6,0 -4.8,-2.4 0,0 -8.8,-6.4 -23.2,-7.2 -4.8,0 -6.4,1.6 -6.4,2.4 v 0 c 0,0 0,0 0,0.8 0,0 -0.8,0 -1.6,0 -0.8,0 -2.4,0 -3.2,0.8 -6.4,-0.8 -7.2,0 -7.2,2.4 v 0 c 0,0.8 0,1.6 0.8,2.4 0,0.8 0.8,0.8 1.6,0.8 0.8,0 1.6,0 3.2,0.8 1.6,0 2.4,0.8 4,2.4 1.6,0.8 1.6,2.4 2.4,3.2 0,0.8 0,1.6 0,2.4 0,0.8 0,1.6 0,1.6 0,0 0,0 0,0.8 -0.8,-0.8 -0.8,-1.6 -1.6,-2.4 -0.8,-1.6 -2.4,-3.2 -3.2,-3.2 0,-0.8 0,-1.6 0,-1.6 0,0 0,0.8 -1.6,0.8 -0.8,0 -1.6,-0.8 -4,-1.6 -1.6,-0.8 -2.4,-0.8 -3.2,-0.8 v 0 c 0,0 0,0 -0.8,0 h -0.8 c 0,-2.4 -1.6,-4 -1.6,-4 v 0 0 0 0 0 0 c 0,0 0,0.8 -0.8,1.6 0,0.8 -1.6,1.6 -1.6,2.4 0,-1.6 -0.8,-3.2 -0.8,-3.2 v 0 c 0,-1.6 -0.8,-1.6 -0.8,-1.6 v 0 0 0 0 c 0,0 0,0 0,0.8 0,2.4 -0.8,4.8 -0.8,5.6 -0.8,0.8 -1.6,0.8 -1.6,0.8 0.8,-0.8 0.8,-0.8 0.8,-2.4 0,-2.4 -1.6,-2.4 -1.6,-2.4 v 0 0 0 0 c 0,0 0,0.8 0,3.2 0,1.6 -1.6,3.2 -1.6,3.2 0,0 0,-0.8 0,-1.6 0,-2.4 -0.8,-2.4 -0.8,-2.4 v 0 0 0 0 0 0 0 0 0 c 0,0 0,0.8 -0.8,2.4 -0.8,2.4 -1.6,2.4 -2.4,4 -2.4,2.4 -3.2,2.4 -3.2,3.2 v 0.8 0 0 0 0 0 0 0 0 0 0 0 0 0 0 0 0 c 0,0 0,0 0,0.8 0,0 0,0 0,0.8 v 0 0 0 0 c 0,0 -0.8,0 -1.6,0.8 v 0 c -0.8,0 -1.6,0.8 -4,0.8 -0.8,0 -1.6,0 -1.6,-0.8 0,-0.8 0,-0.8 0,-1.6 0.8,0 0.8,0 1.6,-0.8 0,0 0.8,-0.8 1.6,-0.8 1.6,-0.8 2.4,-2.4 2.4,-2.4 v 0 c 0,0 0,0 -0.8,0 0,0 -0.8,0.8 -1.6,0.8 -1.6,0.8 -3.2,0.8 -3.2,0.8 0,0 0,0 0,-0.8 v 0 c 0,0 0.8,-0.8 0.8,-1.6 l 0.8,-0.8 c 0,-0.8 0,-0.8 0.8,-1.6 v -0.8 c 0,0 0,-0.8 0.8,-0.8 0,0 0.8,0.8 0.8,1.6 0,0.8 0,1.6 0,1.6 1.6,0 0.8,-4 0.8,-4.8 v 0 -0.8 l -0.8,-0.8 -1.6,0.8 c 0,0 -0.8,0 -1.6,0 -0.8,0 -5.6,4 -5.6,5.6 0,1.6 0.8,2.4 0.8,3.2 v 0 0 c 0,1.6 0,6.4 2.4,7.2 2.4,0.8 6.4,0 6.4,0 v 0 c 0,0.8 0.8,0.8 1.6,1.6 0.8,0.8 2.4,1.6 3.2,1.6 0.8,0 0.8,0 1.6,-0.8 v 0 0 0.8 0 0 0 c -1.6,3.2 -4.8,4.8 -7.2,7.2 -1.6,0.8 -2.4,2.4 -4,4 -3.2,4 -4,5.6 -4,8.8 0,0 0,0 0,0.8 0,4.8 2.4,8 4,8.8 1.6,0.8 4,1.6 4.8,1.6 v 0 0 0 c 0,0 0.8,0 1.6,0 0.8,0 1.6,0 3.2,0 0.8,0 1.6,0 1.6,0 0.8,0 0.8,0 0.8,0 0,0 0,0 0,0.8 0,0 0,0.8 -0.8,0.8 v 0 c 0,-0.8 0.8,-0.8 0.8,-0.8 h -0.8 -0.8 c 0,0 0,0 -0.8,0 0,0 -0.8,0 -1.6,0 v 0 c -0.8,0 -1.6,0.8 -1.6,0.8 0,0.8 -0.8,0.8 -0.8,1.6 v 0 c 0,0 0,0 -0.8,0 0,0 -0.8,0 -0.8,0.8 0,0 -0.8,0.8 -0.8,1.6 v 0 c 0,0 0,0 -0.8,0 0,0 0,0.8 0,1.6 v 0 h -0.8 c -0.8,0 -0.8,0 -1.6,-0.8 -0.8,-0.8 -0.8,-1.6 -0.8,-2.4 0,-0.8 0,-1.6 -0.8,-3.2 -0.8,-1.6 -2.4,-2.4 -3.2,-4 -1.6,-0.8 -2.4,-2.4 -3.2,-3.2 v -0.8 c 0,-0.8 0.8,-1.6 0.8,-3.2 v -0.8 c 0,-0.8 0.8,-1.6 0.8,-2.4 v -0.8 -0.8 c 0,-1.6 -1.6,-3.2 -3.2,-4.8 -0.8,-0.8 -1.6,-0.8 -2.4,-1.6 v 0 c 0,0 0,-0.8 -0.8,-0.8 l -0.8,-0.8 v 0 c 0,0 0,0 -0.8,0 0,0 0,0.8 -0.8,0.8 v 0 0 0 0 c 0,0 0,0 0,-0.8 L 196,216 v 0 c 0,0 0,0 -0.8,0 v 0 0 l -0.8,-0.8 v 0 h -0.8 c 0,0 0,0.8 -0.8,0.8 v 0 0 0 H 192 l -0.8,0.8 v 0 c 0,0.8 0,0.8 0.8,0.8 v 0 0 0 0 0.8 c 0,0 0,0 0.8,0 0,0 0,0 0.8,0 h 0.8 v 0 h 0.8 c 0.8,0 1.6,0 1.6,0 v 0 0 0 c 0,0 0,0 0,0.8 0,0 0,0 0.8,0 v 0 c 0.8,0 0.8,0 0.8,-0.8 v 0 c 0,0 0.8,0 0.8,0.8 0.8,0.8 0.8,0.8 0.8,1.6 0,0 0,0 0,0.8 0,0.8 -0.8,1.6 -0.8,3.2 -0.8,1.6 -0.8,3.2 -0.8,4.8 v 0.8 c 0,0.8 0,0.8 0,1.6 0,0.8 0.8,1.6 0.8,2.4 0.8,0.8 0.8,0.8 1.6,1.6 1.6,0.8 3.2,1.6 4,3.2 0.8,1.6 0.8,3.2 1.6,4.8 0,0.8 0,1.6 0.8,2.4 0,0.8 0.8,1.6 1.6,1.6 0.8,0.8 1.6,0.8 3.2,0.8 v 0 c 0,0 0,0 0.8,0 0.8,0 0.8,0 1.6,0 0.8,0 1.6,0 1.6,-0.8 0.8,0 1.6,-0.8 1.6,-0.8 0,0 0.8,0.8 1.6,0.8 v 0 c 0.8,0 1.6,-0.8 2.4,-0.8 0.8,0 1.6,-0.8 1.6,-0.8 v 0 c 0.8,0 0.8,0 0.8,0 v 0 l 0.8,0.8 h 0.8 v 0 0 c 0,0 0.8,0 0.8,-0.8 0.8,-0.8 1.6,-1.6 1.6,-1.6 v 0 l 0.8,0.8 v 0 c -0.8,0 -1.6,0.8 -1.6,0.8 v 0 0 0 0 0 c 0,0 0.8,0.8 3.2,1.6 2.4,0.8 4,0.8 4,0.8 v 0 0 0 0 c -0.8,0.8 -0.8,1.6 0,1.6 v 0 0 0 0 0 c 0,0 0.8,0.8 4.8,0 3.2,-0.8 3.2,-0.8 3.2,-1.6 0.8,0 0.8,0 0.8,0 v 0 0 0 0 0 c 0,0 0.8,2.4 1.6,2.4 1.6,0 1.6,-4 1.6,-5.6 2.4,2.4 4,4.8 4,4.8 0,0 0.8,0.8 1.6,0.8 v 0 0 c 0,0 0.8,1.6 1.6,3.2 0.8,1.6 1.6,3.2 2.4,2.4 0.8,0 0.8,-1.6 0.8,-1.6 v 0 -0.8 0 c 0,0 0.8,0.8 1.6,1.6 v 0 c 0,0 0,0 -0.8,0 -0.8,0 -0.8,0.8 -1.6,0.8 0,0 -0.8,0 -0.8,0.8 h -0.8 v 0 0 0 c 0,0 0,0 -0.8,0 v 0 c -0.8,0 -0.8,0 -0.8,0 v 0 l -0.8,-0.8 v 0 c -0.8,0 -0.8,0 -1.6,0.8 l -0.8,0.8 c 0,0 -0.8,0 -1.6,0 -0.8,0 -2.4,0.8 -2.4,1.6 v 0 c -0.8,0 -0.8,-0.8 -1.6,-0.8 -0.8,0 -0.8,-0.8 -1.6,-0.8 v -0.8 c 0,-0.8 -0.8,-1.6 -0.8,-1.6 0,0 0,0.8 0,1.6 v 0.8 0 h -0.8 v -0.8 c 0,-0.8 -0.8,-0.8 -0.8,-0.8 v 0.8 0.8 0 c -0.8,0 -1.6,-0.8 -2.4,-0.8 -0.8,0 -1.6,-0.8 -2.4,-0.8 V 256 l -1.6,-1.6 c 0,0 0,0.8 0.8,1.6 -0.8,-0.8 -1.6,-0.8 -1.6,-0.8 0,0 0.8,0.8 0.8,1.6 0,0 0,0 0,0.8 -0.8,0 -1.6,0.8 -1.6,0.8 -0.8,0 -0.8,0.8 -1.6,0.8 0,0 0,0 -0.8,-0.8 l -1.6,-0.8 c 0,0 0,0.8 0.8,0.8 0,0.8 0.8,0.8 0.8,0.8 v 0 c -0.8,0.8 -0.8,1.6 -1.6,1.6 -0.8,-0.8 -1.6,-1.6 -3.2,-3.2 -0.8,-0.8 -0.8,-0.8 -1.6,-1.6 v -0.8 c 0,-0.8 0,-2.4 0,-3.2 l 0.8,0.8 c 0,0 0,0 0.8,0 l 0.8,-0.8 v -0.8 c 0,0 0,0 0.8,0 l -1.6,-1.6 v 0.8 H 224 v 0 c 0,0 0,0 0,-0.8 0,0 0,0 0,-0.8 0,0 -0.8,0 -0.8,-0.8 v -0.8 0 c 0.8,0 0.8,-0.8 1.6,-0.8 v 0 c 0,-0.8 -0.8,-0.8 -0.8,-1.6 v 0 0 0 0 c -0.8,0 -0.8,0.8 -1.6,0.8 v 0 0.8 l 0.8,9.6 v 0 0 0 c 0,0 0,0 -0.8,0.8 l -0.8,-0.8 v 0 H 220 v 0 l -0.8,0.8 v 0.8 0 l 0.8,0.8 v 0 c -0.8,0.8 -0.8,1.6 -0.8,2.4 -0.8,0 -1.6,0 -2.4,0 0,0 0,0 -0.8,0 -0.8,0 -0.8,0 -1.6,0 v 0 l -1.6,-0.8 v 0.8 0 c -1.6,0 -2.4,0.8 -3.2,1.6 0,-0.8 0,-2.4 -0.8,-4.8 0.8,0 0.8,-1.6 0.8,-1.6 0,0 -0.8,0 -0.8,0.8 v 0 c -0.8,-0.8 -1.6,-2.4 -2.4,-3.2 -0.8,-0.8 -2.4,-1.6 -3.2,-2.4 0,0 0,0 0,-0.8 0,-0.8 -0.8,-1.6 -0.8,-1.6 0,0 0,0.8 0,1.6 0,0 0,0 0,0.8 -0.8,0 -1.6,-0.8 -2.4,-0.8 h -0.8 c 0,-0.8 0,-1.6 -0.8,-2.4 -0.8,-1.6 -1.6,-2.4 -3.2,-2.4 0,0 0.8,0 1.6,0 0,0 0,0 0,-0.8 v -1.6 c 0,0 -0.8,0 -0.8,-0.8 0,0 0,0 0,-0.8 0,-0.8 -2.4,0 -2.4,0 h 0.8 c 0,0 -0.8,0 -0.8,0.8 v 0 c 0,0 0,0 -0.8,0 v -0.8 c 0,0 0,0 -0.8,0 v -0.8 l 0.8,-0.8 v -0.8 l -0.8,-0.8 h -0.8 v 0 l -0.8,0.8 v 0.8 c 0,1.6 0.8,1.6 0.8,1.6 z m 32.8,17.6 z m 40,-29.6 z M 224,244 c 0,0 0,-0.8 0,0 z m 26.4,-42.4 z m -32,32 v 0 c -0.8,0 -1.6,0 -1.6,0 H 216 c -0.8,0 -0.8,-0.8 -1.6,-0.8 -0.8,-0.8 -0.8,-2.4 -0.8,-3.2 v 0 c 0,-1.6 0.8,-3.2 1.6,-4 1.6,-2.4 4.8,-4 7.2,-6.4 2.4,-2.4 4,-4.8 4.8,-7.2 0,0 0,0 0,-0.8 0,-1.6 -0.8,-3.2 -1.6,-4 0.8,0 1.6,-0.8 2.4,-0.8 0.8,0 1.6,-0.8 2.4,-1.6 l 0.8,-0.8 v -0.8 0 0 0 0 0 0 0 0 h 0.8 c 0.8,0.8 0.8,1.6 0.8,1.6 v 0 0 0 0 0 c 0,0 0,0.8 -0.8,1.6 0.8,0.8 0,1.6 0,1.6 0,0 0,0 0.8,0.8 v 0 0 0 0 c 0,0.8 -1.6,1.6 -1.6,3.2 -0.8,1.6 -2.4,3.2 -1.6,3.2 0.8,0 0.8,0 0.8,0 v 0 0 0 c 0,0 0,0 0,0.8 -0.8,0.8 -3.2,4.8 -3.2,6.4 0,2.4 0.8,1.6 0.8,4 0.8,2.4 0.8,5.6 0.8,5.6 v 0 c 0,0 0.8,0 1.6,-0.8 0,0.8 0.8,1.6 1.6,2.4 0,0.8 0,3.2 0.8,4.8 0.8,1.6 3.2,4 4,4.8 v 0 l -0.8,-0.8 c 0,0 0,-0.8 -0.8,-0.8 -0.8,0 -1.6,0 -1.6,0 v 0 0 c 0,0 0.8,1.6 0.8,2.4 0,0 1.6,0.8 2.4,1.6 -0.8,0 -2.4,0 -2.4,0.8 0,0 -0.8,0 -0.8,0.8 0,0 -0.8,0 -0.8,-0.8 0,0 0,0 0,-0.8 v 0 -0.8 0 -0.8 c 0,0 0,0 -0.8,0 v 0 c 0,-0.8 -0.8,-0.8 -0.8,-1.6 -0.8,-0.8 -0.8,-0.8 -1.6,-1.6 v 0 c 0,-2.4 -0.8,-4 -1.6,-5.6 -1.6,-1.6 -3.2,-1.6 -4.8,-1.6 -0.8,0 -3.2,0 -4.8,0 z m 12,8.8 z M 245.6,216 Z m -6.4,-7.2 z m 6.4,7.2 z m -5.6,-7.2 z m 0,0 z m -2.4,-4 z m 0.8,2.4 c 0,0 0,-0.8 -0.8,-0.8 0,0 0,0 0.8,0.8 z m -5.6,7.2 z m 9.6,-16 z m -17.6,12.8 z m 0.8,0.8 v 0 l 0.8,0.8 v 0 c 0,-0.8 -0.8,-0.8 -0.8,-0.8 z m 10.4,-4 c -0.8,0 -0.8,0.8 -1.6,0.8 0,0 0.8,0 1.6,-0.8 z m 10.4,-3.2 c 0,0 -0.8,0 0,0 -0.8,0 0,0 0,0 0,-0.8 0,0 0,0 z m -2.4,2.4 z m -17.6,5.6 z m 9.6,30.4 z m 11.2,-40 z m 15.2,28 z m 0,-0.8 z m -37.6,-29.6 v 0 0 c 0.8,0 1.6,-0.8 3.2,-0.8 -1.6,0 -1.6,0.8 -3.2,0.8 z m -6.4,21.6 v 0 c 0,0 0,-0.8 0,0 z m 43.2,37.6 z m -24.8,-69.6 v 0 c 0,-0.8 0,-0.8 0,0 z m -26.4,52.8 v -0.8 0 0.8 c 0.8,0 0,0 0,0 z m 72.8,-53.6 -0.8,-0.8 v 0 c 0.8,0 0.8,0 0.8,0.8 z M 224,188.8 Z m -6.4,11.2 z m -2.4,48 z m -18.4,-24.8 z m 38.4,40 c 0,0.8 0,0.8 0,0 0,0.8 0,0.8 0,0 0,0.8 0,0.8 0,0 z m -40,-17.6 c 0.8,0 0.8,0 0,0 0.8,0 0,0 0,0 z"
   style="fill:#006847" />
	<path
   inkscape:connector-curvature="0"
   id="path31"
   d="M 278.4,239.2 Z"
   style="fill:#006847" />
	<path
   inkscape:connector-curvature="0"
   id="path33"
   d="M 293.6,258.4 Z"
   style="fill:#006847" />
	<path
   inkscape:connector-curvature="0"
   id="path35"
   d="M 231.2,185.6 Z"
   style="fill:#006847" />
</g><g
     transform="translate(0,584)"
     id="g40">
	<path
   inkscape:connector-curvature="0"
   d="m 324.8,242.4 c 0,-0.8 0,-0.8 0,0 0,-0.8 0,-0.8 0,-0.8 0,0 -0.8,0.8 -0.8,1.6 0,0 0,0.8 0,1.6 0,0 0,-1.6 -0.8,-3.2 -0.8,-1.6 -1.6,-3.2 -1.6,-3.2 v 0 0 c 0,0 -1.6,1.6 -2.4,3.2 -0.8,1.6 -0.8,4 -0.8,5.6 0,-0.8 -0.8,-2.4 -1.6,-4 -1.6,-2.4 -2.4,-1.6 -2.4,-1.6 v 0 0 0 c 0,0 1.6,1.6 0.8,3.2 0,1.6 -0.8,4.8 0,6.4 0.8,1.6 1.6,2.4 2.4,3.2 0,0.8 0,2.4 0,3.2 v 0 0.8 l -2.4,-1.6 c 0,0 0,0 0,-0.8 0,-0.8 -0.8,-1.6 -1.6,-1.6 -0.8,0 -1.6,1.6 -1.6,2.4 0,0.8 0.8,1.6 1.6,1.6 h 0.8 l 2.4,2.4 c 0,0.8 -0.8,1.6 -0.8,1.6 0,0 0,0 -0.8,0 v 0 c -0.8,0.8 -2.4,3.2 -2.4,3.2 0,0 0,-0.8 0,-1.6 0,-0.8 0,-1.6 0,-1.6 v 0 0 c 0,0 -1.6,0.8 -4.8,2.4 -2.4,2.4 -4,4.8 -3.2,6.4 0,1.6 1.6,4 1.6,6.4 0,1.6 0,4 0,4 v 0 c 0,0 0,0.8 -0.8,0.8 l -3.2,-3.2 0.8,-0.8 c 0,-0.8 -0.8,-1.6 -1.6,-1.6 -0.8,0 -1.6,0.8 -1.6,1.6 0,0.8 0.8,1.6 1.6,1.6 v 0 l 2.4,4 c -0.8,0.8 -0.8,0.8 -1.6,0.8 0,0 -0.8,0 -3.2,0.8 -1.6,0.8 -3.2,2.4 -3.2,2.4 0,0 0.8,-0.8 0.8,-2.4 0,-2.4 -0.8,-3.2 -0.8,-3.2 v 0 0 c 0,0 0,0.8 0,1.6 v 0.8 c 0,0 0,0.8 -0.8,0.8 -0.8,1.6 -6.4,4.8 -7.2,7.2 -0.8,2.4 0,2.4 -0.8,3.2 -0.8,1.6 -1.6,2.4 -1.6,3.2 0,0 0,0 -0.8,0.8 0,0 -0.8,0 -0.8,0.8 l -0.8,-3.2 0.8,-0.8 c 0,-0.8 -0.8,-1.6 -1.6,-1.6 -0.8,0 -1.6,0.8 -1.6,1.6 0,0.8 0.8,1.6 1.6,1.6 v 0 4 l -0.8,0.8 c 0,0.8 -0.8,0.8 -0.8,1.6 v 0 0 0 c -0.8,0 -1.6,-0.8 -2.4,-0.8 -0.8,0 -1.6,0 -2.4,0 0,0 0.8,-0.8 1.6,-0.8 0.8,-0.8 0.8,-0.8 0.8,-0.8 v 0 c 0,0 -2.4,-0.8 -4,-0.8 -1.6,0 -4,0 -5.6,1.6 -1.6,0.8 -2.4,3.2 -4.8,4 -1.6,0.8 -4,1.6 -4,1.6 0,0 0,0 -0.8,0 -1.6,0 -2.4,-0.8 -4,-0.8 -1.6,0 -3.2,0 -3.2,0 0,-0.8 0,-0.8 0,-0.8 0,0 0,0 0,-0.8 h -1.6 v 0 H 248 v 0 0 h -1.6 c 0,0 -0.8,0 -0.8,0.8 0,0 0,0.8 0,1.6 -0.8,0 -1.6,-0.8 -3.2,-0.8 -3.2,0 -4.8,0.8 -5.6,0.8 H 236 c -1.6,-0.8 -1.6,-2.4 -2.4,-2.4 -0.8,0 0,2.4 -0.8,2.4 -0.8,0 -2.4,-4 -4.8,-4.8 -1.6,0 -2.4,0 -2.4,0.8 0,0.8 2.4,3.2 1.6,3.2 -0.8,0 -3.2,-4 -5.6,-4 -1.6,0 -2.4,0.8 -1.6,0.8 0,0.8 2.4,0.8 1.6,2.4 -0.8,1.6 -2.4,-2.4 -4,-1.6 -0.8,0 -1.6,0 -1.6,0 v 0 l -0.8,-4.8 c 0,0 0.8,0 0.8,-0.8 l 0.8,-0.8 c 0,0 0,0 0,-0.8 v 0 c 0,0 0,0 -0.8,0 0,0 0,0 -0.8,0 v 0 -0.8 l -0.8,-0.8 c 0,0 -0.8,0 -0.8,0.8 v 0.8 0.8 h -0.8 c 0,0 0,0 0,0.8 v 0 c 0,0.8 0,0.8 0.8,0.8 0,0 0.8,0 1.6,0 v 0 3.2 c -0.8,-0.8 -1.6,-1.6 -1.6,-1.6 v 0 c 0,0 -1.6,-0.8 -2.4,-2.4 -0.8,-1.6 0,-4 -0.8,-4 -0.8,0 -0.8,2.4 -1.6,1.6 -0.8,-0.8 0,-4 -0.8,-5.6 -0.8,-1.6 -2.4,-3.2 -3.2,-2.4 -0.8,0.8 0,4 -1.6,3.2 -0.8,-0.8 0,-4 0,-5.6 0,-1.6 -0.8,-2.4 -1.6,-2.4 -0.8,0 0,3.2 -0.8,3.2 -0.8,0 -0.8,-1.6 -1.6,-2.4 -0.8,0 -0.8,0 -0.8,0 0,0 0,-1.6 -0.8,-1.6 0,0 0,0 0,0.8 0,0.8 0,1.6 0,2.4 0,0 -0.8,-0.8 -1.6,-0.8 v -4 h 0.8 l 0.8,-0.8 v 0 0 0 0 c 0,0 0,-0.8 -0.8,-0.8 0,0 0,0 -0.8,0 V 280 c 0,-0.8 0,-0.8 0,-0.8 l -0.8,-0.8 c 0,0 -0.8,0 -0.8,0.8 v 0.8 0.8 0 h -0.8 c 0,0 0,0 -0.8,0.8 v 0 c 0,0.8 0,0.8 0.8,0.8 h 0.8 v 3.2 c -0.8,-0.8 -1.6,-1.6 -2.4,-2.4 0,0 -0.8,-1.6 -0.8,-3.2 0,-2.4 1.6,-5.6 1.6,-6.4 -0.8,-0.8 -1.6,2.4 -2.4,1.6 -0.8,-0.8 0.8,-4 0,-5.6 -0.8,-1.6 -0.8,-2.4 -1.6,-2.4 -1.6,0 -1.6,4 -2.4,4 -0.8,-0.8 0,-2.4 0,-4 -3.2,-3.2 -3.2,-3.2 -4,-3.2 -0.8,0 -0.8,2.4 -1.6,2.4 0,0 -0.8,-0.8 -1.6,-1.6 0,-0.8 0,-1.6 0,-3.2 l 1.6,-4 h 0.8 c 0.8,0 0.8,0 0.8,0 l 0.8,-0.8 V 256 l -0.8,-0.8 v 0 l 0.8,-0.8 v 0 0 -0.8 -0.8 0 c -0.8,0 -0.8,0 -1.6,0.8 v 0.8 0 0 0 c 0,0 0,0 -0.8,0 0,0 -0.8,0 -0.8,0.8 v 0.8 c 0,0.8 0,0.8 0.8,1.6 l -1.6,2.4 c -0.8,-1.6 -0.8,-2.4 -0.8,-4 0,-1.6 0.8,-1.6 0.8,-2.4 0,-0.8 -0.8,0.8 -0.8,-0.8 0,-0.8 4,-3.2 3.2,-4 -0.8,-0.8 -4,1.6 -3.2,0 0.8,-1.6 4,-1.6 4,-4.8 0,-1.6 -3.2,0.8 -3.2,0 0,-0.8 1.6,-2.4 1.6,-4 0,-0.8 0.8,-1.6 0,-1.6 0,0 0,0 -0.8,0 -1.6,0.8 -0.8,1.6 -2.4,1.6 0,0 -0.8,-1.6 -0.8,-0.8 -0.8,0 -1.6,1.6 -1.6,2.4 0,0.8 0,2.4 0,3.2 -0.8,0.8 -0.8,-1.6 -2.4,-1.6 -0.8,0 -1.6,1.6 -1.6,2.4 0,0.8 2.4,3.2 1.6,4 -0.8,0.8 -2.4,-2.4 -4,-0.8 -0.8,1.6 3.2,4 4,4 0.8,0 0,0.8 0.8,1.6 0.8,0.8 1.6,1.6 2.4,1.6 0.8,0.8 1.6,2.4 1.6,4 l -3.2,-1.6 v -0.8 -0.8 l -0.8,-0.8 h -0.8 c 0,0 0,0 -0.8,0.8 0,0 0,0 -0.8,-0.8 v 0 0 h -0.8 c 0,0 -0.8,0 -0.8,0.8 v 0 c 0,0.8 0,0.8 0.8,1.6 0,0 0,0 0.8,0 v 0 0 0 c 0,0 0,0 0,0.8 0,0 0,0.8 0.8,0.8 h 0.8 c 0.8,0 0.8,0 1.6,-0.8 l 4,3.2 c 0,1.6 0,2.4 0,2.4 v 0 0 0.8 c -0.8,0 -1.6,-0.8 -1.6,0 0,0.8 1.6,1.6 0.8,2.4 0,0 -3.2,-0.8 -3.2,0 0,0.8 0,2.4 1.6,2.4 1.6,0.8 5.6,1.6 4.8,1.6 -0.8,0.8 -4.8,-2.4 -4.8,0 0,2.4 1.6,3.2 2.4,3.2 0.8,0 4.8,0 4.8,0.8 0,0.8 -3.2,0 -3.2,0.8 0,1.6 2.4,1.6 2.4,1.6 0.8,0 2.4,0 3.2,0.8 0.8,0.8 3.2,3.2 4,4 v 0 0 h -2.4 c 0,-0.8 0,-0.8 -0.8,-1.6 l -0.8,-0.8 v 0 0 c 0,0 0,0 -0.8,0 0,0 0,0 0,0.8 v 0 c 0,0 0,0 0,0.8 H 184 c -0.8,0 -0.8,0 -0.8,0 v 0 0 0 c 0,0 0.8,0.8 1.6,0.8 v 0 0 0 0.8 c 0,0 0,0 0.8,0.8 v 0 c 0.8,0 1.6,-0.8 1.6,-1.6 h 4 c 1.6,0.8 2.4,1.6 2.4,1.6 v 0 0 0 0 c -0.8,0 -2.4,0 -2.4,0 0,0.8 6.4,3.2 4,4 -1.6,0.8 -4,-1.6 -4,0 -0.8,1.6 1.6,3.2 2.4,3.2 0.8,0.8 6.4,0 5.6,1.6 -0.8,1.6 -4.8,-0.8 -5.6,0.8 0,1.6 2.4,4 4,4 1.6,0 3.2,-2.4 4,-0.8 0.8,1.6 -0.8,1.6 0,2.4 1.6,0 2.4,-1.6 4,-0.8 1.6,0 4,1.6 4.8,2.4 h -3.2 c 0,0 0,-0.8 -0.8,-0.8 l -0.8,-0.8 h -0.8 v 0.8 c 0,0 0,0 0,0.8 v 0 c -0.8,0 -0.8,0 -0.8,0 l -0.8,0.8 c 0,0 0,0.8 0.8,0.8 h 0.8 0.8 v 0 0.8 h 0.8 v 0 c 0,0 0.8,0 0.8,-0.8 v -0.8 -0.8 h 4 c 0.8,0.8 1.6,1.6 1.6,1.6 0,0 -1.6,0 -2.4,0.8 -0.8,0 -1.6,1.6 -1.6,1.6 0,0 0,0 0,0.8 v 0 0 0 0 h 1.6 l 0.8,-0.8 c 0,0 0,0.8 0.8,0.8 0.8,0 2.4,-1.6 4,-0.8 1.6,0.8 -2.4,1.6 -1.6,3.2 0.8,1.6 3.2,0.8 4,0 0.8,0 2.4,-3.2 4,-1.6 0.8,1.6 -2.4,2.4 -1.6,4 0.8,1.6 2.4,0.8 4,0.8 0.8,-0.8 3.2,-4 4,-3.2 0.8,1.6 -1.6,2.4 -1.6,4 0.8,0.8 2.4,0 3.2,-0.8 0.8,-0.8 1.6,-2.4 3.2,-3.2 1.6,-0.8 1.6,-0.8 1.6,-0.8 v 0 c 0,0 0.8,-0.8 1.6,-0.8 0.8,-0.8 2.4,-1.6 4,-1.6 0.8,0 1.6,0 1.6,0.8 -1.6,0.8 -4,1.6 -5.6,2.4 -1.6,0.8 -2.4,1.6 -3.2,2.4 v 0 c 0,0 0.8,0.8 1.6,0.8 0.8,0 1.6,-0.8 1.6,-0.8 0,0 1.6,-0.8 3.2,-2.4 0.8,-0.8 3.2,-1.6 4,-1.6 0,0.8 0,0.8 0,1.6 0,0.8 -1.6,0.8 -4,3.2 -2.4,2.4 -3.2,4.8 -3.2,4.8 0,0 0.8,-0.8 1.6,-0.8 0.8,0 1.6,-0.8 1.6,-0.8 v 0 c 0,0 0,0 0.8,0 0.8,0 0.8,0.8 1.6,0.8 0,0 0,0 0.8,0.8 0,0.8 0.8,0.8 0.8,0.8 0,0 0.8,-1.6 2.4,-2.4 0,0 0.8,-0.8 1.6,-1.6 0,0.8 0.8,0.8 1.6,1.6 0.8,0.8 2.4,0.8 3.2,1.6 0.8,0.8 1.6,0.8 1.6,0.8 l 0.8,-0.8 0.8,-0.8 v 0 c 0,0 0,0 0.8,-0.8 0.8,0 0.8,0 0.8,0 v 0 c 0,0 0,0 1.6,0 1.6,0 1.6,0.8 1.6,0.8 0,0 -1.6,-2.4 -2.4,-3.2 -0.8,-0.8 -3.2,-1.6 -4.8,-2.4 -0.8,-0.8 -1.6,-1.6 -1.6,-1.6 v 0 -0.8 c 0.8,0 2.4,0.8 4,1.6 1.6,0.8 2.4,1.6 2.4,2.4 0,0 0.8,0.8 1.6,0.8 0.8,0 1.6,-0.8 0.8,-0.8 v 0 0 0 0 c 0,0 -0.8,-1.6 -4,-3.2 -2.4,-0.8 -4,-1.6 -4.8,-1.6 0,0 0,0 0,-0.8 0.8,0 4.8,0 6.4,0.8 1.6,0.8 3.2,1.6 4.8,2.4 1.6,1.6 4.8,4 6.4,4 3.2,0 9.6,-4 11.2,-4 1.6,-0.8 3.2,-0.8 3.2,-0.8 v 0 0 0 0 0 0 0 c 0,0 0,0 -0.8,0 0,0 0,0 0.8,0 0,0 -0.8,-0.8 -2.4,-0.8 -0.8,0 -0.8,-0.8 -0.8,-0.8 -0.8,0 -2.4,0 -2.4,0 0,0 1.6,-1.6 2.4,-1.6 0.8,-0.8 2.4,-1.6 2.4,-1.6 v 0 c 0,0 0.8,-0.8 1.6,-1.6 l 4,2.4 v 0 0.8 0 0 0 l 0.8,0.8 h 0.8 c 0.8,0 0.8,-0.8 0.8,-1.6 V 304 l -0.8,-0.8 h -0.8 v 0 l -2.4,-2.4 c 0.8,-0.8 1.6,-0.8 2.4,-0.8 1.6,0 9.6,0 12.8,-1.6 4,-2.4 3.2,-6.4 3.2,-7.2 0,-0.8 0.8,-1.6 0.8,-1.6 0,0 -0.8,0 -1.6,0 -0.8,0 -1.6,0.8 -1.6,0.8 0,0 0,-1.6 0.8,-2.4 0,-0.8 0,-0.8 0,-1.6 v 0 0 c 0.8,0 0.8,0 1.6,-0.8 l 3.2,0.8 c 0,0.8 0.8,1.6 1.6,1.6 0.8,0 1.6,-0.8 1.6,-1.6 0,-0.8 -0.8,-1.6 -1.6,-1.6 -0.8,0 -0.8,0 -1.6,0.8 l -2.4,-0.8 c 0,-0.8 0.8,-0.8 1.6,-1.6 0,0 0.8,-0.8 1.6,-0.8 0.8,0 2.4,0 4.8,-1.6 3.2,-1.6 4.8,-6.4 5.6,-8.8 0.8,-2.4 3.2,-4 3.2,-4 v 0 c 0,0 -1.6,-0.8 -4.8,2.4 0,0 0,-2.4 0,-4 0,-0.8 0,-1.6 0,-2.4 v -0.8 0 -0.8 l 4.8,-1.6 0.8,0.8 c 0.8,0 1.6,-0.8 1.6,-1.6 0,-0.8 -0.8,-1.6 -1.6,-1.6 -0.8,0 -1.6,0.8 -1.6,1.6 h -4 v -0.8 c 0,-0.8 1.6,-1.6 2.4,-3.2 1.6,-1.6 5.6,-3.2 5.6,-7.2 v 0 c 0.8,-4.8 -0.8,-5.6 -1.6,-6.4 z m -112,52.8 z m 39.2,13.6 c 0,0 -0.8,0 0,0 -0.8,0 -0.8,0 0,0 z m 31.2,-4.8 z m 21.6,-18.4 z"
   style="fill:#006847"
   id="SVGCleanerId_0_1_" />
</g><path
     inkscape:connector-curvature="0"
     id="path42"
     d="M 178.4,848 Z"
     style="fill:#006847" /><g
     transform="translate(0,584)"
     id="g50">
	<path
   inkscape:connector-curvature="0"
   id="path44"
   d="m 289.6,279.2 0.8,-0.8 c 0,0 0,0 0.8,-0.8 h 0.8 c 0.8,0 1.6,-0.8 1.6,-0.8 h -0.8 -0.8 v 0 -0.8 c 0,-0.8 0,-1.6 0,-2.4 0,0 0,0 0,-0.8 0.8,0 0.8,-0.8 1.6,-0.8 0.8,-0.8 1.6,-1.6 1.6,-2.4 0,0 0.8,0 1.6,0 v -0.8 0 -1.6 0.8 c 0,0 0,0 -0.8,0 v 0 c 0,0 0,0 0,-0.8 0,0 0,0 0.8,0 v 0 l 1.6,-2.4 h 0.8 c 0.8,0 0.8,0 1.6,-0.8 v -0.8 c 0,-0.8 0,-0.8 -0.8,-1.6 h -0.8 c -0.8,0 -0.8,0 -1.6,0.8 v 0.8 c 0,0 0,0 0,0.8 l -2.4,1.6 v 0 0 0 h -0.8 v -0.8 0 l -1.6,-0.8 c 0,0 0,0 0,0.8 H 292 l -0.8,0.8 v 0.8 h 0.8 c -0.8,0 -1.6,0.8 -2.4,1.6 -0.8,0.8 -0.8,0.8 -1.6,1.6 -0.8,0 -0.8,-0.8 -1.6,-0.8 -0.8,0 -0.8,-0.8 -1.6,-0.8 H 284 v 0 0 0 l 0.8,-1.6 c 0,0 -0.8,0 -1.6,0.8 v 0.8 c -0.8,0 -0.8,0.8 -1.6,0.8 -0.8,0.8 -1.6,0.8 -2.4,1.6 v 0 c 0,-0.8 0,-1.6 0,-1.6 l -0.8,0.8 c 0,0 0,0.8 0,1.6 v 0 l -0.8,0.8 8.8,7.2 v 0 c 1.6,0.8 2.4,0 3.2,0 z"
   style="fill:#03442d" />
	<path
   inkscape:connector-curvature="0"
   id="path46"
   d="m 272.8,267.2 -0.8,-0.8 h -0.8 c -0.8,0 -0.8,0 -1.6,0 0,0 0,-0.8 -0.8,-0.8 H 268 l 7.2,6.4 c 0,-0.8 0,-0.8 -0.8,-1.6 v 0 0 0 0 c -0.8,-0.8 -0.8,-0.8 -0.8,-0.8 v 0 0 0 0 c 0,-1.6 0,-2.4 -0.8,-2.4 z"
   style="fill:#03442d" />
	<path
   inkscape:connector-curvature="0"
   id="path48"
   d="m 304.8,217.6 -1.6,-3.2 c -1.6,-3.2 -3.2,-8 -7.2,-13.6 -4.8,-7.2 -12,-12 -12.8,-12 0,0 0.8,0 0.8,0.8 l -0.8,-0.8 v 0 0 0 0 c 0,0 0,-0.8 0.8,-0.8 0,0 1.6,-1.6 0.8,-1.6 -0.8,0 -2.4,0 -3.2,0 -0.8,0 -1.6,0 -4.8,-2.4 0,0 -8.8,-6.4 -23.2,-7.2 -4.8,0 -6.4,1.6 -6.4,2.4 v 0 c 0,0 0,0 0,0.8 0,0 -0.8,0 -1.6,0 -0.8,0 -2.4,0 -3.2,0.8 -1.6,0 -2.4,0.8 -2.4,3.2 v 0 c 0,0.8 0,1.6 0.8,2.4 0,0.8 0.8,0.8 1.6,0.8 0.8,0 1.6,0 3.2,0.8 1.6,0 2.4,0.8 4,2.4 1.6,0.8 1.6,2.4 2.4,3.2 0,0.8 0,1.6 0,2.4 0,0.8 0,1.6 0,1.6 0,0 0,0 0,0.8 -0.8,-0.8 -0.8,-1.6 -1.6,-2.4 -0.8,-1.6 -2.4,-3.2 -3.2,-3.2 0,-0.8 0,-1.6 0,-1.6 0,0 0,0.8 -1.6,0.8 -0.8,0 -1.6,-0.8 -4,-1.6 -1.6,-0.8 -2.4,-0.8 -3.2,-0.8 v 0 c 0,0 0,0 -0.8,0 h -0.8 c 0,-2.4 -1.6,-4 -1.6,-4 v 0 0 c 0,0 0,0.8 -0.8,1.6 0,0.8 -1.6,1.6 -1.6,2.4 0,-1.6 -0.8,-3.2 -0.8,-3.2 v 0 c 0,-1.6 -0.8,-1.6 -0.8,-1.6 v 0 0 c 0,0 0,0 0,0.8 0,2.4 -0.8,4.8 -0.8,5.6 -0.8,0.8 -1.6,0.8 -1.6,0.8 0.8,-0.8 0.8,-0.8 0.8,-2.4 0,-2.4 -1.6,-2.4 -1.6,-2.4 0,0 0,0.8 0,3.2 0,1.6 -1.6,3.2 -1.6,3.2 0,0 0,-0.8 0,-1.6 0,-2.4 -0.8,-2.4 -0.8,-2.4 v 0 c 0,0 0,0.8 -0.8,2.4 -0.8,2.4 -1.6,2.4 -2.4,4 -2.4,2.4 -3.2,2.4 -3.2,3.2 v 0.8 0 0 0 0 0 0 0 c 0,0 0,0 0,0.8 0,0 0,0 0,0.8 v 0 0 0 0 c 0,0 -0.8,0 -1.6,0.8 v 0 c -0.8,0 -1.6,0.8 -4,0.8 -0.8,0 -1.6,0 -1.6,-0.8 0,-0.8 0,-0.8 0,-1.6 0.8,0 0.8,0 1.6,-0.8 0,0 0.8,-0.8 1.6,-0.8 1.6,-0.8 2.4,-2.4 2.4,-2.4 v 0 c 0,0 0,0 -0.8,0 0,0 -0.8,0.8 -1.6,0.8 -1.6,0.8 -3.2,0.8 -3.2,0.8 0,0 0,0 0,-0.8 v 0 c 0,0 0.8,-0.8 0.8,-1.6 l 0.8,-0.8 c 0,-0.8 0,-0.8 0.8,-1.6 v -0.8 c 0,0 0,-0.8 0.8,-0.8 0,0 0.8,0.8 0.8,1.6 0,0.8 0,1.6 0,1.6 1.6,0 0.8,-4 0.8,-4.8 v 0 -0.8 l -0.8,-0.8 -1.6,0.8 c 0,0 -0.8,0 -1.6,0 -0.8,0 -5.6,4 -5.6,5.6 0,1.6 0.8,2.4 0.8,3.2 v 0 0 c 0,1.6 0,6.4 2.4,7.2 2.4,0.8 6.4,0 6.4,0 v 0 c 0,0.8 0.8,0.8 1.6,1.6 0.8,0.8 2.4,1.6 3.2,1.6 0.8,0 0.8,0 1.6,-0.8 v 0 0 0.8 0 0 0 c -1.6,3.2 -4.8,4.8 -7.2,7.2 l 4.8,4 c 1.6,-1.6 3.2,-2.4 4.8,-4 2.4,-2.4 4,-4.8 4.8,-7.2 0,0 0,0 0,-0.8 0,-1.6 -0.8,-3.2 -1.6,-4 0.8,0 1.6,-0.8 2.4,-0.8 0.8,0 1.6,-0.8 2.4,-1.6 l 0.8,-0.8 v -0.8 0 0 0 0 0 h 0.8 c 0.8,0.8 0.8,1.6 0.8,1.6 v 0 0 0 c 0,0 0,0.8 -0.8,1.6 -2.4,4 -3.2,4.8 -3.2,4.8 0,0 0,0 0.8,0.8 v 0 0 0 0 c 0,0.8 -1.6,1.6 -1.6,3.2 -0.8,1.6 -2.4,3.2 -1.6,3.2 0.8,0 0.8,0 0.8,0 v 0 c 0,0 0,0 0,0.8 -0.8,0.8 -3.2,4.8 -3.2,6.4 0,2.4 0.8,1.6 0.8,4 0.8,2.4 0.8,5.6 0.8,5.6 v 0 0 c 0,0 0.8,0 1.6,-0.8 0,0.8 0.8,1.6 1.6,2.4 0,0 0,0.8 0,1.6 l 32,27.2 c 0,-0.8 0,-1.6 0,-2.4 0.8,0.8 1.6,1.6 1.6,0.8 0.8,0 0,-1.6 0,-2.4 0,0 0,-0.8 0,-1.6 0,0 0,0 0,-0.8 l 5.6,6.4 c 0,0 0.8,0.8 2.4,0.8 0.8,0 1.6,-0.8 1.6,-0.8 0,0 0.8,1.6 3.2,1.6 1.6,0 2.4,-0.8 3.2,-1.6 0.8,0 0.8,0.8 0.8,0.8 2.4,0.8 5.6,-1.6 6.4,-1.6 h 0.8 c 4,0.8 6.4,-2.4 6.4,-2.4 l -1.6,-1.6 c 0,0 -4.8,-4 -12,-8.8 -5.6,-4 -11.2,-8.8 -13.6,-10.4 0,-1.6 0,-4 -0.8,-5.6 -0.8,-2.4 -1.6,-3.2 -1.6,-4 0.8,-0.8 0.8,-1.6 0.8,-2.4 0,0 0,0 0.8,0 0.8,0.8 1.6,2.4 3.2,3.2 1.6,0.8 1.6,0 2.4,0.8 0.8,0.8 4.8,6.4 4.8,6.4 0.8,0.8 0.8,1.6 0.8,1.6 l 0.8,0.8 c 0.8,0 0.8,0 0.8,-0.8 0,0 -1.6,-1.6 -2.4,-3.2 -0.8,-1.6 -1.6,-4.8 -2.4,-6.4 v 0 c 0,0 0.8,0 1.6,0 0.8,0 4,3.2 4,4 0,0.8 0,1.6 1.6,4 1.6,3.2 2.4,4 2.4,4 0,0.8 0.8,1.6 1.6,1.6 0.8,0 0,-0.8 -0.8,-1.6 0,-0.8 -0.8,-2.4 -1.6,-4.8 -0.8,-2.4 -1.6,-5.6 -1.6,-5.6 0,0 0,0 -0.8,-0.8 0,0 0,0 0.8,0 l 0.8,0.8 v 0 c 0.8,0.8 2.4,3.2 2.4,4 0.8,1.6 0.8,4 1.6,6.4 0.8,2.4 1.6,4.8 2.4,4 0,-0.8 0,-4.8 -1.6,-8 -0.8,-3.2 -1.6,-7.2 -1.6,-8 v 0 c 0,0 0.8,0.8 1.6,2.4 0.8,1.6 0,3.2 1.6,8 1.6,4.8 2.4,5.6 3.2,7.2 0.8,1.6 -0.8,6.4 0.8,7.2 0,0 0,-8 0,-10.4 0,-2.4 0,-2.4 -0.8,-8 -0.8,-5.6 -0.8,-6.4 -0.8,-6.4 v 0 c 0,0 0.8,0.8 1.6,3.2 0.8,4 0.8,9.6 1.6,11.2 0.8,1.6 0.8,0.8 1.6,3.2 0.8,1.6 -0.8,10.4 0.8,10.4 1.6,0 0.8,-11.2 0.8,-14.4 0,-3.2 -0.8,-12.8 -0.8,-13.6 v 0 c 0.8,0.8 1.6,2.4 1.6,3.2 v 0 0 c 0,2.4 0,11.2 0.8,13.6 0,3.2 0.8,3.2 0.8,6.4 0,2.4 -0.8,5.6 -0.8,6.4 0,0.8 0,2.4 0.8,2.4 0.8,0 0,-1.6 0.8,-2.4 0,-0.8 0.8,-0.8 0.8,-1.6 0.8,-1.6 0.8,-11.2 1.6,-16 0.8,-4.8 1.6,-4 1.6,-9.6 0,-4.8 -1.6,-8.8 -1.6,-9.6 0.8,0 0.8,0 1.6,0 0.8,0 0.8,-0.8 0.8,-0.8 0,-1.6 -1.6,-1.6 -2.4,-3.2 z m -86.4,4.8 c 0,0 0,-0.8 0,0 z m 8,-9.6 v 0 l -0.8,-0.8 c 0,0 0.8,0 0.8,0.8 z m -1.6,-12 v 0 0 c 0.8,0 1.6,-0.8 3.2,-0.8 -1.6,0 -1.6,0.8 -3.2,0.8 z m 8,13.6 z m 6.4,-5.6 z m 0.8,0 z m 0,0 z m 5.6,7.2 z m 0.8,-11.2 c 0,0 -0.8,0 0,0 -0.8,0 0,0 0,0 0,-0.8 0,0 0,0 z m 16,26.4 z m 0,-0.8 z m 1.6,-0.8 z"
   style="fill:#03442d" />
</g><g
     transform="translate(0,584)"
     id="g58">
	<path
   inkscape:connector-curvature="0"
   id="path52"
   d="M 278.4,239.2 Z"
   style="fill:#006847" />
	<path
   inkscape:connector-curvature="0"
   id="path54"
   d="M 293.6,258.4 Z"
   style="fill:#006847" />
	<path
   inkscape:connector-curvature="0"
   id="path56"
   d="M 231.2,185.6 Z"
   style="fill:#006847" />
</g></g>
<g
   id="g60"
   transform="translate(0,584)">
</g>
<g
   id="g62"
   transform="translate(0,584)">
</g>
<g
   id="g64"
   transform="translate(0,584)">
</g>
<g
   id="g66"
   transform="translate(0,584)">
</g>
<g
   id="g68"
   transform="translate(0,584)">
</g>
<g
   id="g70"
   transform="translate(0,584)">
</g>
<g
   id="g72"
   transform="translate(0,584)">
</g>
<g
   id="g74"
   transform="translate(0,584)">
</g>
<g
   id="g76"
   transform="translate(0,584)">
</g>
<g
   id="g78"
   transform="translate(0,584)">
</g>
<g
   id="g80"
   transform="translate(0,584)">
</g>
<g
   id="g82"
   transform="translate(0,584)">
</g>
<g
   id="g84"
   transform="translate(0,584)">
</g>
<g
   id="g86"
   transform="translate(0,584)">
</g>
<g
   id="g88"
   transform="translate(0,584)">
</g>
</svg>