<?xml version="1.0" encoding="UTF-8" standalone="no"?>
<!-- Generator: Adobe Illustrator 19.0.0, SVG Export Plug-In . SVG Version: 6.00 Build 0)  -->

<svg
   xmlns:dc="http://purl.org/dc/elements/1.1/"
   xmlns:cc="http://creativecommons.org/ns#"
   xmlns:rdf="http://www.w3.org/1999/02/22-rdf-syntax-ns#"
   xmlns:svg="http://www.w3.org/2000/svg"
   xmlns="http://www.w3.org/2000/svg"
   xmlns:sodipodi="http://sodipodi.sourceforge.net/DTD/sodipodi-0.dtd"
   xmlns:inkscape="http://www.inkscape.org/namespaces/inkscape"
   version="1.1"
   id="Capa_1"
   x="0px"
   y="0px"
   viewBox="0 0 1920 1080"
   xml:space="preserve"
   sodipodi:docname="FLAG_NEW_ZEALAND.svg"
   width="1920"
   height="1080"
   inkscape:version="0.92.3 (2405546, 2018-03-11)"><metadata
   id="metadata57"><rdf:RDF><cc:Work
       rdf:about=""><dc:format>image/svg+xml</dc:format><dc:type
         rdf:resource="http://purl.org/dc/dcmitype/StillImage" /><dc:title></dc:title></cc:Work></rdf:RDF></metadata><defs
   id="defs55" /><sodipodi:namedview
   pagecolor="#ffffff"
   bordercolor="#666666"
   borderopacity="1"
   objecttolerance="10"
   gridtolerance="10"
   guidetolerance="10"
   inkscape:pageopacity="0"
   inkscape:pageshadow="2"
   inkscape:window-width="1920"
   inkscape:window-height="1017"
   id="namedview53"
   showgrid="false"
   inkscape:zoom="0.33644597"
   inkscape:cx="-203.70216"
   inkscape:cy="385.78748"
   inkscape:window-x="1912"
   inkscape:window-y="-8"
   inkscape:window-maximized="1"
   inkscape:current-layer="Capa_1" />








<g
   id="g22"
   transform="translate(0,584)">
</g>
<g
   id="g24"
   transform="translate(0,584)">
</g>
<g
   id="g26"
   transform="translate(0,584)">
</g>
<g
   id="g28"
   transform="translate(0,584)">
</g>
<g
   id="g30"
   transform="translate(0,584)">
</g>
<g
   id="g32"
   transform="translate(0,584)">
</g>
<g
   id="g34"
   transform="translate(0,584)">
</g>
<g
   id="g36"
   transform="translate(0,584)">
</g>
<g
   id="g38"
   transform="translate(0,584)">
</g>
<g
   id="g40"
   transform="translate(0,584)">
</g>
<g
   id="g42"
   transform="translate(0,584)">
</g>
<g
   id="g44"
   transform="translate(0,584)">
</g>
<g
   id="g46"
   transform="translate(0,584)">
</g>
<g
   id="g48"
   transform="translate(0,584)">
</g>
<g
   id="g50"
   transform="translate(0,584)">
</g>
<g
   id="g1044"
   transform="matrix(1.2096774,0,0,1.2096774,711.91339,-877.91079)"><path
     id="path2-3"
     d="m 453.08494,1293.754 c 0,27.2 -21.6,48.8 -48,48.8 H 5.0849353 c -26.4000003,0 -48.0000003,-21.6 -48.0000003,-48.8 v -243.2 c 0,-27.2 21.6,-48.8 48.0000003,-48.8 H 405.08494 c 26.4,0 48,21.6 48,48.8 z"
     style="fill:#273375"
     inkscape:connector-curvature="0" /><path
     d="M 5.0849353,1001.754 H 405.08494 c 26.4,0 48,21.6 48,48.8 v 243.2 c 0,27.2 -21.6,48.8 -48,48.8 z"
     style="fill:#192760"
     id="SVGCleanerId_0"
     inkscape:connector-curvature="0" /><g
     id="g6"
     transform="translate(-42.915065,924.14004)"><path
       d="m 48,77.614 h 400 c 26.4,0 48,21.6 48,48.8 v 243.2 c 0,27.2 -21.6,48.8 -48,48.8 z"
       style="fill:#192760"
       id="SVGCleanerId_0_1_"
       inkscape:connector-curvature="0" /></g><g
     id="g12"
     transform="translate(-42.915065,924.14004)"><path
       id="path8-6"
       d="m 496,369.614 c 0,27.2 -21.6,48.8 -48,48.8 H 48 c -26.4,0 -48,-21.6 -48,-48.8 z"
       style="fill:#101f4f"
       inkscape:connector-curvature="0" /><path
       id="path10"
       d="m 48,77.614 h 400 c 26.4,0 48,21.6 48,48.8 v 88.8 z"
       style="fill:#101f4f"
       inkscape:connector-curvature="0" /></g><polygon
     id="polygon28"
     points="148.8,108.574 171.628,115.586 209.6,77.614 148.8,77.614 "
     style="fill:#101f4f"
     transform="translate(-42.915065,924.14004)" /><polygon
     id="polygon30"
     points="114.4,77.614 54.4,77.614 114.4,137.614 "
     style="fill:#192760"
     transform="translate(-42.915065,924.14004)" /><polygon
     id="polygon32"
     points="114.4,99.469 114.4,77.614 54.4,77.614 60.144,83.358 "
     style="fill:#101f4f"
     transform="translate(-42.915065,924.14004)" /><path
     id="path34"
     d="m 218.68494,1082.696 v -8.892 h -98.45 l 72.05,-72.05 h -25.6 l -60.8,60.8 v -60.8 H 71.484935 v 60 l -60,-60 H 5.0849353 c -5.59999997,0 -11.3,1 -16.9000003,3.1 l 69.635,68.95 h -100.568 v 1.55 6.3 1.042 17.358 8.892 0.01 h 102.133 l -74.3,73.6 h 25.6 l 60.8,-60.8 v 60.8 h 34.400005 v -60 l 60,60 h 27.6 l -74.9,-73.6 h 100 v -0.01 h 0.1 v -8.892 h -0.1 v -17.358 z"
     style="fill:#ffffff"
     inkscape:connector-curvature="0" /><polygon
     id="polygon36"
     points="114.4,77.614 114.4,137.614 161.5,184.814 261.5,184.814 261.5,184.806 261.6,184.806 261.6,175.914 261.5,175.914 261.5,158.556 261.6,158.556 261.6,149.664 163.15,149.664 235.2,77.614 209.6,77.614 148.8,138.414 148.8,77.614 "
     style="fill:#d9eced"
     transform="translate(-42.915065,924.14004)" /><path
     id="path38"
     d="m -3.7150647,1002.554 c 0.5,-0.1 1.1,-0.7 1.6,-0.8 -0.5,0.1 -1,0.7 -1.6,0.8 z"
     style="fill:#ffffff"
     inkscape:connector-curvature="0" /><g
     id="g52"
     transform="translate(-42.915065,924.14004)"><polygon
       id="polygon40"
       points="194.4,230.714 181.1,230.714 208.8,258.414 222.4,258.414 "
       style="fill:#d9eced" /><polygon
       id="polygon42"
       points="81.3,230.714 68.7,230.714 41.5,258.414 53.6,258.414 "
       style="fill:#d9eced" /><polygon
       id="polygon44"
       points="201.9,230.714 229.6,258.414 236.4,258.414 208.2,230.714 "
       style="fill:#d9eced" /><rect
       id="rect46"
       height="27.700001"
       width="8.8000002"
       style="fill:#d9eced"
       y="230.714"
       x="140" /><rect
       id="rect48"
       height="27.700001"
       width="7.1999998"
       style="fill:#d9eced"
       y="230.714"
       x="114.4" /><polygon
       id="polygon50"
       points="60.7,230.714 56,230.714 28,258.414 33.5,258.414 "
       style="fill:#d9eced" /></g><g
     id="g64"
     transform="translate(-42.915065,924.14004)"><path
       id="path54"
       d="m 40.9,77.614 c 0.4,0 0.8,0.1 1.3,0 -0.4,0.1 -0.9,-0.1 -1.3,0 z"
       style="fill:#e51d35"
       inkscape:connector-curvature="0" /><polygon
       id="polygon56"
       points="121.6,158.556 0.167,158.556 0.167,175.914 114.4,175.914 121.6,175.914 121.6,176.714 121.6,184.806 121.6,258.414 140,258.414 140,184.806 140,176.714 140,175.914 261.5,175.914 261.5,158.556 140.167,158.556 140.167,158.414 140.167,149.664 140.167,77.614 121.6,77.614 121.6,149.664 121.6,158.314 "
       style="fill:#e51d35" /><path
       id="path58"
       d="m 105.75,149.664 h 8.65 L 42.2,77.614 c -2.4,0.4 -4.4,0.9 -6.8,1.7 z"
       style="fill:#e51d35"
       inkscape:connector-curvature="0" /><polygon
       id="polygon60"
       points="155.992,184.806 148.161,184.806 222.4,258.414 229.6,258.414 "
       style="fill:#e51d35" /><polygon
       id="polygon62"
       points="105.681,184.806 33.5,258.414 41.5,258.414 113.667,184.806 "
       style="fill:#e51d35" /></g><g
     id="g76"
     transform="translate(-42.915065,924.14004)"><path
       id="path66"
       d="m 229.083,77.614 c 0,0 -7.318,0.009 -8.476,0 l -72.2,72.05 h 8.65 z"
       style="fill:#af0026"
       inkscape:connector-curvature="0" /><polygon
       id="polygon68"
       points="121.6,79.989 121.6,86.614 121.6,88.989 121.6,140.314 121.6,142.689 121.6,144.719 140.167,163.657 152.183,175.914 261.5,175.914 261.5,158.556 140.167,158.556 140.167,156.181 140.167,88.989 140.167,86.614 140.167,79.989 140.167,77.614 121.6,77.614 "
       style="fill:#af0026" /><polygon
       id="polygon70"
       points="68.7,230.714 60.7,230.714 33.5,258.414 41.5,258.414 "
       style="fill:#af0026" /><rect
       id="rect72"
       height="27.700001"
       width="18.4"
       style="fill:#af0026"
       y="230.714"
       x="121.6" /><polygon
       id="polygon74"
       points="201.9,230.714 194.4,230.714 222.4,258.414 229.6,258.414 "
       style="fill:#af0026" /></g><g
     transform="translate(-73.635559,514.99008)"
     id="g970"><path
       style="opacity:1;fill:#f15c21;fill-opacity:1;fill-rule:nonzero;stroke:#ffffff;stroke-width:2.41374636;stroke-linecap:round;stroke-linejoin:miter;stroke-miterlimit:4;stroke-dasharray:none;stroke-opacity:1;paint-order:markers fill stroke"
       d="m 393.32371,578.04905 4.37881,-14.08988 -10.73905,-7.90827 13.43567,-0.0376 3.93145,-12.87113 4.49897,13.15202 13.4617,0.4537 -10.67516,7.31432 4.41705,13.92267 -11.93,-8.1621 z"
       id="path937"
       inkscape:connector-curvature="0"
       sodipodi:nodetypes="ccccccccccc" /><path
       style="opacity:1;fill:#f15c21;fill-opacity:1;fill-rule:nonzero;stroke:#ffffff;stroke-width:2.41374636;stroke-linecap:round;stroke-linejoin:miter;stroke-miterlimit:4;stroke-dasharray:none;stroke-opacity:1;paint-order:markers fill stroke"
       d="m 453.26815,630.44618 4.37881,-14.08988 -10.73905,-7.90827 13.43567,-0.0376 3.93145,-12.87113 4.49897,13.15202 13.4617,0.4537 -10.67516,7.31432 4.41705,13.92267 -11.93,-8.1621 z"
       id="path937-6"
       inkscape:connector-curvature="0"
       sodipodi:nodetypes="ccccccccccc" /><path
       style="opacity:1;fill:#f15c21;fill-opacity:1;fill-rule:nonzero;stroke:#ffffff;stroke-width:2.41374636;stroke-linecap:round;stroke-linejoin:miter;stroke-miterlimit:4;stroke-dasharray:none;stroke-opacity:1;paint-order:markers fill stroke"
       d="m 324.347,648.65119 4.37881,-14.08988 -10.73905,-7.90827 13.43567,-0.0376 3.93145,-12.87113 4.49897,13.15202 13.4617,0.4537 -10.67516,7.31432 4.41705,13.92267 -11.93,-8.1621 z"
       id="path937-1"
       inkscape:connector-curvature="0"
       sodipodi:nodetypes="ccccccccccc" /><path
       style="opacity:1;fill:#f15c21;fill-opacity:1;fill-rule:nonzero;stroke:#ffffff;stroke-width:2.41374636;stroke-linecap:round;stroke-linejoin:miter;stroke-miterlimit:4;stroke-dasharray:none;stroke-opacity:1;paint-order:markers fill stroke"
       d="m 394.00901,759.55309 4.37881,-14.08988 -10.73905,-7.90827 13.43567,-0.0376 3.93145,-12.87113 4.49897,13.15202 13.4617,0.4537 -10.67516,7.31432 4.41705,13.92267 -11.93,-8.1621 z"
       id="path937-18"
       inkscape:connector-curvature="0"
       sodipodi:nodetypes="ccccccccccc" /></g></g></svg>