<?xml version="1.0" encoding="UTF-8" standalone="no"?>
<!-- Generator: Adobe Illustrator 19.0.0, SVG Export Plug-In . SVG Version: 6.00 Build 0)  -->

<svg
   xmlns:dc="http://purl.org/dc/elements/1.1/"
   xmlns:cc="http://creativecommons.org/ns#"
   xmlns:rdf="http://www.w3.org/1999/02/22-rdf-syntax-ns#"
   xmlns:svg="http://www.w3.org/2000/svg"
   xmlns="http://www.w3.org/2000/svg"
   xmlns:sodipodi="http://sodipodi.sourceforge.net/DTD/sodipodi-0.dtd"
   xmlns:inkscape="http://www.inkscape.org/namespaces/inkscape"
   version="1.1"
   id="Capa_1"
   x="0px"
   y="0px"
   viewBox="0 0 1920 1080"
   xml:space="preserve"
   sodipodi:docname="FLAG_BRAZIL.svg"
   width="1920"
   height="1080"
   inkscape:version="0.92.3 (2405546, 2018-03-11)"><metadata
   id="metadata57"><rdf:RDF><cc:Work
       rdf:about=""><dc:format>image/svg+xml</dc:format><dc:type
         rdf:resource="http://purl.org/dc/dcmitype/StillImage" /><dc:title></dc:title></cc:Work></rdf:RDF></metadata><defs
   id="defs55" /><sodipodi:namedview
   pagecolor="#ffffff"
   bordercolor="#666666"
   borderopacity="1"
   objecttolerance="10"
   gridtolerance="10"
   guidetolerance="10"
   inkscape:pageopacity="0"
   inkscape:pageshadow="2"
   inkscape:window-width="1920"
   inkscape:window-height="1017"
   id="namedview53"
   showgrid="false"
   inkscape:zoom="0.33644597"
   inkscape:cx="335.55804"
   inkscape:cy="451.17688"
   inkscape:window-x="1912"
   inkscape:window-y="-8"
   inkscape:window-maximized="1"
   inkscape:current-layer="Capa_1" />








<g
   id="g22"
   transform="translate(0,584)">
</g>
<g
   id="g24"
   transform="translate(0,584)">
</g>
<g
   id="g26"
   transform="translate(0,584)">
</g>
<g
   id="g28"
   transform="translate(0,584)">
</g>
<g
   id="g30"
   transform="translate(0,584)">
</g>
<g
   id="g32"
   transform="translate(0,584)">
</g>
<g
   id="g34"
   transform="translate(0,584)">
</g>
<g
   id="g36"
   transform="translate(0,584)">
</g>
<g
   id="g38"
   transform="translate(0,584)">
</g>
<g
   id="g40"
   transform="translate(0,584)">
</g>
<g
   id="g42"
   transform="translate(0,584)">
</g>
<g
   id="g44"
   transform="translate(0,584)">
</g>
<g
   id="g46"
   transform="translate(0,584)">
</g>
<g
   id="g48"
   transform="translate(0,584)">
</g>
<g
   id="g50"
   transform="translate(0,584)">
</g>
<g
   id="g937"
   transform="matrix(1.171875,0,0,1.171875,1447.634,-997.30676)"><path
     id="path2"
     d="m -160.11436,1437.3581 c 0,28.077 -22.297,50.374 -49.548,50.374 h -412.904 c -27.251,0 -49.548,-22.297 -49.548,-50.374 v -251.046 c 0,-28.077 22.297,-50.374 49.548,-50.374 h 412.903 c 27.252,0 49.548,22.297 49.548,50.374 v 251.046 z"
     style="fill:#009b3a"
     inkscape:connector-curvature="0" /><path
     id="path4"
     d="m -622.56636,1135.9381 h 412.903 c 27.252,0 49.548,22.297 49.548,50.374 v 251.045 c 0,28.077 -22.297,50.374 -49.548,50.374"
     style="fill:#007c29"
     inkscape:connector-curvature="0" /><g
     id="g10"
     transform="translate(-672.11436,1055.8351)"><path
       id="path6"
       d="m 49.548,80.103 h 412.903 c 27.252,0 49.548,22.297 49.548,50.374 v 91.665"
       style="fill:#006d21"
       inkscape:connector-curvature="0" /><path
       id="path8"
       d="m 512,381.523 c 0,28.077 -22.297,50.374 -49.548,50.374 H 49.548 C 22.297,431.897 0,409.6 0,381.523"
       style="fill:#006d21"
       inkscape:connector-curvature="0" /></g><path
     id="path12"
     d="m -640.73336,1311.8351 224.619,143.69 224.619,-143.69 -224.619,-143.69 z"
     style="fill:#fedf00"
     inkscape:connector-curvature="0" /><g
     id="g18"
     transform="translate(-672.11436,1055.8351)"><polygon
       id="polygon14"
       points="284.077,381.523 227.923,381.523 256,399.69 "
       style="fill:#fcc000" /><polygon
       id="polygon16"
       points="256,112.31 159.381,174.245 352.619,337.755 480.619,256 "
       style="fill:#fcc000" /></g><circle
     id="circle20"
     r="94.968002"
     cy="1311.8352"
     cx="-416.11435"
     style="fill:#002776" /><path
     id="path22"
     d="m -416.11436,1216.8671 c -28.903,0 -54.503,13.213 -71.845,33.032 l 144.516,123.046 c 14.039,-16.516 22.297,-37.987 22.297,-61.11 0,-52.026 -42.942,-94.968 -94.968,-94.968 z"
     style="fill:#021e47"
     inkscape:connector-curvature="0" /><path
     id="path24"
     d="m -503.14536,1273.7861 c -2.09,4.774 -3.8,9.752 -5.089,14.897 12.736,-2.235 25.858,-3.366 39.268,-3.274 55.192,0 105.461,20.538 143.63,54.395 1.47,-4.776 2.569,-9.715 3.273,-14.78 -40.006,-33.48 -91.525,-53.653 -147.73,-53.653 -11.326,-10e-4 -22.46,0.834 -33.352,2.415 z"
     style="fill:#ffffff"
     inkscape:connector-curvature="0" /></g></svg>