<?xml version="1.0" encoding="UTF-8" standalone="no"?>
<!-- Generator: Adobe Illustrator 19.0.0, SVG Export Plug-In . SVG Version: 6.00 Build 0)  -->

<svg
   xmlns:dc="http://purl.org/dc/elements/1.1/"
   xmlns:cc="http://creativecommons.org/ns#"
   xmlns:rdf="http://www.w3.org/1999/02/22-rdf-syntax-ns#"
   xmlns:svg="http://www.w3.org/2000/svg"
   xmlns="http://www.w3.org/2000/svg"
   xmlns:sodipodi="http://sodipodi.sourceforge.net/DTD/sodipodi-0.dtd"
   xmlns:inkscape="http://www.inkscape.org/namespaces/inkscape"
   version="1.1"
   id="Layer_1"
   x="0px"
   y="0px"
   viewBox="0 0 1920 1080"
   xml:space="preserve"
   sodipodi:docname="FLAG_EGYPT.svg"
   width="1920"
   height="1080"
   inkscape:version="0.92.3 (2405546, 2018-03-11)"><metadata
   id="metadata141"><rdf:RDF><cc:Work
       rdf:about=""><dc:format>image/svg+xml</dc:format><dc:type
         rdf:resource="http://purl.org/dc/dcmitype/StillImage" /><dc:title></dc:title></cc:Work></rdf:RDF></metadata><defs
   id="defs139">
	
	
	
	
	
	
	
	
	
	
	
	
	
	
</defs><sodipodi:namedview
   pagecolor="#ffffff"
   bordercolor="#666666"
   borderopacity="1"
   objecttolerance="10"
   gridtolerance="10"
   guidetolerance="10"
   inkscape:pageopacity="0"
   inkscape:pageshadow="2"
   inkscape:window-width="1920"
   inkscape:window-height="1017"
   id="namedview137"
   showgrid="false"
   inkscape:zoom="0.47578631"
   inkscape:cx="248.0105"
   inkscape:cy="248.0105"
   inkscape:window-x="-8"
   inkscape:window-y="-8"
   inkscape:window-maximized="1"
   inkscape:current-layer="Layer_1" />









<g
   id="g1041"
   transform="matrix(1.2096267,0,0,1.2096267,660,-466.39611)"><path
     inkscape:connector-curvature="0"
     id="path2"
     d="m 0,887.989 v 65.6 c 0,27.2 21.6,46.4 48,46.4 h 400 c 26.4,0 48,-19.2 48,-46.4 v -65.6 z"
     style="fill:#2e2f30" /><path
     inkscape:connector-curvature="0"
     id="path4"
     d="M 448,663.989 H 48 c -26.4,0 -48,19.2 -48,46.4 v 65.6 h 496 v -65.6 c 0,-27.2 -21.6,-46.4 -48,-46.4 z"
     style="fill:#cc3434" /><rect
     x="0"
     id="rect6"
     height="112"
     width="496"
     style="fill:#f5feff"
     y="775.98901" /><path
     inkscape:connector-curvature="0"
     id="path8"
     d="m 446.4,999.989 c 26.4,0 49.6,-19.2 49.6,-46.4 v -65.6 H 315.2 Z" /><path
     inkscape:connector-curvature="0"
     id="path10"
     d="M 448,663.989 H 48 l 132.8,112 H 496 v -65.6 c 0,-27.2 -21.6,-46.4 -48,-46.4 z"
     style="fill:#ba2b2b" /><polygon
     transform="translate(0,583.979)"
     id="polygon12"
     points="180,192.01 316,304.01 496,304.01 496,192.01 "
     style="fill:#d9e2e1" /><path
     inkscape:connector-curvature="0"
     id="path14"
     d="M 448,663.989 H 48 l 370.4,112 H 496 v -65.6 c 0,-27.2 -21.6,-46.4 -48,-46.4 z"
     style="fill:#a32323" /><polygon
     transform="translate(0,583.979)"
     id="polygon16"
     points="496,192.01 414.4,192.01 496,214.41 "
     style="fill:#c9d3d1" /><path
     inkscape:connector-curvature="0"
     id="path18"
     d="m 496,952.789 c 0.8,28.8 -21.6,47.2 -48,47.2 H 48 c -26.4,0 -48,-20.8 -48,-48" /><path
     style="fill:#db9c00"
     d="m 288,871.189 c -0.8,-11.2 -0.8,-22.4 -1.6,-33.6 0,-4.8 0,-9.6 -0.8,-14.4 -0.8,-8 0,-16 -1.6,-23.2 -1.6,-1.6 -4,-3.2 -6.4,-2.4 -6.4,0.8 -12,7.2 -18.4,6.4 -1.6,-2.4 -3.2,-5.6 -4,-10.4 0,-2.4 0,-4 0,-6.4 0,-4 -0.8,-7.2 -3.2,-8.8 -1.6,-0.8 -4.8,-1.6 -7.2,-1.6 -0.8,0 -1.6,0.8 -2.4,1.6 -3.2,-1.6 -8,-2.4 -7.2,2.4 3.2,-1.6 6.4,2.4 6.4,5.6 0.8,6.4 -1.6,14.4 -4.8,16.8 -7.2,0 -12,-5.6 -18.4,-6.4 -5.6,-0.8 -7.2,3.2 -7.2,8.8 0,4.8 0,10.4 -0.8,15.2 0,4.8 0,9.6 -0.8,14.4 0,2.4 0,5.6 0,8 -0.8,4.8 0,11.2 -0.8,16 0,4 0,8 -0.8,11.2 2.4,-0.8 6.4,0 9.6,0 0,0.8 0.8,0.8 0.8,2.4 -2.4,0.8 -2.4,2.4 -4.8,3.2 1.6,0.8 1.6,4 3.2,4.8 0,1.6 0,2.4 0.8,2.4 1.6,0.8 6.4,1.6 8.8,2.4 14.4,1.6 36,1.6 49.6,-0.8 3.2,-0.8 4.8,-0.8 4.8,-4 1.6,-0.8 1.6,-3.2 3.2,-4.8 -1.6,-0.8 -2.4,-1.6 -3.2,-2.4 -0.8,-0.8 -0.8,0 -1.6,-0.8 0,-0.8 0,-1.6 0.8,-1.6 1.6,0 5.6,-0.8 8,0 z m -67.2,-1.6 c -0.8,0.8 -1.6,0.8 -2.4,1.6 -0.8,-1.6 0.8,-3.2 2.4,-3.2 0,0 0,0.8 0,1.6 z m 40.8,3.2 c -3.2,0 -6.4,0.8 -9.6,0 -0.8,-0.8 -0.8,-2.4 0,-3.2 3.2,0 6.4,0 9.6,0 4,-0.8 8.8,-1.6 12,-2.4 0.8,0 0.8,1.6 0.8,2.4 -2.4,1.6 -6.4,1.6 -9.6,2.4 0,-3.2 -3.2,-2.4 -3.2,0.8 z m 3.2,0 c -0.8,0.8 -0.8,0.8 -1.6,1.6 -0.8,-0.8 -1.6,-0.8 -1.6,-0.8 0,-3.2 3.2,-4 3.2,-0.8 z m -22.4,-28 c 0.8,0.8 1.6,1.6 2.4,1.6 0,1.6 -0.8,3.2 -0.8,4.8 -0.8,-1.6 -4,-4.8 -1.6,-6.4 z m -4,4 c -0.8,-3.2 -0.8,-6.4 -0.8,-9.6 1.6,1.6 3.2,3.2 4.8,4.8 -0.8,1.6 -2.4,3.2 -4,4.8 z m 6.4,18.4 c 0.8,-4 0.8,-8.8 1.6,-12.8 0.8,3.2 -0.8,8.8 -0.8,12 0,1.6 1.6,1.6 1.6,3.2 0.8,-0.8 1.6,-1.6 2.4,-2.4 0,-4 -0.8,-8.8 -0.8,-12.8 0.8,4 1.6,8 1.6,12 0.8,0.8 1.6,0.8 1.6,1.6 0.8,0 0.8,-0.8 1.6,-0.8 0.8,0.8 0,1.6 0.8,2.4 -0.8,0 -2.4,0 -3.2,0 -0.8,0 -0.8,0.8 -1.6,0.8 -1.6,0 -3.2,0 -4.8,0 -0.8,-1.6 -3.2,-0.8 -4.8,-0.8 0,-0.8 0,-1.6 0.8,-1.6 0,-0.8 0.8,0.8 1.6,0.8 0.8,-0.8 1.6,-0.8 2.4,-1.6 z m 12.8,-18.4 c -1.6,-0.8 -2.4,-3.2 -4,-4.8 1.6,-1.6 3.2,-3.2 4.8,-4.8 v 0 c 0,3.2 -0.8,6.4 -0.8,9.6 z m 3.2,-14.4 c 0,0 0,0.8 0,0 0.8,4 4,8 1.6,12 -1.6,-0.8 -2.4,-3.2 -4,-4 0,-3.2 0.8,-5.6 2.4,-8 z m -6.4,12 c -0.8,1.6 -1.6,4 -2.4,5.6 -0.8,-1.6 -0.8,-3.2 -1.6,-4.8 0.8,-0.8 1.6,-0.8 2.4,-2.4 0.8,0 1.6,0.8 1.6,1.6 z m -8,28.8 c -0.8,0 -1.6,-0.8 -2.4,-1.6 0,-0.8 0.8,-0.8 0.8,-2.4 1.6,0 2.4,2.4 1.6,4 z m 0,-4 c 0.8,0 2.4,0 3.2,0 -0.8,0.8 -0.8,2.4 -2.4,1.6 0,-0.8 -0.8,-0.8 -0.8,-1.6 z m 4,0 c 0.8,0 0.8,1.6 1.6,2.4 0,0.8 -1.6,0.8 -1.6,1.6 -1.6,-0.8 -0.8,-3.2 0,-4 z m 9.6,-4 c 0.8,0 1.6,1.6 1.6,2.4 -0.8,0 -1.6,0 -2.4,0 0,-0.8 0.8,-1.6 0.8,-2.4 z m 4,1.6 c 0,-1.6 0.8,-2.4 1.6,-3.2 0.8,0.8 1.6,1.6 1.6,2.4 -0.8,0 -2.4,0.8 -3.2,0.8 z m 4,-0.8 c -0.8,-0.8 -1.6,-2.4 -3.2,-4 -0.8,1.6 -1.6,3.2 -1.6,4.8 h -0.8 c -0.8,-0.8 -1.6,-2.4 -1.6,-3.2 -0.8,0.8 -0.8,2.4 -1.6,4 -0.8,0 -1.6,0 -2.4,0 -1.6,-2.4 -0.8,-5.6 0,-8.8 1.6,0.8 2.4,2.4 3.2,4 0.8,-1.6 0.8,-3.2 1.6,-4.8 1.6,0.8 2.4,2.4 3.2,4 0.8,-1.6 1.6,-4 2.4,-5.6 0,0 0,0 0.8,0 0.8,3.2 1.6,6.4 2.4,9.6 -0.8,0 -1.6,0 -2.4,0 z m -3.2,-5.6 c -1.6,-0.8 -1.6,-2.4 -3.2,-4 -0.8,1.6 -0.8,3.2 -1.6,4.8 -1.6,-0.8 -2.4,-3.2 -4,-4 -0.8,1.6 -0.8,3.2 -0.8,4.8 -0.8,-2.4 -1.6,-5.6 -2.4,-8.8 0.8,0 2.4,2.4 3.2,3.2 0.8,-2.4 0.8,-4.8 1.6,-6.4 1.6,0.8 1.6,2.4 2.4,3.2 0.8,-1.6 1.6,-3.2 2.4,-4.8 1.6,0.8 2.4,2.4 4,3.2 1.6,4 -0.8,6.4 -1.6,8.8 z m -2.4,-12 c -0.8,1.6 -0.8,2.4 -1.6,4 -1.6,-0.8 -1.6,-2.4 -2.4,-3.2 -0.8,1.6 -1.6,4.8 -1.6,7.2 -1.6,-1.6 -4,-2.4 -4,-4.8 0,-0.8 0.8,-2.4 0.8,-3.2 0.8,-0.8 0.8,-1.6 1.6,-3.2 0.8,0.8 1.6,2.4 3.2,3.2 0,-2.4 0,-4.8 0.8,-7.2 1.6,0.8 2.4,2.4 4,4 0.8,-0.8 0.8,-1.6 0.8,-2.4 1.6,2.4 2.4,6.4 2.4,8.8 -1.6,-0.8 -2.4,-2.4 -4,-3.2 z m 1.6,-12 c 0,-4.8 -0.8,-9.6 0,-13.6 0,0 0,0 0.8,0 0,8 0.8,16 0.8,24 -1.6,-3.2 -1.6,-7.2 -1.6,-10.4 z m -16,9.6 c -10.4,-6.4 -16.8,-17.6 -16.8,-34.4 7.2,0 12.8,-1.6 16.8,-4.8 1.6,0.8 3.2,1.6 4.8,2.4 3.2,1.6 7.2,2.4 12,2.4 0,16.8 -6.4,28 -16.8,34.4 z m -10.4,-5.6 c -0.8,1.6 -2.4,3.2 -4,4 -3.2,-3.2 0.8,-8 0.8,-12 2.4,1.6 3.2,4.8 3.2,8 z m -6.4,-17.6 v 0 c 1.6,1.6 0.8,5.6 0.8,8.8 0,5.6 0,10.4 -1.6,14.4 0,-7.2 0.8,-16 0.8,-23.2 z m 1.6,20 c 0,0.8 0.8,1.6 0.8,2.4 1.6,-1.6 2.4,-2.4 4,-4 0.8,1.6 0.8,4.8 0.8,7.2 0.8,-0.8 1.6,-2.4 3.2,-3.2 0.8,2.4 1.6,4 2.4,6.4 -0.8,2.4 -2.4,3.2 -4,4.8 -0.8,-2.4 -1.6,-4.8 -2.4,-7.2 -1.6,0.8 -0.8,3.2 -2.4,3.2 -0.8,-1.6 -0.8,-2.4 -1.6,-4 -1.6,0.8 -2.4,2.4 -4,3.2 0,-0.8 0.8,-1.6 0.8,-2.4 0.8,-2.4 0.8,-4.8 2.4,-6.4 z m 0,6.4 c 0.8,0.8 1.6,3.2 2.4,4.8 0.8,-0.8 0.8,-2.4 2.4,-3.2 0.8,2.4 1.6,4.8 2.4,6.4 0.8,-0.8 2.4,-2.4 3.2,-3.2 -0.8,2.4 -1.6,5.6 -1.6,8 -0.8,-0.8 -0.8,-3.2 -0.8,-4.8 -1.6,0.8 -2.4,3.2 -4,4 -0.8,-1.6 -1.6,-3.2 -1.6,-4.8 -1.6,0.8 -1.6,2.4 -3.2,4 -0.8,-2.4 -3.2,-4.8 -2.4,-8 1.6,-0.8 2.4,-2.4 3.2,-3.2 z m -1.6,12 c 0.8,-1.6 1.6,-2.4 3.2,-4 0.8,1.6 1.6,3.2 1.6,4.8 1.6,-0.8 2.4,-3.2 3.2,-4 0.8,2.4 1.6,6.4 0,8.8 -0.8,0 -1.6,0 -2.4,0 -0.8,-0.8 -0.8,-2.4 -1.6,-4 -0.8,0.8 -1.6,2.4 -2.4,3.2 H 232 c -0.8,-1.6 -1.6,-3.2 -1.6,-4.8 -0.8,0.8 -1.6,2.4 -2.4,3.2 -0.8,0 -1.6,0 -2.4,-0.8 0.8,-3.2 1.6,-6.4 3.2,-10.4 0.8,3.2 1.6,6.4 2.4,8 z m 5.6,6.4 c -0.8,0 -1.6,0 -2.4,0 0,-0.8 0.8,-1.6 0.8,-2.4 0.8,0 0.8,1.6 1.6,2.4 z m -4.8,-0.8 c -1.6,0 -2.4,-0.8 -3.2,-0.8 0,-1.6 1.6,-1.6 1.6,-3.2 0.8,1.6 1.6,2.4 1.6,4 z m 0,0.8 c 4.8,0.8 8,0.8 12,0.8 0.8,0.8 0,1.6 0,3.2 -3.2,0.8 -6.4,0 -9.6,0 0,-3.2 -2.4,-4 -2.4,-0.8 -3.2,-0.8 -8,-0.8 -8,-2.4 0,-0.8 0,-1.6 0,-2.4 0,-0.8 -0.8,-0.8 0.8,-0.8 2.4,0.8 4,1.6 7.2,2.4 z m 1.6,3.2 c -0.8,0 -0.8,0.8 -0.8,0.8 -1.6,0 -1.6,-4 0.8,-3.2 0,0.8 0,1.6 0,2.4 z m 41.6,-4.8 c 1.6,0 2.4,1.6 2.4,3.2 -0.8,0 -1.6,-0.8 -2.4,-0.8 0,-0.8 0,-2.4 0,-2.4 z m -4.8,-0.8 c -1.6,-5.6 -3.2,-10.4 -4.8,-16 1.6,0.8 2.4,2.4 3.2,3.2 0,-13.6 -1.6,-28 -1.6,-42.4 -1.6,0.8 -3.2,1.6 -6.4,1.6 -5.6,0 -10.4,-2.4 -13.6,-4.8 -2.4,1.6 -6.4,4 -10.4,4.8 -4,0.8 -7.2,0.8 -9.6,-1.6 -0.8,14.4 -1.6,28 -1.6,42.4 1.6,-0.8 2.4,-2.4 4,-3.2 -1.6,5.6 -3.2,12 -4.8,16.8 -3.2,-0.8 -7.2,-3.2 -8,2.4 -2.4,0 -4,0 -6.4,0 0.8,0 0.8,-1.6 2.4,-3.2 0.8,-21.6 1.6,-42.4 2.4,-64.8 -1.6,0 -3.2,0.8 -4,1.6 0,-3.2 1.6,-6.4 4.8,-6.4 7.2,-0.8 12.8,6.4 20,6.4 0,0.8 -0.8,0.8 -1.6,1.6 1.6,0 4,0 4.8,-0.8 0,0.8 -0.8,1.6 -1.6,2.4 3.2,0 5.6,-1.6 6.4,-3.2 0.8,0.8 1.6,1.6 2.4,2.4 0.8,-0.8 1.6,-1.6 2.4,-2.4 1.6,1.6 4,3.2 7.2,3.2 0,-0.8 -1.6,-1.6 -1.6,-2.4 1.6,0.8 4,0.8 4.8,0.8 0,-0.8 -1.6,-0.8 -1.6,-1.6 8,0 12,-7.2 20,-6.4 3.2,0 4.8,2.4 4.8,6.4 -1.6,-0.8 -2.4,-1.6 -4,-1.6 0.8,17.6 1.6,39.2 2.4,56.8 0,2.4 -0.8,5.6 0,7.2 0.8,1.6 3.2,2.4 4,4 -2.4,0 -5.6,0 -8,0 1.6,-3.2 -2.4,-4 -6.4,-3.2 z"
     id="path20"
     inkscape:connector-curvature="0" /><g
     transform="translate(0,583.979)"
     id="g28">
		<path
   style="fill:#996a00"
   d="m 261.6,229.61 c -5.6,0 -10.4,-2.4 -13.6,-4.8 -2.4,1.6 -6.4,4 -10.4,4.8 -4,0.8 -7.2,0.8 -9.6,-1.6 0,0.8 0,1.6 0,3.2 l 4,3.2 c 0,-1.6 0,-2.4 0,-4 7.2,0 12.8,-1.6 16.8,-4.8 1.6,0.8 3.2,1.6 4.8,2.4 3.2,1.6 7.2,2.4 12,2.4 0,10.4 -3.2,19.2 -8,25.6 h 0.8 l 0.8,-0.8 v 0 c 0,0.8 0,0.8 0,1.6 v 0 c 0,-2.4 0.8,-4.8 2.4,-6.4 0,0 0,0 0.8,0 0,3.2 2.4,7.2 1.6,10.4 v 0 c 0,0 0,0 0,-0.8 v 0.8 l 0.8,0.8 c -0.8,-1.6 -0.8,-4.8 -0.8,-7.2 0,-4.8 -0.8,-9.6 0,-13.6 0,0 0,0 0.8,0 0,7.2 0.8,15.2 0.8,22.4 l 4,3.2 c 0,-12.8 -0.8,-25.6 -1.6,-38.4 -1.6,0.8 -3.2,1.6 -6.4,1.6 z"
   id="path22"
   inkscape:connector-curvature="0" />
		<path
   style="fill:#996a00"
   d="m 286.4,253.61 c 0,-4.8 0,-9.6 -0.8,-14.4 -0.8,-8 0,-16 -1.6,-23.2 -1.6,-1.6 -4,-3.2 -6.4,-2.4 -6.4,0.8 -12,7.2 -18.4,6.4 -1.6,-2.4 -3.2,-5.6 -4,-10.4 0,-2.4 0,-4 0,-6.4 0,-4 -0.8,-7.2 -3.2,-8.8 -1.6,-0.8 -4.8,-1.6 -7.2,-1.6 -0.8,0 -1.6,0.8 -2.4,1.6 -3.2,-1.6 -8,-2.4 -7.2,2.4 3.2,-1.6 6.4,2.4 6.4,5.6 0.8,6.4 -1.6,14.4 -4.8,16.8 -7.2,0 -12,-5.6 -18.4,-6.4 -4,0 -5.6,1.6 -6.4,4 v 0 c 0.8,-1.6 2.4,-3.2 4.8,-3.2 7.2,-0.8 12.8,6.4 20,6.4 0,0.8 -0.8,0.8 -1.6,1.6 1.6,0 4,0 4.8,-0.8 0,0.8 -0.8,1.6 -1.6,2.4 3.2,0 5.6,-1.6 6.4,-3.2 0.8,0.8 1.6,1.6 2.4,2.4 0.8,-0.8 1.6,-1.6 2.4,-2.4 1.6,1.6 4,3.2 7.2,3.2 0,-0.8 -1.6,-1.6 -1.6,-2.4 1.6,0.8 4,0.8 4.8,0.8 0,-0.8 -1.6,-0.8 -1.6,-1.6 8,0 12,-7.2 20,-6.4 3.2,0 4.8,2.4 4.8,6.4 -1.6,-0.8 -2.4,-1.6 -4,-1.6 0.8,17.6 1.6,39.2 2.4,56.8 0,0.8 0,1.6 0,2.4 l 4.8,4 c 0.8,-9.6 0.8,-18.4 0,-28 z"
   id="path24"
   inkscape:connector-curvature="0" />
		<path
   style="fill:#996a00"
   d="m 216,220.81 c 0,-0.8 0,-1.6 0,-2.4 -0.8,0 -1.6,0 -2.4,0.8 z"
   id="path26"
   inkscape:connector-curvature="0" />
	</g><path
     style="fill:#db9c00"
     d="m 216.8,803.189 c -0.8,20.8 -1.6,41.6 -2.4,61.6 1.6,-0.8 3.2,-3.2 4.8,-4 0.8,-19.2 1.6,-35.2 2.4,-53.6 -1.6,-1.6 -3.2,-3.2 -4.8,-4 z"
     id="path30"
     inkscape:connector-curvature="0" /><path
     style="fill:#996a00"
     d="m 216.8,805.589 4.8,4 c 0,-0.8 0,-1.6 0,-2.4 -1.6,-1.6 -3.2,-3.2 -4.8,-4 0,0.8 0,1.6 0,2.4 z"
     id="path32"
     inkscape:connector-curvature="0" /><path
     style="fill:#db9c00"
     d="m 279.2,803.189 c -0.8,1.6 -4,2.4 -4.8,4 0,1.6 0,5.6 0,7.2 1.6,14.4 0.8,30.4 1.6,45.6 0.8,0.8 1.6,1.6 2.4,2.4 0.8,0.8 1.6,2.4 2.4,1.6 0,-19.2 -0.8,-42.4 -1.6,-60.8 z"
     id="path34"
     inkscape:connector-curvature="0" /><path
     style="fill:#996a00"
     d="m 279.2,803.189 c -0.8,1.6 -4,2.4 -4.8,4 0,1.6 0,5.6 0,7.2 0.8,12.8 0.8,27.2 1.6,41.6 l 4.8,4 c 0,-18.4 -0.8,-39.2 -1.6,-56.8 z"
     id="path36"
     inkscape:connector-curvature="0" /><path
     style="fill:#db9c00"
     d="m 220.8,859.189 c 0.8,-1.6 3.2,-2.4 4,-4 0.8,-1.6 0,-4 0,-6.4 0.8,-12 1.6,-26.4 1.6,-37.6 -1.6,-0.8 -2.4,-2.4 -4,-3.2 0,16.8 -0.8,34.4 -1.6,51.2 z"
     id="path38"
     inkscape:connector-curvature="0" /><path
     style="fill:#996a00"
     d="m 222.4,810.389 4,3.2 c 0,-0.8 0,-1.6 0,-2.4 -1.6,-0.8 -2.4,-2.4 -4,-3.2 0.8,0.8 0,1.6 0,2.4 z"
     id="path40"
     inkscape:connector-curvature="0" /><path
     style="fill:#db9c00"
     d="m 269.6,811.189 c 0.8,14.4 0.8,29.6 1.6,44 0.8,0.8 2.4,2.4 3.2,3.2 l 0.8,0.8 c -0.8,-16.8 -1.6,-35.2 -2.4,-50.4 -0.8,0.8 -2.4,1.6 -3.2,2.4 z"
     id="path42"
     inkscape:connector-curvature="0" /><path
     style="fill:#996a00"
     d="m 272.8,807.989 c -0.8,0.8 -2.4,1.6 -3.2,3.2 0.8,13.6 0.8,27.2 1.6,40.8 l 4,3.2 c -0.8,-16 -1.6,-32.8 -2.4,-47.2 z"
     id="path44"
     inkscape:connector-curvature="0" /><path
     style="fill:#db9c00"
     d="m 232,814.389 c 0.8,15.2 6.4,25.6 16,32 9.6,-6.4 15.2,-16.8 15.2,-32 -6.4,0 -12,-1.6 -15.2,-4.8 -3.2,3.2 -9.6,4.8 -16,4.8 z"
     id="path46"
     inkscape:connector-curvature="0" /><path
     style="fill:#996a00"
     d="m 232,814.389 c 0,1.6 0.8,2.4 0.8,4 l 23.2,20 c 4.8,-6.4 7.2,-14.4 7.2,-24 -6.4,0 -12,-1.6 -15.2,-4.8 -3.2,3.2 -9.6,4.8 -16,4.8 z"
     id="path48"
     inkscape:connector-curvature="0" /><g
     transform="translate(0,583.979)"
     id="g66">
		<path
   style="fill:#db9c00"
   d="m 222.4,284.81 c 0.8,0 1.6,0.8 2.4,0.8 0,-1.6 -1.6,-1.6 -2.4,-0.8 0,-0.8 0,0 0,0 z"
   id="path50"
   inkscape:connector-curvature="0" />
		<path
   style="fill:#db9c00"
   d="m 271.2,285.61 c 0.8,0 1.6,-0.8 2.4,-0.8 0,-0.8 -2.4,-0.8 -2.4,0.8 z"
   id="path52"
   inkscape:connector-curvature="0" />
		<path
   style="fill:#db9c00"
   d="m 229.6,286.41 c -0.8,-0.8 -1.6,-0.8 -3.2,-0.8 0.8,0.8 2.4,0.8 3.2,0.8 z"
   id="path54"
   inkscape:connector-curvature="0" />
		<path
   style="fill:#db9c00"
   d="m 266.4,286.41 c 0.8,0 3.2,0 3.2,-0.8 -1.6,0 -3.2,0.8 -3.2,0.8 z"
   id="path56"
   inkscape:connector-curvature="0" />
		<path
   style="fill:#db9c00"
   d="m 257.6,288.01 c 0.8,0 2.4,0 3.2,0 0,-1.6 -2.4,-1.6 -3.2,0 z"
   id="path58"
   inkscape:connector-curvature="0" />
		<path
   style="fill:#db9c00"
   d="m 238.4,287.21 c -0.8,0 -3.2,-0.8 -3.2,0.8 0.8,-0.8 3.2,0 3.2,-0.8 z"
   id="path60"
   inkscape:connector-curvature="0" />
		<path
   style="fill:#db9c00"
   d="m 243.2,287.21 c -0.8,0 -3.2,0 -3.2,0.8 0.8,0 2.4,0 3.2,-0.8 z"
   id="path62"
   inkscape:connector-curvature="0" />
		<path
   style="fill:#db9c00"
   d="m 252.8,288.01 c 0.8,0 1.6,0 3.2,0.8 0,-1.6 -2.4,-1.6 -3.2,-0.8 z"
   id="path64"
   inkscape:connector-curvature="0" />
	</g><g
     transform="translate(0,583.979)"
     id="g102">
		<path
   style="fill:#f5feff"
   d="m 276.8,293.61 c -2.4,0 -1.6,-4 -3.2,-4.8 -0.8,0 -1.6,0 -2.4,0.8 2.4,-1.6 3.2,2.4 3.2,4.8 -0.8,0 -0.8,-0.8 -1.6,-0.8 -1.6,0 -1.6,1.6 -3.2,1.6 0,-0.8 -0.8,-0.8 -2.4,-0.8 -0.8,-0.8 0,-2.4 -0.8,-2.4 0,0.8 0.8,1.6 0.8,2.4 -0.8,0.8 -0.8,0.8 -0.8,1.6 0,0 -0.8,0 -1.6,0 0,-0.8 0,-1.6 -0.8,-1.6 0,0.8 -1.6,0.8 -0.8,1.6 0,0 0.8,0 1.6,0.8 0,0.8 -0.8,0.8 -0.8,1.6 0.8,0 0.8,-0.8 1.6,-1.6 1.6,0 3.2,-0.8 4,0 0.8,0 0.8,-1.6 1.6,-1.6 1.6,1.6 3.2,-0.8 4,-0.8 0.8,0 1.6,0 2.4,0 v -0.8 c -0.8,-0.8 0,0 -0.8,0 z m -13.6,2.4 c 0,-0.8 0,-0.8 0.8,-0.8 0,0.8 0,0.8 0,0.8 0,0 0,0.8 -0.8,0 z m 4,0 c 0,-0.8 0,-0.8 0,-1.6 0.8,0 0.8,0.8 0,1.6 z m 2.4,-0.8 h -0.8 c -1.6,-0.8 0.8,-1.6 0.8,0 z m -0.8,0.8 c 0,-0.8 0.8,-0.8 0.8,-0.8 0,0.8 -0.8,1.6 -0.8,0.8 z m 2.4,-0.8 c 0,-1.6 1.6,-1.6 2.4,-0.8 0,0.8 -1.6,0.8 -2.4,0.8 z"
   id="path68"
   inkscape:connector-curvature="0" />
		<path
   style="fill:#f5feff"
   d="m 223.2,290.41 c 0,-0.8 0,-0.8 0,0 -0.8,-0.8 -0.8,-0.8 -1.6,-0.8 0,0.8 0,0 0,0.8 0.8,0 0.8,0 1.6,0 z"
   id="path70"
   inkscape:connector-curvature="0" />
		<path
   style="fill:#f5feff"
   d="m 222.4,291.21 c 0,0 -0.8,0 -1.6,0 0.8,0.8 0.8,0.8 1.6,0 z"
   id="path72"
   inkscape:connector-curvature="0" />
		<path
   style="fill:#f5feff"
   d="m 254.4,293.61 v -0.8 c 0,0 0,0 -0.8,0 0,0 0,0.8 0.8,0.8 -0.8,0 0,0 0,0 z"
   id="path74"
   inkscape:connector-curvature="0" />
		<path
   style="fill:#f5feff"
   d="m 236,298.41 c -0.8,-0.8 -0.8,-1.6 -1.6,-2.4 1.6,-0.8 0.8,-3.2 0,-3.2 -0.8,0 -0.8,0.8 -1.6,0.8 0,0.8 0.8,0.8 0.8,1.6 -0.8,0 -2.4,0.8 -3.2,0 0,-0.8 0,-1.6 -0.8,-1.6 0,0.8 0.8,2.4 -0.8,3.2 0.8,0 0.8,-0.8 1.6,-0.8 0.8,0.8 2.4,0 3.2,0 1.6,0.8 1.6,3.2 2.4,2.4 1.6,0 1.6,-4 0.8,-5.6 0,1.6 1.6,5.6 -0.8,5.6 z m -3.2,-3.2 c 0,-2.4 3.2,0 0.8,0.8 z"
   id="path76"
   inkscape:connector-curvature="0" />
		<path
   style="fill:#f5feff"
   d="m 239.2,297.61 c 0,-1.6 0.8,-4 0,-4.8 0,0.8 -0.8,3.2 0,4.8 z"
   id="path78"
   inkscape:connector-curvature="0" />
		<path
   style="fill:#f5feff"
   d="m 258.4,294.41 c -0.8,0.8 0.8,0.8 0,1.6 0,0.8 -0.8,0.8 -1.6,0.8 -1.6,-0.8 0,-4 -0.8,-4.8 0,0.8 0.8,2.4 0,4 -0.8,0 -1.6,0 -1.6,0.8 1.6,0 3.2,0 4.8,0 0,0 0.8,-2.4 -0.8,-2.4 z"
   id="path80"
   inkscape:connector-curvature="0" />
		<path
   style="fill:#f5feff"
   d="m 255.2,294.41 c 0,-0.8 -0.8,0 -0.8,0 -1.6,0 0.8,0.8 0.8,0 z"
   id="path82"
   inkscape:connector-curvature="0" />
		<path
   style="fill:#f5feff"
   d="m 260.8,294.41 c -0.8,0.8 0.8,1.6 0.8,2.4 0,0.8 -0.8,0.8 -0.8,1.6 0.8,0 1.6,-3.2 0,-4 z m 0.8,2.4 c -0.8,0 -0.8,-0.8 -0.8,-0.8 0,-0.8 0.8,0 0.8,0.8 z"
   id="path84"
   inkscape:connector-curvature="0" />
		<path
   style="fill:#f5feff"
   d="m 275.2,295.21 c 0.8,0 1.6,0.8 1.6,0 -0.8,0 -1.6,-0.8 -1.6,0 z"
   id="path86"
   inkscape:connector-curvature="0" />
		<path
   style="fill:#f5feff"
   d="m 250.4,297.61 h -0.8 c 0,-0.8 0,-1.6 -0.8,-1.6 -1.6,0.8 -4,0 -5.6,-0.8 0,0.8 0.8,1.6 -0.8,2.4 -0.8,0 -0.8,-1.6 -1.6,-1.6 -0.8,0.8 0.8,1.6 0.8,1.6 0,0.8 -0.8,1.6 -1.6,2.4 0.8,0 1.6,-1.6 2.4,-2.4 2.4,0 2.4,0 4.8,0 0,0.8 0.8,0.8 1.6,1.6 0.8,0 0.8,-1.6 0.8,-1.6 1.6,0 2.4,0 3.2,-0.8 0,-1.6 -2.4,-0.8 -2.4,0.8 z m -2.4,1.6 c -0.8,0 -0.8,-0.8 -0.8,-1.6 -0.8,0 -2.4,0 -3.2,0 0,-3.2 3.2,0 4.8,-1.6 0.8,1.6 0,2.4 -0.8,3.2 z m 3.2,-1.6 c -0.8,-0.8 0.8,-1.6 0.8,-0.8 0,0.8 0,0.8 -0.8,0.8 z"
   id="path88"
   inkscape:connector-curvature="0" />
		<path
   style="fill:#f5feff"
   d="m 222.4,297.61 v -0.8 c 0,0 0,-0.8 -0.8,0 0,-0.8 0,0 0.8,0.8 z"
   id="path90"
   inkscape:connector-curvature="0" />
		<path
   style="fill:#f5feff"
   d="m 223.2,297.61 c 0.8,0.8 1.6,0 1.6,-0.8 -0.8,-0.8 -1.6,0 -1.6,0.8 z"
   id="path92"
   inkscape:connector-curvature="0" />
		<path
   style="fill:#f5feff"
   d="m 225.6,297.61 h 0.8 v 0 c 0,-1.6 -1.6,-0.8 -0.8,0 z"
   id="path94"
   inkscape:connector-curvature="0" />
		<path
   style="fill:#f5feff"
   d="m 256,298.41 c -0.8,0 -0.8,1.6 0,1.6 z"
   id="path96"
   inkscape:connector-curvature="0" />
		<path
   style="fill:#f5feff"
   d="m 256.8,299.21 c 0,0.8 0.8,0.8 0.8,0.8 1.6,-0.8 -0.8,-2.4 -0.8,-0.8 z"
   id="path98"
   inkscape:connector-curvature="0" />
		<path
   style="fill:#f5feff"
   d="m 228,293.61 c 1.6,2.4 -1.6,3.2 -2.4,1.6 0,-0.8 0.8,-0.8 0.8,-1.6 -0.8,0 -0.8,1.6 -0.8,1.6 -3.2,0 -0.8,-4 -0.8,-5.6 0,0 0,0 -0.8,0 0,1.6 -0.8,3.2 -2.4,4 0,1.6 1.6,1.6 3.2,2.4 0.8,0.8 2.4,0.8 3.2,0.8 0,-1.6 1.6,-3.2 0,-3.2 z"
   id="path100"
   inkscape:connector-curvature="0" />
	</g></g>
<g
   id="g106"
   transform="translate(0,583.979)">
</g>
<g
   id="g108"
   transform="translate(0,583.979)">
</g>
<g
   id="g110"
   transform="translate(0,583.979)">
</g>
<g
   id="g112"
   transform="translate(0,583.979)">
</g>
<g
   id="g114"
   transform="translate(0,583.979)">
</g>
<g
   id="g116"
   transform="translate(0,583.979)">
</g>
<g
   id="g118"
   transform="translate(0,583.979)">
</g>
<g
   id="g120"
   transform="translate(0,583.979)">
</g>
<g
   id="g122"
   transform="translate(0,583.979)">
</g>
<g
   id="g124"
   transform="translate(0,583.979)">
</g>
<g
   id="g126"
   transform="translate(0,583.979)">
</g>
<g
   id="g128"
   transform="translate(0,583.979)">
</g>
<g
   id="g130"
   transform="translate(0,583.979)">
</g>
<g
   id="g132"
   transform="translate(0,583.979)">
</g>
<g
   id="g134"
   transform="translate(0,583.979)">
</g>
</svg>