<?xml version="1.0" encoding="UTF-8" standalone="no"?>
<!-- Generator: Adobe Illustrator 19.0.0, SVG Export Plug-In . SVG Version: 6.00 Build 0)  -->

<svg
   xmlns:dc="http://purl.org/dc/elements/1.1/"
   xmlns:cc="http://creativecommons.org/ns#"
   xmlns:rdf="http://www.w3.org/1999/02/22-rdf-syntax-ns#"
   xmlns:svg="http://www.w3.org/2000/svg"
   xmlns="http://www.w3.org/2000/svg"
   xmlns:sodipodi="http://sodipodi.sourceforge.net/DTD/sodipodi-0.dtd"
   xmlns:inkscape="http://www.inkscape.org/namespaces/inkscape"
   version="1.1"
   id="Capa_1"
   x="0px"
   y="0px"
   viewBox="0 0 1920 1080"
   xml:space="preserve"
   sodipodi:docname="FLAG_uganda.svg"
   width="1920"
   height="1080"
   inkscape:version="0.92.3 (2405546, 2018-03-11)"><metadata
   id="metadata57"><rdf:RDF><cc:Work
       rdf:about=""><dc:format>image/svg+xml</dc:format><dc:type
         rdf:resource="http://purl.org/dc/dcmitype/StillImage" /><dc:title></dc:title></cc:Work></rdf:RDF></metadata><defs
   id="defs55" /><sodipodi:namedview
   pagecolor="#ffffff"
   bordercolor="#666666"
   borderopacity="1"
   objecttolerance="10"
   gridtolerance="10"
   guidetolerance="10"
   inkscape:pageopacity="0"
   inkscape:pageshadow="2"
   inkscape:window-width="1920"
   inkscape:window-height="1017"
   id="namedview53"
   showgrid="false"
   inkscape:zoom="0.33644597"
   inkscape:cx="335.55804"
   inkscape:cy="451.17688"
   inkscape:window-x="1912"
   inkscape:window-y="-8"
   inkscape:window-maximized="1"
   inkscape:current-layer="Capa_1" />








<g
   id="g22"
   transform="translate(0,584)">
</g>
<g
   id="g24"
   transform="translate(0,584)">
</g>
<g
   id="g26"
   transform="translate(0,584)">
</g>
<g
   id="g28"
   transform="translate(0,584)">
</g>
<g
   id="g30"
   transform="translate(0,584)">
</g>
<g
   id="g32"
   transform="translate(0,584)">
</g>
<g
   id="g34"
   transform="translate(0,584)">
</g>
<g
   id="g36"
   transform="translate(0,584)">
</g>
<g
   id="g38"
   transform="translate(0,584)">
</g>
<g
   id="g40"
   transform="translate(0,584)">
</g>
<g
   id="g42"
   transform="translate(0,584)">
</g>
<g
   id="g44"
   transform="translate(0,584)">
</g>
<g
   id="g46"
   transform="translate(0,584)">
</g>
<g
   id="g48"
   transform="translate(0,584)">
</g>
<g
   id="g50"
   transform="translate(0,584)">
</g>
<g
   id="g895"
   transform="matrix(1.2096774,0,0,1.2096774,783.82255,-378.14211)"><circle
     id="circle2"
     r="52.799999"
     cy="758.9975"
     cx="145.64003"
     style="fill:#ffffff" /><path
     id="path4-1"
     d="m 147.24003,718.99749 v 0 l 0.8,-0.8 z"
     inkscape:connector-curvature="0" /><path
     id="path6-0"
     d="m 132.04003,794.19749 v 4 c 3.2,-1.6 8,-2.4 9.6,-2.4 0,-1.6 -0.8,-4.8 -0.8,-7.2 -1.6,0 -3.2,0 -5.6,-0.8 0,0 -0.8,1.6 -0.8,2.4 0,1.6 0,3.2 -2.4,4 z m 40.8,-14.4 c 0,1.6 -0.8,2.4 -1.6,4 0.8,-0.8 1.6,-2.4 2.4,-4 z m -12.8,-2.4 c 0,0.8 0.8,1.6 0.8,1.6 0.8,0.8 0.8,1.6 1.6,3.2 0.8,0 0.8,-0.8 0.8,-0.8 v 0 l -1.6,-3.2 c 0,0 0,0 0,-0.8 -0.8,0 -0.8,0 -1.6,0 z m -13.6,-8 h 1.6 l 0.8,3.2 c 0,1.6 0.8,4.8 0.8,8 0.8,0 2.4,0 3.2,0 -1.6,-2.4 -2.4,-4.8 -2.4,-7.2 v -1.6 l 1.6,-1.6 c 1.6,-1.6 4,-1.6 6.4,-0.8 l 4,-3.2 c 2.4,2.4 4,4.8 5.6,6.4 l 4,-1.6 c 0.8,1.6 1.6,4.8 0.8,8 l 0.8,0.8 c 0.8,-1.6 1.6,-3.2 1.6,-5.6 0.8,-6.4 -3.2,-10.4 -10.4,-13.6 l -1.6,-0.8 v -0.8 c -2.4,-0.8 -6.4,-3.2 -15.2,-7.2 l -4,-0.8 v 0 l -2.4,0.8 -3.2,-4.8 c 0,-0.8 -0.8,-5.6 0,-11.2 l -0.8,0.8 c 0,0 -7.2,7.2 -8,14.4 0,1.6 0,3.2 0.8,4.8 l 3.2,4 c 1.6,1.6 4.8,4.8 7.2,5.6 h 0.8 l 0.8,0.8 c 2.4,1.6 4,2.4 4,3.2 z m -6.4,-41.6 -0.8,4.8 c 0.8,-1.6 1.6,-2.4 2.4,-4 3.2,-2.4 3.2,-4.8 4,-5.6 v -0.8 l -3.2,-1.6 3.2,-4.8 3.2,2.4 v -0.8 0 l -0.8,-1.6 c -0.8,-0.8 -2.4,-0.8 -3.2,-1.6 v 3.2 h -4 l -2.4,1.6 0.8,0.8 2.4,1.6 c -0.8,0.8 -0.8,1.6 -0.8,1.6 l 0.8,0.8 h 1.6 v 2.4 l 1.6,2.4 z"
     style="fill:#ffffff"
     inkscape:connector-curvature="0" /><path
     id="path8-1"
     d="m 393.64003,880.59749 c 0,27.2 -21.6,48.8 -48,48.8 H -54.359973 c -26.4,0 -47.999997,-21.6 -47.999997,-48.8 v -243.2 c 0,-27.2 21.599997,-48.8 47.999997,-48.8 H 345.64003 c 26.4,0 48,21.6 48,48.8 z"
     inkscape:connector-curvature="0" /><path
     id="path10"
     d="m 393.64003,880.59749 v -8 h -496 v 8 c 0,24.8 18.399997,45.6 42.399997,48 H 351.24003 c 24,-2.4 42.4,-22.4 42.4,-48 z"
     style="fill:#e70013"
     inkscape:connector-curvature="0" /><rect
     id="rect12"
     height="56.799999"
     width="496"
     style="fill:#fcdc04"
     y="815.79749"
     x="-102.35997" /><rect
     id="rect14"
     height="56.799999"
     width="496"
     style="fill:#e70013"
     y="702.19751"
     x="-102.35997" /><rect
     id="rect16"
     height="56.799999"
     width="496"
     style="fill:#fcdc04"
     y="645.39746"
     x="-102.35997" /><polygon
     id="polygon18-6"
     points="381.6,361.6 496,361.6 496,304.8 314.4,304.8 "
     style="fill:#dbbc07"
     transform="translate(-102.35997,510.99749)" /><polygon
     id="polygon20-6"
     points="248,248 496,248 496,191.2 181.6,191.2 "
     style="fill:#d30b0b"
     transform="translate(-102.35997,510.99749)" /><polygon
     id="polygon22"
     points="181.6,191.2 496,191.2 496,134.4 114.4,134.4 "
     style="fill:#dbbc07"
     transform="translate(-102.35997,510.99749)" /><polygon
     id="polygon24"
     points="419.2,191.2 496,214.4 496,191.2 "
     style="fill:#c10000"
     transform="translate(-102.35997,510.99749)" /><polygon
     id="polygon26"
     points="419.2,191.2 496,191.2 496,134.4 233.6,134.4 "
     style="fill:#c1a20a"
     transform="translate(-102.35997,510.99749)" /><path
     id="path28"
     d="m 393.64003,880.59749 c 0,27.2 -21.6,48.8 -48,48.8 H -54.359973 c -26.4,0 -47.999997,-21.6 -47.999997,-48.8"
     style="fill:#c10000"
     inkscape:connector-curvature="0" /><circle
     id="circle30"
     r="70.400002"
     cy="758.9975"
     cx="145.64003"
     style="fill:#ffffff" /><path
     id="path32"
     d="m 145.64003,688.59749 c 39.2,0 70.4,32 70.4,70.4 0,39.2 -32,70.4 -70.4,70.4"
     style="fill:#bfbcac"
     inkscape:connector-curvature="0" /><path
     id="path34"
     d="m 172.84003,756.59749 c 0,-0.8 -0.8,-0.8 -0.8,-0.8 -2.4,-0.8 -22.4,-10.4 -26.4,-12.8 -1.6,-0.8 -3.2,-0.8 -4,-0.8 v 0 c 0,0 -3.2,-13.6 3.2,-20 7.2,-5.6 6.4,-12 6.4,-12 v 0 c 0.8,0 7.2,-1.6 7.2,-1.6 -0.8,-3.2 -1.6,-5.6 -4.8,-8.8 v 0 c -4.8,-6.4 -14.4,-5.6 -14.4,-5.6 l -1.6,8 v 0 c 0,0 0.8,-8.8 0.8,-9.6 -4.8,0 -8,1.6 -9.6,3.2 l 4.8,8.8 v 0 0 c -4,4.8 -1.6,8 -1.6,8 0,0 -10.4,3.2 -10.4,4.8 0,0 0,0 0,0.8 v 0 0 c 1.6,0.8 11.2,-0.8 11.2,-0.8 v 0 0 c -0.8,0.8 -5.6,5.6 -0.8,7.2 v 0 0.8 c 0,0 -23.2,20.8 -5.6,39.2 l 0.8,-0.8 c 0,0 6.4,8 12.8,9.6 4.8,4.8 5.6,5.6 5.6,5.6 0,0.8 0.8,9.6 0,12 -1.6,-0.8 -16.8,-0.8 -19.2,0 -2.4,0.8 -10.4,0 -8,13.6 1.6,-3.2 3.2,-6.4 3.2,-6.4 0,0 0,4.8 1.6,6.4 0,-4.8 1.6,-8 1.6,-8 0,0 0.8,5.6 1.6,6.4 0.8,0.8 0.8,-8.8 8,-8 6.4,0.8 11.2,0.8 11.2,0.8 0,0 2.4,19.2 1.6,20.8 -4.8,-0.8 -16,0.8 -16.8,3.2 6.4,0 9.6,0 9.6,0 0,0 -5.6,4.8 -4,8 0,0 8.8,-10.4 25.6,-8 -2.4,-4 -11.2,-4 -11.2,-4 0,0 -2.4,-19.2 -0.8,-20.8 2.4,-0.8 10.4,0 10.4,0 0.8,0 3.2,-3.2 1.6,-4.8 -1.6,-1.6 -6.4,-9.6 -4,-10.4 1.6,-1.6 12,0.8 12,0.8 l -5.6,-7.2 c 5.6,4.8 8,11.2 8,11.2 0,0 0,-0.8 0,-2.4 0.8,2.4 0.8,4.8 -0.8,7.2 5.6,-4 4,-10.4 4,-10.4 0,0 4.8,12 -6.4,18.4 1.6,0.8 1.6,0.8 1.6,0.8 l -0.8,-0.8 c 0,0 -0.8,1.6 6.4,-2.4 -2.4,1.6 -2.4,3.2 -2.4,3.2 0,0 0.8,1.6 5.6,-2.4 -4,4 -4.8,6.4 -4.8,6.4 10.4,-1.6 32,-33.6 -1.6,-45.6 z"
     inkscape:connector-curvature="0" /></g></svg>