<?xml version="1.0" encoding="UTF-8" standalone="no"?>
<!-- Generator: Adobe Illustrator 19.0.0, SVG Export Plug-In . SVG Version: 6.00 Build 0)  -->

<svg
   xmlns:dc="http://purl.org/dc/elements/1.1/"
   xmlns:cc="http://creativecommons.org/ns#"
   xmlns:rdf="http://www.w3.org/1999/02/22-rdf-syntax-ns#"
   xmlns:svg="http://www.w3.org/2000/svg"
   xmlns="http://www.w3.org/2000/svg"
   xmlns:sodipodi="http://sodipodi.sourceforge.net/DTD/sodipodi-0.dtd"
   xmlns:inkscape="http://www.inkscape.org/namespaces/inkscape"
   version="1.1"
   id="Layer_1"
   x="0px"
   y="0px"
   viewBox="0 0 1920 1080"
   xml:space="preserve"
   sodipodi:docname="FLAG_FRANCE.svg"
   width="1920"
   height="1080"
   inkscape:version="0.92.3 (2405546, 2018-03-11)"><metadata
   id="metadata61"><rdf:RDF><cc:Work
       rdf:about=""><dc:format>image/svg+xml</dc:format><dc:type
         rdf:resource="http://purl.org/dc/dcmitype/StillImage" /><dc:title></dc:title></cc:Work></rdf:RDF></metadata><defs
   id="defs59" /><sodipodi:namedview
   pagecolor="#ffffff"
   bordercolor="#666666"
   borderopacity="1"
   objecttolerance="10"
   gridtolerance="10"
   guidetolerance="10"
   inkscape:pageopacity="0"
   inkscape:pageshadow="2"
   inkscape:window-width="1920"
   inkscape:window-height="1017"
   id="namedview57"
   showgrid="false"
   inkscape:zoom="0.47580645"
   inkscape:cx="248"
   inkscape:cy="248"
   inkscape:window-x="-8"
   inkscape:window-y="-8"
   inkscape:window-maximized="1"
   inkscape:current-layer="Layer_1" />











<g
   id="g883"
   transform="matrix(1.2096774,0,0,1.2096774,660,-466.4516)"><rect
     id="rect2"
     height="336"
     width="176"
     style="fill:#ffffff"
     y="664"
     x="160" /><path
     inkscape:connector-curvature="0"
     id="path4"
     d="M 160,664 H 48 C 21.6,664 0,683.2 0,710.4 v 243.2 c 0,27.2 21.6,46.4 48,46.4 h 112 z"
     style="fill:#3757a6" /><path
     inkscape:connector-curvature="0"
     id="path6"
     d="M 448,664 H 336 v 336 h 112 c 26.4,0 48,-19.2 48,-46.4 V 710.4 C 496,683.2 474.4,664 448,664 Z"
     style="fill:#ef4f4e" /><path
     inkscape:connector-curvature="0"
     id="path8"
     d="M 448,664 H 336 v 240.8 l 110.4,95.2 c 26.4,0 49.6,-19.2 49.6,-46.4 V 710.4 C 496,683.2 474.4,664 448,664 Z"
     style="fill:#dd4545" /><polygon
     transform="translate(0,584)"
     id="polygon10"
     points="160,175.2 336,320.8 336,80 160,80 "
     style="fill:#e2f2f1" /><polygon
     transform="translate(0,584)"
     id="polygon12"
     points="48,80 160,175.2 160,80 "
     style="fill:#2a4d93" /><path
     inkscape:connector-curvature="0"
     id="path14"
     d="m 336,1000 h 112 c 26.4,0 48,-16 48,-48 H 336 Z"
     style="fill:#cc3e3e" /><rect
     id="rect16"
     height="48"
     width="176"
     style="fill:#d6eae8"
     y="952"
     x="160" /><path
     inkscape:connector-curvature="0"
     id="path18"
     d="m 0,952 c 0,32 21.6,48 48,48 h 112 v -48 z"
     style="fill:#133970" /><path
     inkscape:connector-curvature="0"
     id="path20"
     d="M 448,664 H 336 v 84.8 l 160,49.6 v -88 C 496,683.2 474.4,664 448,664 Z"
     style="fill:#cc3e3e" /><polygon
     transform="translate(0,584)"
     id="polygon22"
     points="160,112.8 336,164.8 336,80 160,80 "
     style="fill:#d6eae8" /><polygon
     transform="translate(0,584)"
     id="polygon24"
     points="48,80 160,112.8 160,80 "
     style="fill:#133970" /></g>
<g
   id="g26"
   transform="translate(0,584)">
</g>
<g
   id="g28"
   transform="translate(0,584)">
</g>
<g
   id="g30"
   transform="translate(0,584)">
</g>
<g
   id="g32"
   transform="translate(0,584)">
</g>
<g
   id="g34"
   transform="translate(0,584)">
</g>
<g
   id="g36"
   transform="translate(0,584)">
</g>
<g
   id="g38"
   transform="translate(0,584)">
</g>
<g
   id="g40"
   transform="translate(0,584)">
</g>
<g
   id="g42"
   transform="translate(0,584)">
</g>
<g
   id="g44"
   transform="translate(0,584)">
</g>
<g
   id="g46"
   transform="translate(0,584)">
</g>
<g
   id="g48"
   transform="translate(0,584)">
</g>
<g
   id="g50"
   transform="translate(0,584)">
</g>
<g
   id="g52"
   transform="translate(0,584)">
</g>
<g
   id="g54"
   transform="translate(0,584)">
</g>
</svg>