<?xml version="1.0" encoding="UTF-8" standalone="no"?>
<!-- Generator: Adobe Illustrator 19.0.0, SVG Export Plug-In . SVG Version: 6.00 Build 0)  -->

<svg
   xmlns:dc="http://purl.org/dc/elements/1.1/"
   xmlns:cc="http://creativecommons.org/ns#"
   xmlns:rdf="http://www.w3.org/1999/02/22-rdf-syntax-ns#"
   xmlns:svg="http://www.w3.org/2000/svg"
   xmlns="http://www.w3.org/2000/svg"
   xmlns:sodipodi="http://sodipodi.sourceforge.net/DTD/sodipodi-0.dtd"
   xmlns:inkscape="http://www.inkscape.org/namespaces/inkscape"
   version="1.1"
   id="Capa_1"
   x="0px"
   y="0px"
   viewBox="0 0 1920 1080"
   xml:space="preserve"
   sodipodi:docname="FLAG_ITALY.svg"
   width="1920"
   height="1080"
   inkscape:version="0.92.3 (2405546, 2018-03-11)"><metadata
   id="metadata57"><rdf:RDF><cc:Work
       rdf:about=""><dc:format>image/svg+xml</dc:format><dc:type
         rdf:resource="http://purl.org/dc/dcmitype/StillImage" /><dc:title></dc:title></cc:Work></rdf:RDF></metadata><defs
   id="defs55" /><sodipodi:namedview
   pagecolor="#ffffff"
   bordercolor="#666666"
   borderopacity="1"
   objecttolerance="10"
   gridtolerance="10"
   guidetolerance="10"
   inkscape:pageopacity="0"
   inkscape:pageshadow="2"
   inkscape:window-width="1920"
   inkscape:window-height="1017"
   id="namedview53"
   showgrid="false"
   inkscape:zoom="0.33644597"
   inkscape:cx="335.55804"
   inkscape:cy="451.17688"
   inkscape:window-x="1912"
   inkscape:window-y="-8"
   inkscape:window-maximized="1"
   inkscape:current-layer="Capa_1" />








<g
   id="g22"
   transform="translate(0,584)">
</g>
<g
   id="g24"
   transform="translate(0,584)">
</g>
<g
   id="g26"
   transform="translate(0,584)">
</g>
<g
   id="g28"
   transform="translate(0,584)">
</g>
<g
   id="g30"
   transform="translate(0,584)">
</g>
<g
   id="g32"
   transform="translate(0,584)">
</g>
<g
   id="g34"
   transform="translate(0,584)">
</g>
<g
   id="g36"
   transform="translate(0,584)">
</g>
<g
   id="g38"
   transform="translate(0,584)">
</g>
<g
   id="g40"
   transform="translate(0,584)">
</g>
<g
   id="g42"
   transform="translate(0,584)">
</g>
<g
   id="g44"
   transform="translate(0,584)">
</g>
<g
   id="g46"
   transform="translate(0,584)">
</g>
<g
   id="g48"
   transform="translate(0,584)">
</g>
<g
   id="g50"
   transform="translate(0,584)">
</g>
<g
   id="g979"
   transform="matrix(1.2096774,0,0,1.2096774,1251.2321,-442.86037)"><rect
     id="rect2"
     height="336"
     width="176"
     style="fill:#ebf7f7"
     y="644.49792"
     x="-328.75189" /><path
     id="path4-2"
     d="m -328.75188,644.49791 h -112 c -26.4,0 -48,19.2 -48,46.4 v 243.2 c 0,27.2 21.6,46.4 48,46.4 h 112 z"
     style="fill:#359846"
     inkscape:connector-curvature="0" /><path
     id="path6-8"
     d="M -40.751881,644.49791 H -152.75188 v 336 h 111.999999 c 26.4,0 48.0000004,-19.2 48.0000004,-46.4 v -243.2 c 0,-27.2 -21.6000004,-46.4 -48.0000004,-46.4 z"
     style="fill:#ef4c4c"
     inkscape:connector-curvature="0" /><path
     id="path8-4"
     d="M -40.751881,644.49791 H -152.75188 v 240.8 l 110.399999,95.2 c 26.4,0 49.6000004,-19.2 49.6000004,-46.4 v -243.2 c 0,-27.2 -21.6000004,-46.4 -48.0000004,-46.4 z"
     style="fill:#dd4545"
     inkscape:connector-curvature="0" /><polygon
     id="polygon10"
     points="160,175.2 336,320.8 336,80 160,80 "
     style="fill:#e2f2f1"
     transform="translate(-488.75188,564.49791)" /><polygon
     id="polygon12"
     points="48,80 160,175.2 160,80 "
     style="fill:#258933"
     transform="translate(-488.75188,564.49791)" /><path
     id="path14"
     d="m -152.75188,980.49791 h 111.999999 c 26.4,0 48.0000004,-16 48.0000004,-48 H -152.75188 Z"
     style="fill:#cc3e3e"
     inkscape:connector-curvature="0" /><rect
     id="rect16"
     height="48"
     width="176"
     style="fill:#d6eae8"
     y="932.49792"
     x="-328.75189" /><path
     id="path18"
     d="m -488.75188,932.49791 c 0,32 21.6,48 48,48 h 112 v -48 z"
     style="fill:#15721e"
     inkscape:connector-curvature="0" /><path
     id="path20"
     d="M -40.751881,644.49791 H -152.75188 v 84.8 l 159.9999994,49.6 v -88 c 0,-27.2 -21.6000004,-46.4 -48.0000004,-46.4 z"
     style="fill:#cc3e3e"
     inkscape:connector-curvature="0" /><polygon
     id="polygon22"
     points="160,112.8 336,164.8 336,80 160,80 "
     style="fill:#d6eae8"
     transform="translate(-488.75188,564.49791)" /><polygon
     id="polygon24"
     points="48,80 160,112.8 160,80 "
     style="fill:#15721e"
     transform="translate(-488.75188,564.49791)" /></g></svg>