<?xml version="1.0" encoding="UTF-8" standalone="no"?>
<!-- Generator: Adobe Illustrator 19.0.0, SVG Export Plug-In . SVG Version: 6.00 Build 0)  -->

<svg
   xmlns:dc="http://purl.org/dc/elements/1.1/"
   xmlns:cc="http://creativecommons.org/ns#"
   xmlns:rdf="http://www.w3.org/1999/02/22-rdf-syntax-ns#"
   xmlns:svg="http://www.w3.org/2000/svg"
   xmlns="http://www.w3.org/2000/svg"
   xmlns:sodipodi="http://sodipodi.sourceforge.net/DTD/sodipodi-0.dtd"
   xmlns:inkscape="http://www.inkscape.org/namespaces/inkscape"
   version="1.1"
   id="Capa_1"
   x="0px"
   y="0px"
   viewBox="0 0 1920 1080"
   xml:space="preserve"
   sodipodi:docname="FLAG_GUATEMALA.svg"
   width="1920"
   height="1080"
   inkscape:version="0.92.3 (2405546, 2018-03-11)"><metadata
   id="metadata135"><rdf:RDF><cc:Work
       rdf:about=""><dc:format>image/svg+xml</dc:format><dc:type
         rdf:resource="http://purl.org/dc/dcmitype/StillImage" /><dc:title></dc:title></cc:Work></rdf:RDF></metadata><defs
   id="defs133" /><sodipodi:namedview
   pagecolor="#ffffff"
   bordercolor="#666666"
   borderopacity="1"
   objecttolerance="10"
   gridtolerance="10"
   guidetolerance="10"
   inkscape:pageopacity="0"
   inkscape:pageshadow="2"
   inkscape:window-width="1920"
   inkscape:window-height="1017"
   id="namedview131"
   showgrid="false"
   inkscape:zoom="0.4609375"
   inkscape:cx="256"
   inkscape:cy="256"
   inkscape:window-x="-8"
   inkscape:window-y="-8"
   inkscape:window-maximized="1"
   inkscape:current-layer="Capa_1" />















<g
   id="g991"
   transform="matrix(1.171875,0,0,1.171875,660,-425.62502)"><rect
     id="rect2"
     height="351.79401"
     width="175.897"
     style="fill:#ffffff"
     y="648.10303"
     x="167.63901" /><polygon
     transform="translate(0,568)"
     id="polygon4"
     points="167.639,180.852 344.361,331.148 344.361,80.103 167.639,80.103 "
     style="fill:#dde7ed" /><g
     transform="translate(0,568)"
     id="g10">
	<rect
   id="rect6"
   height="50.374001"
   width="175.897"
   style="fill:#c9dae2"
   y="381.52301"
   x="167.63901" />
	<polygon
   id="polygon8"
   points="167.639,116.439 344.361,170.116 344.361,80.103 167.639,80.103 "
   style="fill:#c9dae2" />
</g><g
     transform="translate(0,568)"
     id="g16">
	<path
   inkscape:connector-curvature="0"
   id="path12"
   d="M 167.639,80.103 H 49.548 C 22.297,80.103 0,102.4 0,130.477 v 251.045 c 0,28.077 22.297,50.374 49.548,50.374 H 168.464 V 80.103 Z"
   style="fill:#4997d0" />
	<path
   inkscape:connector-curvature="0"
   id="path14"
   d="m 462.452,80.103 h -118.09 v 351.794 h 118.09 C 489.704,431.897 512,409.6 512,381.523 V 130.477 C 512,102.4 489.703,80.103 462.452,80.103 Z"
   style="fill:#4997d0" />
</g><g
     transform="translate(0,568)"
     id="g22">
	<path
   inkscape:connector-curvature="0"
   id="path18"
   d="m 462.452,80.103 h -118.09 v 251.045 l 118.09,100.748 c 27.252,0 49.548,-22.297 49.548,-50.374 V 130.477 C 512,102.4 489.703,80.103 462.452,80.103 Z"
   style="fill:#3789bc" />
	<polygon
   id="polygon20"
   points="49.548,80.103 167.639,180.852 167.639,80.103 "
   style="fill:#3789bc" />
</g><g
     transform="translate(0,568)"
     id="g32">
	<path
   inkscape:connector-curvature="0"
   id="path24"
   d="m 344.361,431.897 h 118.09 c 27.252,0 49.548,-22.297 49.548,-50.374 H 344.361 Z"
   style="fill:#257aa5" />
	<path
   inkscape:connector-curvature="0"
   id="path26"
   d="m 0,381.523 c 0,28.077 22.297,50.374 49.548,50.374 h 118.916 v -50.374 z"
   style="fill:#257aa5" />
	<path
   inkscape:connector-curvature="0"
   id="path28"
   d="m 462.452,80.103 h -118.09 v 90.013 L 512,221.316 V 130.477 C 512,102.4 489.703,80.103 462.452,80.103 Z"
   style="fill:#257aa5" />
	<polygon
   id="polygon30"
   points="49.548,80.103 167.639,116.439 167.639,80.103 "
   style="fill:#257aa5" />
</g><g
     transform="translate(0,568)"
     id="g70">
	<path
   inkscape:connector-curvature="0"
   id="path34"
   d="m 260.129,318.761 c -0.826,-0.826 -1.652,-1.652 -2.477,-1.652 -4.955,-2.477 -9.084,-4.129 -14.865,-4.955 0,-0.826 -0.826,-1.652 -1.652,-2.477 0.826,-0.826 0.826,-3.303 0,-4.955 v 0 0 c -1.652,-4.129 -4.955,-9.084 -11.561,-13.213 v 0 0 c 0,0.826 1.652,4.955 3.303,9.084 -1.652,-2.477 -4.955,-4.129 -8.258,-5.781 v 0 c 0,1.652 6.606,14.039 11.561,16.516 l 0.826,-0.826 1.652,2.477 c -1.652,-0.826 -2.477,-1.652 -4.129,-2.477 -2.477,-0.826 -4.955,-1.652 -6.606,-2.477 0,0 0,0 -0.826,0 -1.652,-0.826 -2.477,-0.826 -4.129,-1.652 0,0 0,0 -0.826,0 0.826,0 0.826,0.826 1.652,0 0.826,-5.781 -4.129,-18.168 -5.781,-18.994 v 0 0 c -1.652,8.258 0,14.039 2.477,17.342 0,0 0,0 0,0.826 -1.652,-1.652 -4.129,-1.652 -4.955,-3.303 -2.477,-2.477 -4.129,-4.129 -6.606,-6.606 0.826,0 0.826,-0.826 0.826,-0.826 0.826,-1.652 0,-5.781 -3.303,-9.91 0,-2.477 0,-6.606 -2.477,-11.561 v 0 0 c -0.826,1.652 -1.652,11.561 0,15.69 0.826,0 0.826,0 1.652,-0.826 v 0 c 0.826,2.477 1.652,5.781 3.303,7.432 -3.303,-3.303 -6.606,-7.432 -9.084,-11.561 0,-0.826 0,-1.652 0,-2.477 0.826,0 1.652,-0.826 1.652,-1.652 1.652,-2.477 1.652,-9.084 -2.477,-15.69 v 0 0 c 0,0.826 -0.826,3.303 -0.826,6.606 0,-1.652 -0.826,-4.129 -1.652,-6.606 1.652,-2.477 2.477,-5.781 3.303,-9.91 v 0 0 c -0.826,0 -3.303,3.303 -4.955,5.781 0,0 0,0 0,-0.826 v 0 0 0 c 0,0 0,0.826 0,1.652 -0.826,0.826 -0.826,2.477 -1.652,3.303 -0.826,-1.652 -0.826,-3.303 -0.826,-4.955 2.477,0.826 6.606,-4.129 7.432,-13.213 0,-1.652 0,-2.477 0,-4.129 -0.826,0 -1.652,2.477 -3.303,4.129 0.826,-2.477 0.826,-4.955 0.826,-9.084 2.477,-1.652 4.955,-3.303 7.432,-6.606 -1.652,0 -8.258,2.477 -12.387,4.955 0,-0.826 0,-2.477 0.826,-3.303 0.826,-0.826 1.652,-0.826 2.477,-1.652 1.652,0.826 4.129,0 6.606,-1.652 2.477,-1.652 5.781,-5.781 8.258,-10.735 -0.826,0 -4.129,1.652 -7.432,4.129 1.652,-2.477 4.129,-6.606 4.955,-10.735 v 0 0 c -1.652,0.826 -11.561,9.084 -12.387,14.865 v 0 c 0,0 -0.826,0.826 -1.652,0.826 0.826,-4.129 2.477,-7.432 4.129,-11.561 h 0.826 c 0,0 0,0 0.826,0 0.826,0 0.826,0 0.826,-0.826 0,-0.826 0,-0.826 -0.826,-0.826 -0.826,0 -0.826,0 -0.826,0.826 v 0 h -0.826 c 0,-0.826 0.826,-1.652 1.652,-2.477 0.826,-0.826 2.477,-1.652 3.303,-2.477 l -3.303,2.477 c 1.652,-2.477 2.477,-4.955 4.129,-7.432 3.303,-2.477 6.606,-11.561 6.606,-13.213 -0.826,0.826 -1.652,0.826 -1.652,1.652 -4.955,4.129 -6.606,9.91 -4.955,10.735 -1.652,2.477 -3.303,4.955 -4.955,7.432 v -2.477 c 0,0.826 0,1.652 0,3.303 0,0.826 -0.826,1.652 -0.826,1.652 v -0.826 c 0,0 0.826,0 0.826,-0.826 0,-0.826 0,-0.826 -0.826,-0.826 -0.826,0 -0.826,0 -0.826,0.826 0,0.826 0,0.826 0.826,0.826 v 0 0.826 c -0.826,1.652 -1.652,4.129 -2.477,5.781 v -4.955 h 0.826 c 1.652,-4.955 0.826,-16.516 0,-18.168 v 0 0 c -4.129,9.084 -3.303,16.516 -0.826,17.342 v 0 c 0,1.652 0,4.129 0,5.781 v 0.826 l -0.826,-0.826 c 0,0 0,0 0,-0.826 0,-0.826 0,-0.826 -0.826,-0.826 -0.826,0 -0.826,0 -0.826,0.826 0,0.826 0,0.826 0.826,0.826 0,0 0,0 0.826,0 0,0.826 0.826,0.826 0.826,0.826 -0.826,2.477 -1.652,4.955 -2.477,7.432 0,-0.826 -0.826,-1.652 -0.826,-2.477 0,0 0,0 0.826,0 0.826,-5.781 -4.129,-17.342 -5.781,-18.168 v 0 0 c -1.652,9.084 0.826,16.516 3.303,18.168 0.826,0 0.826,0.826 1.652,0.826 l 0.826,2.477 c 0,0.826 -0.826,1.652 -0.826,2.477 0,0.826 -0.826,2.477 -0.826,3.303 -0.826,-2.477 -2.477,-6.606 -6.606,-11.561 0,0.826 0,1.652 0,2.477 0,4.129 1.652,7.432 3.303,9.084 -0.826,4.129 -0.826,7.432 0,10.735 -2.477,-4.129 -5.781,-8.258 -7.432,-9.084 v 0 0 c 0.826,10.735 5.781,17.342 9.084,18.168 0.826,0 0.826,0 1.652,0 0,3.303 0.826,6.606 1.652,9.91 l -2.477,-3.303 v 0 c -2.477,-4.129 -10.735,-9.91 -12.387,-9.91 v 0 c 1.652,4.129 4.129,6.606 6.606,9.084 2.477,2.478 4.955,2.477 5.781,1.652 0.826,1.652 1.652,2.477 2.477,3.303 0,0.826 0,0.826 0,1.652 l -1.652,-0.826 v 0 c 0,-0.826 -0.826,-0.826 -0.826,-0.826 -0.826,0 -0.826,0.826 -0.826,0.826 0,0.826 0.826,0.826 0.826,0.826 0,0 0.826,0 0.826,-0.826 0.826,0 0.826,0.826 1.652,0.826 1.652,4.129 3.303,7.432 4.955,11.561 -0.826,-0.826 -1.652,-1.652 -2.477,-2.477 v 0 c 0,-0.826 -0.826,-1.652 -1.652,-3.303 h 0.826 c 0.826,-1.652 -1.652,-4.129 -5.781,-4.955 -2.477,-1.652 -4.955,-3.303 -5.781,-3.303 v 0 0 c 0,0.826 0.826,2.477 1.652,3.303 -1.652,0 -4.129,0 -6.606,0.826 v 0 0 0 c 0.826,0.826 4.955,2.477 9.084,4.129 2.477,3.303 4.955,4.955 7.432,4.955 0.826,0 0.826,0 0.826,-0.826 l 2.477,2.477 c 0.826,0.826 0.826,1.652 1.652,3.303 0,-1.652 -0.826,-1.652 -1.652,-1.652 v 0 c -3.303,-2.477 -14.039,-4.129 -15.69,-3.303 v 0 0 c 6.606,4.955 12.387,5.781 14.865,4.129 l 0.826,-0.826 1.652,0.826 v 0.826 c 1.652,3.303 4.129,6.606 6.606,9.084 -4.955,-3.303 -11.561,-5.781 -13.213,-5.781 v 0 0 c 5.781,7.432 12.387,10.735 14.865,9.084 0,0 0.826,0 0.826,-0.826 1.652,1.652 4.129,4.129 6.606,5.781 -4.955,-3.303 -16.516,-4.129 -18.168,-4.129 v 0 0 c 7.432,6.606 14.865,7.432 18.168,5.781 0.826,0 0.826,-0.826 0.826,-1.652 1.652,0.826 4.129,1.652 4.955,3.303 -5.781,-2.477 -19.819,-0.826 -21.471,0.826 v 0 0 c 9.91,4.955 17.342,4.129 20.645,1.652 0.826,-0.826 0.826,-1.652 0.826,-2.477 0.826,0.826 1.652,0.826 1.652,0.826 0.826,0 1.652,0.826 1.652,0.826 -2.477,0 -6.606,1.652 -9.91,4.955 v 0 0 c 0.826,0 6.606,0 10.735,-1.652 -5.781,2.477 -12.387,7.432 -13.213,8.258 v 0 0 c 11.561,0 18.994,-4.955 19.819,-8.258 0,-0.826 0,-0.826 0,-1.652 0.826,0 2.477,0.826 3.303,0.826 1.652,0.826 3.303,2.477 4.129,2.477 v 0 l -4.129,0.826 v 0 0 0 c -4.955,0 -14.865,6.606 -16.516,8.258 2.477,0 4.955,0 6.606,-0.826 6.606,-1.652 10.735,-4.955 9.91,-7.432 1.652,0 2.477,-0.826 4.129,-0.826 6.606,0.826 11.561,2.477 17.342,4.955 0.826,0.826 1.652,0.826 2.477,1.652 z m -66.064,-87.535 c 0,-1.652 0.826,-2.477 0.826,-4.129 l 1.652,-0.826 h 0.826 c 0,0 0.826,0 1.652,0 -1.652,1.652 -2.477,2.477 -3.303,3.303 v 0 0 c 0,0 0,0 0.826,0.826 l -2.479,0.826 c 0,0.826 0,0.826 0,0 z m -2.478,20.645 c 0,0.826 0,0.826 0,1.652 0,-0.826 -0.826,-1.652 -0.826,-2.477 0,-0.001 0.826,-0.001 0.826,0.825 z m 1.652,-14.039 c 0.826,0 1.652,0 2.477,0 -0.826,1.652 -1.652,4.129 -2.477,5.781 0,-0.826 0,-0.826 0,-1.652 0,-1.651 0,-2.477 0,-4.129 z m -0.826,13.213 v 0 c 0.826,0 0.826,-0.826 1.652,-0.826 0,0 0,0 0.826,-0.826 -0.826,0.826 -0.826,2.477 -1.652,3.303 0,0 0,0 -0.826,0 h -0.826 c 0.826,0.001 0.826,-0.825 0.826,-1.651 z m 0,3.303 c 0.826,0 0.826,0.826 0,0 0,0.826 0,0.826 0,1.652 0,0 0,-0.826 0,-1.652 z m 2.477,10.736 h 0.826 c 0,1.652 0,3.303 0.826,4.955 -0.826,-1.652 -1.652,-3.304 -1.652,-4.955 z m 6.607,15.69 c -0.826,-1.652 -1.652,-4.129 -2.477,-5.781 0.826,0 1.652,-0.826 1.652,-2.477 0,2.477 0.826,4.955 0.826,6.606 v 0 l -10e-4,1.652 c 0,0.826 0,0.826 0,0 z m 26.426,28.078 c 0.826,0 1.652,-0.826 1.652,-0.826 0.826,0 0.826,0 1.652,0 -0.827,0 -1.653,0.826 -3.304,0.826 z m 12.387,2.477 v 0 c -0.826,-0.826 -1.652,-1.652 -2.477,-2.477 0,-0.826 0,-1.652 0,-2.477 0.826,0.826 1.652,2.477 2.477,3.303 0,0 0.826,0 0.826,-0.826 l 1.652,2.477 c -0.001,0.826 -1.653,0 -2.478,0 z"
   style="fill:#67923d" />
	<path
   inkscape:connector-curvature="0"
   id="path36"
   d="m 216.361,298.942 c 0.826,0 0.826,-0.826 1.652,-0.826 1.652,-2.477 0,-10.735 -6.606,-18.168 v 0 0 c -0.826,1.652 1.651,14.865 4.954,18.994 z"
   style="fill:#67923d" />
	<path
   inkscape:connector-curvature="0"
   id="path38"
   d="m 199.845,209.755 v 0 c 3.303,-3.303 4.129,-12.387 3.303,-14.039 v 0 0 c -4.954,6.607 -5.78,12.387 -3.303,14.039 z"
   style="fill:#67923d" />
	<path
   inkscape:connector-curvature="0"
   id="path40"
   d="m 203.148,280.774 c -0.826,0 -0.826,0.826 -0.826,0.826 0,0.826 0.826,0.826 0.826,0.826 0,0 0.826,0 0.826,-0.826 0,-0.826 -0.826,-0.826 -0.826,-0.826 z"
   style="fill:#67923d" />
	<path
   inkscape:connector-curvature="0"
   id="path42"
   d="m 199.845,283.252 v 0 c 0,-0.826 -0.826,-0.826 -0.826,-0.826 -0.826,0 -0.826,0.826 -0.826,0.826 0,0 0,0.826 0.826,0.826 0,-10e-4 0.826,-0.826 0.826,-0.826 z"
   style="fill:#67923d" />
	<path
   inkscape:connector-curvature="0"
   id="path44"
   d="m 232.052,305.548 c 0,-0.826 -0.826,-0.826 -0.826,-0.826 l -0.826,0.826 c 0,0.826 0.826,0.826 0.826,0.826 0,0 0.826,0 0.826,-0.826 z"
   style="fill:#67923d" />
	<path
   inkscape:connector-curvature="0"
   id="path46"
   d="m 234.529,311.329 c 0,-0.826 -0.826,-0.826 -0.826,-0.826 0,0 -0.826,0 -0.826,0.826 0,0.826 0.826,0.826 0.826,0.826 z"
   style="fill:#67923d" />
	<path
   inkscape:connector-curvature="0"
   id="path48"
   d="m 309.677,261.781 v 0 c -0.825,0 -0.825,0 0,0 -3.303,8.258 -3.303,14.865 -1.652,18.168 0.826,1.652 1.652,1.652 2.477,1.652 1.653,-5.782 10e-4,-18.169 -0.825,-19.82 z"
   style="fill:#67923d" />
	<path
   inkscape:connector-curvature="0"
   id="path50"
   d="m 320.413,231.226 v 0 0 c 0,0.826 0,0.826 0.826,0.826 0.826,0 0.826,0 0.826,-0.826 0,0 0,-0.826 -0.826,-0.826 2.477,-1.652 5.781,-8.258 4.955,-17.342 v 0 0 c -1.652,0.826 -7.432,12.387 -7.432,18.168 0.825,0 1.651,0 1.651,0 z"
   style="fill:#67923d" />
	<path
   inkscape:connector-curvature="0"
   id="path52"
   d="m 316.284,226.271 c -1.652,-4.129 -9.084,-11.561 -10.735,-12.387 v 0 0 c 1.652,8.258 6.606,13.213 9.91,12.387 z"
   style="fill:#67923d" />
	<path
   inkscape:connector-curvature="0"
   id="path54"
   d="m 332.8,267.561 c -2.477,-0.826 -4.129,-0.826 -6.606,-0.826 v -0.826 0 0 c 0,0 -0.826,0 -1.652,0.826 -4.955,0.826 -7.432,2.477 -7.432,4.129 -0.826,0.826 -1.652,1.652 -2.477,2.477 0.826,-2.477 1.652,-4.129 2.477,-6.606 0.826,-0.826 1.652,-1.652 2.477,-2.477 0.826,0.826 3.303,0 6.606,-1.652 2.477,-1.652 4.955,-4.955 6.606,-9.084 v 0 c -1.652,0 -10.735,6.606 -13.213,10.735 v 0 l -2.477,2.477 c 0.826,-3.303 1.652,-6.606 2.477,-9.91 0.826,-0.826 0.826,-1.652 1.652,-2.477 h 0.826 c 2.477,-0.826 6.606,-5.781 7.432,-14.039 v 0 0 c -0.826,0.826 -3.303,3.303 -4.955,6.606 0.826,-2.477 0.826,-6.606 0.826,-9.91 0,-0.826 0,-1.652 0,-2.477 1.652,-1.652 3.303,-4.129 4.129,-8.258 0,-0.826 0,-0.826 0.826,-1.652 -5.781,4.129 -9.084,9.084 -9.91,10.735 0,-0.826 0,-1.652 -0.826,-3.303 -0.826,-3.303 -1.652,-5.781 -2.477,-9.084 0,-1.652 0.826,-2.477 0.826,-4.129 v 0 c 2.477,-0.826 3.303,-7.432 0,-15.69 v 0 0 c 0,0.826 -0.826,1.652 -0.826,4.129 0,-2.477 -0.826,-6.606 -2.477,-9.91 v 0 0 c -0.826,0.826 -1.652,10.735 0,14.865 v 0 l -0.826,3.303 c 0,-0.826 -0.826,-1.652 -0.826,-2.477 0,-0.826 -0.826,-2.477 -0.826,-3.303 l 0.826,3.303 c -0.826,-0.826 -0.826,-1.652 -1.652,-2.477 0,0 0,0 0.826,-0.826 1.652,-2.477 -0.826,-9.91 -8.258,-15.69 v 0 0 c 0,0.826 1.652,6.606 4.129,10.735 v 0 c 0,0 0,0 0,0.826 0.826,1.652 1.652,3.303 2.477,4.129 1.652,2.477 3.303,5.781 4.129,9.084 l -3.303,-2.477 c 0.826,0.826 2.477,2.477 3.303,2.477 0.826,2.477 1.652,5.781 3.303,9.084 l -0.826,-0.826 0.826,0.826 c 0.826,1.652 0.826,3.303 1.652,4.955 0,0.826 0,1.652 0.826,2.477 -0.826,-0.826 -0.826,-1.652 -1.652,-1.652 v 0 0 0 c -2.477,-4.129 -12.387,-10.735 -14.039,-10.735 2.477,4.955 4.955,8.258 7.432,9.91 2.477,1.652 4.955,2.477 6.606,1.652 l 1.652,1.652 c 0,0.826 0,1.652 0,2.477 -0.826,-0.826 -2.477,-1.652 -4.129,-2.477 l -0.826,-0.826 v 0 0 c 0,0 0,0 0,0.826 -3.303,-1.652 -5.781,-2.477 -6.606,-2.477 2.477,2.477 4.129,4.955 6.606,5.781 0,6.606 1.652,11.561 4.129,13.213 0.826,0.826 0.826,0.826 1.652,0.826 v 0 c 0,2.477 0,5.781 -0.826,8.258 l -1.652,-2.477 v 0 0 0 c 0,-0.826 0,-1.652 0,-2.477 l 0.826,0.826 c 0.826,0 0.826,-0.826 0.826,-0.826 0,-0.826 -0.826,-0.826 -0.826,-0.826 -0.826,0 -0.826,0 -0.826,0.826 v 0 c -1.652,-5.781 -5.781,-13.213 -7.432,-14.039 0,1.652 0,3.303 0,4.129 0.826,9.084 4.955,14.039 7.432,13.213 0.826,0.826 0.826,1.652 1.652,2.477 0,1.652 -0.826,4.129 -1.652,5.781 0,-0.826 -0.826,-1.652 -0.826,-3.303 0,-1.651 0,-3.303 0,-4.129 v 0 0 0 c 0,0.826 -0.826,0.826 -0.826,1.652 -1.652,-2.477 -3.303,-5.781 -3.303,-5.781 v 0 0 c 0,4.129 0.826,7.432 1.652,9.91 -2.477,5.781 -1.652,10.735 0,11.561 -0.826,1.652 -1.652,4.129 -2.477,5.781 -1.652,3.303 -4.129,6.606 -6.606,9.084 v -4.129 c 0,0 0,0 0.826,0 1.652,-4.129 0.826,-14.039 0,-15.69 v 0 0 c -1.652,4.129 -2.477,7.432 -2.477,10.735 v 0 0 0 c -4.955,5.781 -4.955,12.387 -4.129,14.039 0,0 0,0 0.826,0.826 -1.652,1.652 -2.477,2.477 -4.129,4.129 0,0 0,0 -0.826,0.826 3.303,-4.955 4.129,-18.168 3.303,-19.819 v 0 0 c -2.477,3.303 -4.129,6.606 -4.955,9.084 0,-1.652 0,-3.303 -0.826,-4.955 v 0 0 c -1.652,1.652 -6.606,13.213 -5.781,18.994 0.826,0 0.826,0 1.652,0 h -0.826 c -3.303,1.652 -7.432,2.477 -11.561,4.129 -1.652,0.826 -2.477,1.652 -4.129,2.477 l 1.652,-2.477 c 0.826,0 1.652,0 3.303,-0.826 3.303,-1.652 7.432,-7.432 9.91,-15.69 v 0 0 c -0.826,0 -3.303,1.652 -5.781,4.129 0.826,-1.652 0.826,-3.303 1.652,-4.955 v 0 c -1.652,0.826 -11.561,10.735 -13.213,16.516 0,0 0.826,0 0.826,0.826 -1.652,0.826 -1.652,2.477 -2.477,3.303 -4.955,0.826 -9.91,2.477 -14.865,4.955 -0.826,0.826 -1.652,0.826 -2.477,1.652 v 0 l 0.826,0.826 c 0.826,-0.826 1.652,-1.652 2.477,-1.652 4.129,-1.652 8.258,-3.303 12.387,-4.129 0.826,0.826 2.477,0.826 3.303,1.652 -0.826,2.477 3.303,5.781 9.91,7.432 1.652,0.826 4.129,0.826 6.606,0.826 -0.826,-1.652 -10.736,-8.258 -16.516,-8.258 v 0 0 c 0,0 0,0 0,0.826 l -3.303,-1.652 c 1.652,0 3.303,-0.826 5.781,-0.826 0.826,0 0.826,0 1.652,-0.826 l 4.129,0.826 v 0 c 3.303,4.129 14.865,8.258 16.516,8.258 v 0 0 c -1.652,-2.477 -3.303,-4.129 -4.955,-5.781 4.129,0.826 7.432,1.652 9.084,1.652 v 0 0 c -6.606,-6.606 -14.039,-8.258 -16.516,-6.606 l -0.826,0.826 c -2.477,0 -4.129,0 -6.606,0 0.826,-0.826 1.652,-0.826 1.652,-0.826 2.477,-1.652 5.781,-1.652 9.084,-3.303 l 1.652,0.826 c 0,0.826 0.826,1.652 1.652,2.477 3.303,2.477 10.736,2.477 19.819,-1.652 v 0 0 c -1.652,-0.826 -15.69,-3.303 -21.471,-0.826 v 0 c -0.826,0 -0.826,0 -1.652,-0.826 0.826,0 1.652,-0.826 2.477,-0.826 0,0 0.826,-0.826 1.652,-0.826 0.826,-0.826 1.652,-0.826 1.652,-1.652 0.826,0 1.652,0 2.477,0 l 0.826,0.826 c 3.303,1.652 11.561,0.826 20.645,-6.606 v 0 0 c -1.652,-0.826 -16.516,0.826 -21.471,4.955 v 0.826 h -2.477 c 0.826,-0.826 2.477,-0.826 3.303,-2.477 2.477,-2.477 4.129,-4.129 6.606,-6.606 l 0.826,0.826 c 2.477,1.652 9.084,-1.652 14.865,-9.084 v 0 0 c -1.652,0 -8.258,2.477 -13.213,5.781 2.477,-2.477 4.129,-4.955 5.781,-8.258 h 1.652 c 0,0.826 0,0.826 0.826,0.826 2.477,1.652 9.91,0.826 17.342,-4.955 v 0 0 c -1.652,-0.826 -14.039,0.826 -18.168,4.129 v 0 c -0.826,0 -0.826,0 -1.652,0 0,0 0,-0.826 0.826,-0.826 0.826,-1.652 0.826,-2.477 1.652,-4.129 l 0.826,-0.826 v 0 c 0,0.826 0.826,0.826 1.652,0.826 2.477,0 5.781,-2.477 9.084,-7.432 4.126,-5.785 7.429,-7.437 8.255,-7.437 z m -11.561,-13.213 c 0.826,0 0.826,0.826 0,0 l -0.826,2.477 c 0,-1.652 0,-3.303 0,-4.955 v 0 c 0.826,0 1.652,0 2.477,-0.826 -0.825,1.653 -0.825,2.479 -1.651,3.304 z m 0,-4.129 z m -0.826,-14.038 c 0.826,0.826 1.652,0 3.303,-0.826 -0.826,2.477 -2.477,5.781 -3.303,9.084 0,-2.478 0,-5.781 0,-8.258 z m -6.607,-20.646 c 0.826,-0.826 0.826,-2.477 0.826,-3.303 0,0 0,0 0.826,0 0.826,0 0.826,-0.826 1.652,-2.477 0,3.303 -0.826,7.432 0,9.91 0,0 0,0 0.826,0 l -0.826,3.303 c -0.826,-2.478 -1.652,-4.955 -3.304,-7.433 z m 5.781,28.904 c -0.826,-1.652 -1.652,-4.129 -2.477,-5.781 0.826,0 1.652,0 2.477,-0.826 0,1.652 0,4.129 0,6.607 z m -3.303,23.122 v 0 c 0.826,0 0.826,0 0,0 0.826,0 0.826,0 0,0 0.826,0 0.826,0 0,0 0,0.826 0,1.652 -0.826,3.303 0.826,-1.651 0.826,-2.477 0.826,-3.303 z m -44.594,43.768 c -0.826,0 -1.652,0 -2.477,0.826 l 2.477,-3.303 c 0.826,0 1.652,0 1.652,0 v 0 c 0,0 0.826,0 0.826,0.826 0,-0.826 -0.826,0.825 -2.478,1.651 0.826,0 0.826,0 0,0 z m 9.91,0 v 0 0 c -0.826,0 -1.652,0 -1.652,0.826 0,0 -0.826,0 -0.826,0.826 -1.652,-0.826 -3.303,-0.826 -4.955,-0.826 h 0.826 z m 8.258,-8.258 v 0 c 0.826,-1.652 1.652,-3.303 2.477,-4.955 0,0.826 0,0.826 0.826,1.652 0,0.826 0.826,0.826 1.652,0.826 -2.478,0.825 -4.129,1.651 -4.955,2.477 z m 10.736,-8.258 c 1.652,-3.303 1.652,-9.084 1.652,-11.561 0,1.652 0.826,2.477 1.652,3.303 0,0 0.826,0 0.826,0.826 0,1.652 0,2.477 0,4.129 -1.653,0.825 -2.479,1.651 -4.13,3.303 z m 14.038,-17.342 c 0,0 -0.826,0 0,0 0,-0.826 0.826,-1.652 0.826,-3.303 l 2.477,-2.477 v 0 c 0,0 0.826,0 1.652,0 -2.477,1.651 -4.129,3.303 -4.955,5.78 z"
   style="fill:#67923d" />
	<path
   inkscape:connector-curvature="0"
   id="path56"
   d="m 317.935,222.968 v 0 c 0,0 0,0.826 0,0 0.826,0.826 1.652,0.826 1.652,0 0,-0.826 -0.826,-0.826 -1.652,0 0,-0.826 0,-0.826 0,0 z"
   style="fill:#67923d" />
	<circle
   id="circle58"
   r="0.82599998"
   cy="259.30301"
   cx="322.065"
   style="fill:#67923d" />
	<circle
   id="circle60"
   r="0.82599998"
   cy="283.25201"
   cx="307.20001"
   style="fill:#67923d" />
	<circle
   id="circle62"
   r="0.82599998"
   cy="285.729"
   cx="312.155"
   style="fill:#67923d" />
	<circle
   id="circle64"
   r="0.82599998"
   cy="309.677"
   cx="280.77399"
   style="fill:#67923d" />
	<circle
   id="circle66"
   r="0.82599998"
   cy="312.98099"
   cx="275.819"
   style="fill:#67923d" />
	<path
   inkscape:connector-curvature="0"
   id="path68"
   d="m 313.806,218.839 c 0,-0.826 -0.825,-0.826 0,0 -1.652,-0.826 -1.652,-0.826 -1.652,0 v 0 c 10e-4,0 10e-4,0.826 1.652,0 -0.825,0.826 0,0 0,0 z"
   style="fill:#67923d" />
</g><g
     transform="translate(0,568)"
     id="g76">
	<path
   inkscape:connector-curvature="0"
   id="path72"
   d="m 289.032,216.361 v 0 l -2.477,-1.652 v 0 0 l 0.826,-0.826 v 0 c 0,0 0,0 -0.826,-0.826 0,0 0,0 -0.826,0 l -0.826,0.826 c -0.826,0 -0.826,0.826 -0.826,0.826 -4.129,4.129 -7.432,7.432 -11.561,11.561 v 0 -0.826 0 c -9.91,9.084 -18.994,18.168 -28.903,28.077 l -16.516,15.69 c -0.826,0.826 -3.303,2.477 -4.955,3.303 -0.826,0 -0.826,0.826 -1.652,0.826 l -0.826,1.652 c -0.826,0 -1.652,0 -2.477,0 0.826,0.826 0.826,0.826 1.652,0.826 l -0.826,1.652 c 0,0.826 -1.652,2.477 -1.652,3.303 -1.652,1.652 -2.477,3.303 -4.955,4.955 0,0.826 -0.826,0 -1.652,0.826 -1.652,0.826 -2.477,2.477 -4.129,3.303 l -9.084,9.91 c -0.826,0.826 -0.826,0.826 0,1.652 l 4.955,6.606 c 0.826,0.826 1.652,1.652 2.477,0.826 2.477,-4.129 8.258,-9.91 9.91,-14.865 1.652,-2.477 3.303,-8.258 4.129,-9.084 v 0 0 l 0.826,0.826 c 0,0 0,0 0.826,0 h 0.826 c 0.826,0 0.826,0 0.826,0 l 0.826,-0.826 0.826,-0.826 c 0,0 0,-0.826 0,-1.652 V 281.6 c 0,0 0,0 0,-0.826 l -0.826,-0.826 c 1.652,-1.652 3.303,-3.303 4.955,-4.955 0,0 0,0 0.826,-0.826 v 0 c 0,0 0,0 0.826,-0.826 l 0.826,-0.826 c 14.039,-14.865 30.555,-31.381 43.768,-45.419 v 0 l 0.826,-0.826 -0.826,-0.826 c 2.477,-2.477 4.955,-5.781 7.432,-8.258 -0.826,-0.826 0,0 -0.826,-0.826 0.826,-0.826 2.477,-2.477 3.303,-3.303 v 0 c 0,0 0,0 0.826,0 l 1.652,2.477 c 0.826,0.826 0.826,0.826 1.652,0 l 23.123,-21.471 z M 223.794,281.6 h 0.826 l 0.826,0.826 v 0.826 c 0,0 0,0.826 -0.826,0.826 v 0 l -0.826,0.826 h -0.826 c 0,0 0,0 -0.826,0 v 0 c 0,0 0,0 0,-0.826 0,0 0,0 0,-0.826 v 0 l 0.826,-0.826 c 0,0.826 0.826,1.652 1.652,1.652 0,0 0.826,-0.826 0,0 h -0.826 c -0.826,-0.826 -1.652,-1.652 0,-2.478 -0.826,0.826 -0.826,0 0,0 z"
   style="fill:#8c959d" />
	<path
   inkscape:connector-curvature="0"
   id="path74"
   d="m 309.677,303.071 -8.258,-10.736 c -0.826,-0.826 -2.477,-2.477 -3.303,-3.303 -0.826,0 -0.826,0 -1.652,-0.826 -1.652,-1.652 -3.303,-3.303 -4.129,-4.955 v 0 c 0,0 -1.652,-2.477 -1.652,-3.303 v 0 0 0 l -0.826,-1.652 c 0.826,0 1.652,-0.826 1.652,-0.826 -0.826,0 -1.652,0.826 -2.477,0 l -0.826,-1.652 c 0,0 -0.826,-0.826 -1.652,-0.826 -1.652,-0.826 -4.129,-2.477 -4.955,-3.303 l -15.69,-16.516 c -9.91,-9.91 -18.168,-19.819 -27.252,-29.729 v 0 l -0.826,-0.826 v 0 c -3.303,-4.129 -7.432,-7.432 -10.735,-11.561 0,-0.826 0,-0.826 -0.826,-0.826 l -0.826,-0.826 c 0,0 0,0 -0.826,0 0,0 0,0 -0.826,0.826 v 0 l 0.826,0.826 v 0 0 1.652 h -0.826 l -22.297,-20.645 22.297,22.297 c 0,0 0.826,0 1.652,0 l 2.477,-2.477 c 0,0 0,0 0.826,0 v 0 c 0.826,0.826 1.652,2.477 3.303,3.303 -0.826,0.826 0,0 -0.826,0.826 2.477,2.477 4.955,5.781 7.432,8.258 v 0 l 0.826,0.826 v 0 c 12.387,14.865 28.077,32.206 41.29,47.897 l 0.826,0.826 c 0,0 0,0.826 0.826,0.826 0,0 0,0 0.826,0.826 0.826,0.826 2.477,2.477 3.303,3.303 0.826,0.826 0.826,0.826 1.652,1.652 0,0 -0.826,0 -0.826,0.826 0,0 0,0 -0.826,0.826 0,0 0,0 0,0.826 0,0.826 0,0.826 0,1.652 0,0 0,0.826 0.826,0.826 l 0.826,0.826 c 0,0 0.826,0 0.826,0.826 h 0.826 c 0,0 0,0 0.826,0 l 0.826,-0.826 v 0 c 0.826,1.652 2.477,6.606 3.303,9.91 1.652,4.955 7.432,11.561 9.91,15.69 0,0.826 1.652,0 2.477,-0.826 l 4.955,-6.606 c -1.651,-2.48 -1.651,-3.306 -2.477,-3.306 z m -24.774,-18.994 v -0.826 c 0,0 0,-0.826 0.826,-0.826 h 0.826 l 0.826,0.826 c 0,0 0,0.826 -0.826,0.826 h -0.826 v 0 c 0.826,0 1.652,-0.826 1.652,-1.652 0,0 0,0.826 0.826,0.826 0,0 0,0 0,0.826 0,0 0,0 0,0.826 v 0 c 0,0 0,0 -0.826,0 h -0.826 l -0.826,-0.826 c 0,0 -0.826,0.826 -0.826,0 z"
   style="fill:#8c959d" />
</g><path
     inkscape:connector-curvature="0"
     id="path78"
     d="m 289.858,870.245 c 0,0 0,-0.826 0,0 0,-0.826 0,-0.826 0,0 0,-0.826 0,-1.652 -0.826,-1.652 v 0 0 c 0,0 0,-0.826 -0.826,-0.826 v 0 c 0,0 0,-0.826 -0.826,-0.826 v 0 c 0,0 0,-0.826 -0.826,-0.826 0,0 0,0 -0.826,0 v 0 c -0.826,-0.826 -2.477,-1.652 -3.303,-1.652 v 0 c -1.652,0 -2.477,0.826 -4.129,1.652 -15.69,-17.342 -30.555,-32.206 -47.897,-43.768 -2.477,-1.652 -8.258,-4.129 -10.735,-4.129 v 0 0 0 0 0 c 2.477,1.652 5.781,3.303 8.258,4.955 2.477,1.652 4.955,3.303 7.432,5.781 4.955,4.129 9.91,8.258 14.865,12.387 4.955,4.129 9.084,9.084 13.213,13.213 4.129,4.129 8.258,9.084 11.561,13.213 v 0 c 0,0 0,0 -0.826,0 -0.826,0 -0.826,0 -0.826,0.826 0,0.826 0,1.652 0.826,2.477 0.826,0.826 0.826,0.826 1.652,0.826 0.826,0 0.826,-0.826 1.652,-0.826 v 0 0 0 c 0,0.826 0.826,0.826 0.826,1.652 v 0 0 l 0.826,0.826 v 0 0 c 0.826,0.826 1.652,1.652 2.477,2.477 v 0 0 l 0.826,0.826 v 0 0 c 0.826,0.826 1.652,1.652 2.477,2.477 1.652,0 2.477,-0.826 1.652,-1.652 l -0.826,-0.826 v 0 c 4.129,-2.476 4.955,-4.127 4.129,-6.605 z m -13.213,-1.651 c 0,0 0.826,0 0,0 0.826,0 0.826,0 0,0 z m 10.736,6.606 v 0 0 0 0 0 0 c 0,-0.826 -0.826,-1.652 -0.826,-0.826 v 0 0 0 0 0 c 0,-0.826 -0.826,-1.652 -0.826,-1.652 v 0 0 0 0 0 0 c 0,-0.826 0,-1.652 -0.826,-0.826 v 0 0 0 0 c 0,-0.826 0,-1.652 -0.826,-1.652 0,-0.826 0,-1.652 -0.826,-0.826 v 0 0 0 c 0,-0.826 0,-0.826 0,-0.826 0.826,-0.826 1.652,-1.652 2.477,-1.652 0.826,-0.826 1.652,0 2.477,0 v 0 c 0,0 0,0.826 0.826,0.826 v 0 0 0 c 0,0 0,0.826 0.826,0.826 v 0 0 c 0,0 0,0.826 0.826,0.826 v 0 0 0 0.826 0 c 0,0 0,0.826 0.826,0.826 v 0 0 c -1.651,1.653 -2.477,3.304 -4.128,4.13 z"
     style="fill:#fab81c" /><path
     inkscape:connector-curvature="0"
     id="path80"
     d="m 203.974,779.406 c 4.955,-1.652 14.039,-11.561 14.039,-13.213 -11.561,3.304 -16.516,10.736 -14.039,13.213 z"
     style="fill:#406325" /><path
     inkscape:connector-curvature="0"
     id="path82"
     d="m 203.974,779.406 c -2.477,-2.477 2.477,-9.91 14.039,-13.213 -8.258,6.607 -14.039,12.388 -14.039,13.213 z"
     style="fill:#67923d" /><path
     inkscape:connector-curvature="0"
     id="path84"
     d="m 311.329,783.535 c -1.652,-4.955 -9.91,-14.039 -11.561,-14.865 2.477,10.736 9.084,16.517 11.561,14.865 z"
     style="fill:#406325" /><path
     inkscape:connector-curvature="0"
     id="path86"
     d="m 311.329,783.535 c -2.477,2.477 -9.084,-3.303 -11.561,-14.865 5.78,8.259 10.735,14.04 11.561,14.865 z"
     style="fill:#67923d" /><path
     inkscape:connector-curvature="0"
     id="path88"
     d="m 293.161,819.871 v 0 0 0 c -3.303,0 -9.084,2.477 -10.735,4.129 -18.168,9.91 -33.858,23.948 -50.374,40.465 -0.826,-0.826 -2.477,-1.652 -4.129,-1.652 v 0 c -0.826,0 -2.477,0 -3.303,1.652 v 0 c 0,0 0,0 -0.826,0 0,0 -0.826,0 -0.826,0.826 v 0 l -0.826,0.826 v 0 l -0.826,0.826 v 0 0 l -0.826,0.826 v 0 0.826 0 c -0.826,2.477 0,4.129 0.826,5.781 v 0 h -0.826 c -0.826,0.826 0,2.477 1.652,2.477 0.826,-0.826 1.652,-1.652 2.477,-1.652 v 0 0 c 0.826,0 0.826,-0.826 1.652,-0.826 v 0 0 c 0.826,-0.826 1.652,-1.652 2.477,-1.652 v 0 0 l 0.826,-0.826 v 0 0 l 0.826,-0.826 v 0 0 0 c 0,0 0.826,0.826 1.652,0.826 0.826,0 0.826,0 1.652,-0.826 0.826,-0.826 1.652,-1.652 0.826,-2.477 0,-0.826 -0.826,-0.826 -0.826,-0.826 v 0 0 c 4.129,-4.129 8.258,-9.084 12.387,-13.213 4.955,-4.129 9.084,-8.258 14.039,-12.387 4.955,-4.129 9.91,-8.258 15.69,-11.561 2.477,-1.652 4.955,-3.303 8.258,-4.955 3.303,-3.304 5.78,-4.955 9.083,-5.781 z m -66.064,49.548 v 0 0 0 0 0 c -0.826,0 -1.652,0.826 -0.826,0.826 v 0 0 0 0 c -0.826,0 -1.652,0.826 -0.826,0.826 v 0 0 0 c -0.826,0 -1.652,0.826 -0.826,0.826 v 0 0 0 0 0 0 0 c -1.652,-0.826 -2.477,-3.303 -1.652,-4.955 v 0 0 l 0.826,-0.826 v 0 -0.826 0 0 0 0 l 0.826,-0.826 v 0 0 c 0,0 0.826,0 0.826,-0.826 v 0 0 l 0.826,-0.826 v 0 c 0.826,0 1.652,-0.826 2.477,0 0.826,0.826 1.652,1.652 2.477,2.477 l -0.826,0.826 v 0 0 0 0 0 0 0 c -0.826,0 -0.826,0.826 -0.826,0.826 -2.476,0.827 -3.302,1.653 -2.476,2.478 z m 6.606,-2.477 z"
     style="fill:#fab81c" /><path
     inkscape:connector-curvature="0"
     id="path90"
     d="m 282.426,824.826 c 0,-1.652 0,-4.129 -0.826,-5.781 0,-1.652 -0.826,-3.303 -1.652,-4.955 0,0 0,0 0,-0.826 v 0 0 0 0 c -0.826,-2.477 -2.477,-5.781 -3.303,-8.258 v 0 0 0 c -0.826,-2.477 -2.477,-4.955 -4.129,-7.432 -1.652,-2.477 -3.303,-4.955 -4.955,-7.432 4.955,-0.826 4.955,-7.432 1.652,-9.91 -9.91,0 -22.297,0 -32.206,0 v 0 c -0.826,0 -1.652,0 -2.477,0 h -2.477 -0.826 -0.827 c -0.826,0 -1.652,0.826 -1.652,0.826 -0.826,0.826 -0.826,0.826 -1.652,1.652 0,0.826 -0.826,1.652 -0.826,1.652 0,1.652 0,2.477 0,4.129 0,1.652 0.826,2.477 1.652,4.129 l 1.652,3.303 c 1.652,2.477 2.477,4.955 3.303,7.432 2.477,4.129 4.129,9.91 5.781,14.865 v 0.826 c 0,1.652 0.826,2.477 0.826,4.129 -1.652,0 -5.781,0 -7.432,0.826 v 0 c 0,0 -4.129,0.826 -4.129,5.781 0,0.826 0,1.652 0,1.652 0.826,5.781 5.781,5.781 5.781,5.781 v 0 0 0 l 10.735,-0.826 10.735,-0.826 c 3.303,0 7.432,-0.826 10.735,-0.826 1.652,0 3.303,0 4.955,0 0.826,0 1.652,0 2.477,0 0.826,0 1.652,0 2.477,0 v 0 0 c 0.826,-0.826 1.652,-0.826 2.477,-1.652 0.826,-0.826 0.826,-1.652 1.652,-2.477 0,-0.826 0.826,-1.652 0.826,-3.303 1.653,-0.828 1.653,-1.653 1.653,-2.479 z m -48.723,-21.471 v 0 0 c 0,0.826 0,0.826 0,0.826 v 0 z"
     style="fill:#f2dc70" /><g
     transform="translate(0,568)"
     id="g98">
	<path
   inkscape:connector-curvature="0"
   id="path92"
   d="m 261.781,322.065 c 4.129,-8.258 8.258,-15.69 13.213,-23.948 -0.826,-0.826 -0.826,-1.652 -1.652,-1.652 -4.955,9.083 -11.561,19.819 -11.561,25.6 z"
   style="fill:#34541f" />
	<path
   inkscape:connector-curvature="0"
   id="path94"
   d="m 293.161,237.832 c -0.826,-3.303 -1.652,-6.606 -3.303,-9.91 -1.652,-4.129 -4.955,-8.258 -9.084,-12.387 -6.606,-7.432 -14.039,-14.865 -23.948,-19.819 v 0 0 0 0 0 0 0 0 0 0 0 0 0 0 0 0 0 0 h 0.826 v 0 h 0.826 -0.826 0.826 -0.826 0.826 -0.826 v -0.826 h -0.826 v -0.826 H 256 v 0 0 h -0.826 v -0.826 h -0.826 v -0.826 h -0.826 v -0.826 h -0.826 v -0.826 0 -0.826 0.826 -0.826 0 -0.826 0.826 -0.826 0.826 -0.826 0.826 -0.826 0.826 -0.826 0.826 -0.826 0.826 -0.826 0.826 -0.826 0.826 -0.826 0.826 0 0.826 0 0.826 0 0.826 0 0.826 0 0 0 0 0 0 c 0,0.826 0,0.826 0,1.652 v 0 0 0 0 0 c -0.826,0 -0.826,0.826 -1.652,0.826 0.826,0 0.826,0 1.652,0 0,0 0,0 0.826,0 v 0.826 c -0.826,1.652 -2.477,3.303 -2.477,5.781 0,0 0,-0.826 0.826,-0.826 -0.826,3.303 1.652,6.606 5.781,9.084 1.652,0.826 3.303,1.652 4.955,1.652 v 0 c 0,0 0.826,0 1.652,0 h 0.826 c 0,0.826 0,0.826 -0.826,1.652 0.826,0 1.652,-0.826 2.477,-1.652 v 0 c 0,0.826 -0.826,1.652 -0.826,3.303 0,-0.826 0.826,-1.652 1.652,-1.652 0,0.826 0,1.652 -0.826,2.477 1.652,0 2.477,-0.826 3.303,-1.652 0,0.826 0,1.652 0.826,3.303 0,-1.652 0,-1.652 0.826,-2.477 0,1.652 0.826,3.303 2.477,4.129 -1.652,-4.129 -2.477,-4.955 -1.652,-5.781 0,0.826 1.652,2.477 1.652,3.303 0,-0.826 0,-2.477 0.826,-3.303 0.826,1.652 0.826,2.477 0.826,4.129 0,-0.826 0.826,-1.652 0.826,-2.477 14.865,14.865 18.168,34.684 1.652,55.329 5.781,-4.129 7.432,-9.91 10.735,-14.865 -3.303,6.606 -4.129,14.865 -9.91,20.645 4.955,-4.955 6.606,-9.084 9.91,-13.213 -3.303,9.084 -8.258,18.994 -14.865,28.903 0.826,1.652 2.477,2.477 3.303,4.129 0.826,-1.652 1.652,-3.303 3.303,-4.955 6.607,-12.385 18.168,-28.902 12.387,-53.676 z"
   style="fill:#34541f" />
	<path
   inkscape:connector-curvature="0"
   id="path96"
   d="m 247.742,315.458 c 10.735,-3.303 18.168,-11.561 25.6,-18.994 l -0.826,-0.826 -0.826,-0.826 c -5.78,7.433 -14.038,15.691 -23.948,20.646 z"
   style="fill:#34541f" />
</g></g>
<g
   id="g100"
   transform="translate(0,568)">
</g>
<g
   id="g102"
   transform="translate(0,568)">
</g>
<g
   id="g104"
   transform="translate(0,568)">
</g>
<g
   id="g106"
   transform="translate(0,568)">
</g>
<g
   id="g108"
   transform="translate(0,568)">
</g>
<g
   id="g110"
   transform="translate(0,568)">
</g>
<g
   id="g112"
   transform="translate(0,568)">
</g>
<g
   id="g114"
   transform="translate(0,568)">
</g>
<g
   id="g116"
   transform="translate(0,568)">
</g>
<g
   id="g118"
   transform="translate(0,568)">
</g>
<g
   id="g120"
   transform="translate(0,568)">
</g>
<g
   id="g122"
   transform="translate(0,568)">
</g>
<g
   id="g124"
   transform="translate(0,568)">
</g>
<g
   id="g126"
   transform="translate(0,568)">
</g>
<g
   id="g128"
   transform="translate(0,568)">
</g>
</svg>