<?xml version="1.0" encoding="UTF-8" standalone="no"?>
<!-- Generator: Adobe Illustrator 19.0.0, SVG Export Plug-In . SVG Version: 6.00 Build 0)  -->

<svg
   xmlns:dc="http://purl.org/dc/elements/1.1/"
   xmlns:cc="http://creativecommons.org/ns#"
   xmlns:rdf="http://www.w3.org/1999/02/22-rdf-syntax-ns#"
   xmlns:svg="http://www.w3.org/2000/svg"
   xmlns="http://www.w3.org/2000/svg"
   xmlns:sodipodi="http://sodipodi.sourceforge.net/DTD/sodipodi-0.dtd"
   xmlns:inkscape="http://www.inkscape.org/namespaces/inkscape"
   version="1.1"
   id="Capa_1"
   x="0px"
   y="0px"
   viewBox="0 0 1920 1080"
   xml:space="preserve"
   sodipodi:docname="FLAG_ICELAND.svg"
   width="1920"
   height="1080"
   inkscape:version="0.92.3 (2405546, 2018-03-11)"><metadata
   id="metadata67"><rdf:RDF><cc:Work
       rdf:about=""><dc:format>image/svg+xml</dc:format><dc:type
         rdf:resource="http://purl.org/dc/dcmitype/StillImage" /><dc:title></dc:title></cc:Work></rdf:RDF></metadata><defs
   id="defs65" /><sodipodi:namedview
   pagecolor="#ffffff"
   bordercolor="#666666"
   borderopacity="1"
   objecttolerance="10"
   gridtolerance="10"
   guidetolerance="10"
   inkscape:pageopacity="0"
   inkscape:pageshadow="2"
   inkscape:window-width="1920"
   inkscape:window-height="1017"
   id="namedview63"
   showgrid="false"
   inkscape:zoom="0.47580645"
   inkscape:cx="-170.23729"
   inkscape:cy="248"
   inkscape:window-x="-8"
   inkscape:window-y="-8"
   inkscape:window-maximized="1"
   inkscape:current-layer="Capa_1" />








<g
   id="g892"
   transform="matrix(1.2096774,0,0,1.2096774,660,240)"><path
     id="path2"
     d="m 496,369.6 c 0,27.2 -21.6,46.4 -48,46.4 H 48 C 21.6,416 0,396.8 0,369.6 V 126.4 C 0,99.2 21.6,80 48,80 h 400 c 26.4,0 48,19.2 48,46.4 z"
     style="fill:#2b479d"
     inkscape:connector-curvature="0" /><path
     id="path4"
     d="m 48,80 h 400 c 26.4,0 48,19.2 48,46.4 v 243.2 c 0,27.2 -24.8,46.4 -51.2,46.4"
     style="fill:#183889"
     inkscape:connector-curvature="0" /><g
     id="g10">
	<path
   id="path6"
   d="m 496,368.8 c 0,28.8 -21.6,47.2 -48,47.2 H 48 C 21.6,416 0,395.2 0,368"
   style="fill:#042872"
   inkscape:connector-curvature="0" />
	<path
   id="path8"
   d="m 48,80 h 400 c 26.4,0 48,19.2 48,46.4 V 216"
   style="fill:#042872"
   inkscape:connector-curvature="0" />
</g><polygon
     id="polygon12"
     points="200,296 200,416 296,416 296,296 496,296 496,200 296,200 296,80 200,80 200,200 0,200 0,296 "
     style="fill:#f3f4f5" /><rect
     id="rect14"
     height="48"
     width="96"
     style="fill:#b2c2ce"
     y="368"
     x="200" /><polygon
     id="polygon16"
     points="296,200 296,80 200,80 200,200 189.6,200 303.2,296 496,296 496,200 "
     style="fill:#cfd9e2" /><g
     id="g22">
	<polygon
   id="polygon18"
   points="200,126.4 296,155.2 296,80 200,80 "
   style="fill:#b2c2ce" />
	<polygon
   id="polygon20"
   points="496,200 443.2,200 496,214.4 "
   style="fill:#b2c2ce" />
</g><polygon
     id="polygon24"
     points="216,280 216,416 280,416 280,280 496,280 496,216 280,216 280,80 216,80 216,216 0,216 0,280 "
     style="fill:#ed2a3d" /><g
     id="g30">
	<rect
   id="rect26"
   height="48"
   width="64"
   style="fill:#d31e38"
   y="368"
   x="216" />
	<polygon
   id="polygon28"
   points="280,216 280,80 216,80 216,216 208.8,216 284,280 496,280 496,216 "
   style="fill:#d31e38" />
</g></g>
<g
   id="g32"
   transform="translate(0,584)">
</g>
<g
   id="g34"
   transform="translate(0,584)">
</g>
<g
   id="g36"
   transform="translate(0,584)">
</g>
<g
   id="g38"
   transform="translate(0,584)">
</g>
<g
   id="g40"
   transform="translate(0,584)">
</g>
<g
   id="g42"
   transform="translate(0,584)">
</g>
<g
   id="g44"
   transform="translate(0,584)">
</g>
<g
   id="g46"
   transform="translate(0,584)">
</g>
<g
   id="g48"
   transform="translate(0,584)">
</g>
<g
   id="g50"
   transform="translate(0,584)">
</g>
<g
   id="g52"
   transform="translate(0,584)">
</g>
<g
   id="g54"
   transform="translate(0,584)">
</g>
<g
   id="g56"
   transform="translate(0,584)">
</g>
<g
   id="g58"
   transform="translate(0,584)">
</g>
<g
   id="g60"
   transform="translate(0,584)">
</g>
</svg>