<?xml version="1.0" encoding="UTF-8" standalone="no"?>
<!-- Generator: Adobe Illustrator 19.0.0, SVG Export Plug-In . SVG Version: 6.00 Build 0)  -->

<svg
   xmlns:dc="http://purl.org/dc/elements/1.1/"
   xmlns:cc="http://creativecommons.org/ns#"
   xmlns:rdf="http://www.w3.org/1999/02/22-rdf-syntax-ns#"
   xmlns:svg="http://www.w3.org/2000/svg"
   xmlns="http://www.w3.org/2000/svg"
   xmlns:sodipodi="http://sodipodi.sourceforge.net/DTD/sodipodi-0.dtd"
   xmlns:inkscape="http://www.inkscape.org/namespaces/inkscape"
   version="1.1"
   id="Capa_1"
   x="0px"
   y="0px"
   viewBox="0 0 1920 1080"
   xml:space="preserve"
   sodipodi:docname="FLAG_ARUBA.svg"
   width="1920"
   height="1080"
   inkscape:version="0.92.3 (2405546, 2018-03-11)"><metadata
   id="metadata57"><rdf:RDF><cc:Work
       rdf:about=""><dc:format>image/svg+xml</dc:format><dc:type
         rdf:resource="http://purl.org/dc/dcmitype/StillImage" /><dc:title></dc:title></cc:Work></rdf:RDF></metadata><defs
   id="defs55" /><sodipodi:namedview
   pagecolor="#ffffff"
   bordercolor="#666666"
   borderopacity="1"
   objecttolerance="10"
   gridtolerance="10"
   guidetolerance="10"
   inkscape:pageopacity="0"
   inkscape:pageshadow="2"
   inkscape:window-width="1920"
   inkscape:window-height="1017"
   id="namedview53"
   showgrid="false"
   inkscape:zoom="0.33644597"
   inkscape:cx="-373.96006"
   inkscape:cy="385.78748"
   inkscape:window-x="1912"
   inkscape:window-y="-8"
   inkscape:window-maximized="1"
   inkscape:current-layer="Capa_1" />








<g
   id="g22"
   transform="translate(0,584)">
</g>
<g
   id="g24"
   transform="translate(0,584)">
</g>
<g
   id="g26"
   transform="translate(0,584)">
</g>
<g
   id="g28"
   transform="translate(0,584)">
</g>
<g
   id="g30"
   transform="translate(0,584)">
</g>
<g
   id="g32"
   transform="translate(0,584)">
</g>
<g
   id="g34"
   transform="translate(0,584)">
</g>
<g
   id="g36"
   transform="translate(0,584)">
</g>
<g
   id="g38"
   transform="translate(0,584)">
</g>
<g
   id="g40"
   transform="translate(0,584)">
</g>
<g
   id="g42"
   transform="translate(0,584)">
</g>
<g
   id="g44"
   transform="translate(0,584)">
</g>
<g
   id="g46"
   transform="translate(0,584)">
</g>
<g
   id="g48"
   transform="translate(0,584)">
</g>
<g
   id="g50"
   transform="translate(0,584)">
</g>
<g
   transform="matrix(1.2096774,0,0,1.2096774,1819.3145,-439.2649)"
   id="g891"><path
     id="path2"
     d="m -462.36666,931.12566 c 0,27.2 -21.6,48.8 -48,48.8 h -400 c -26.4,0 -48,-21.6 -48,-48.8 v -243.2 c 0,-27.2 21.6,-48.8 48,-48.8 h 400 c 26.4,0 48,21.6 48,48.8 z"
     style="fill:#418fde;fill-opacity:1"
     inkscape:connector-curvature="0" /><rect
     id="rect12"
     height="77.599998"
     width="496"
     style="fill:#ffd100;fill-opacity:1"
     y="821.52563"
     x="-958.36664" /><rect
     id="rect16"
     height="24.799999"
     width="496"
     style="fill:#418fde;fill-opacity:1"
     y="847.12567"
     x="-958.36664" /><path
     style="fill:#000000;fill-opacity:0.15810278"
     d="m -462.36666,931.12566 c 0,27.2 -21.6,48.8 -48,48.8 h -400 c -26.4,0 -48,-21.6 -48,-48.8"
     id="path8"
     inkscape:connector-curvature="0" /><path
     id="path4"
     d="m -910.36666,639.12566 h 400 c 26.4,0 48,21.6 48,48.8 v 243.2 c 0,27.2 -21.6,48.8 -48,48.8"
     style="fill:#000000;fill-opacity:0.13043476"
     inkscape:connector-curvature="0" /><path
     style="fill:#000000;fill-opacity:0.13043476"
     d="m -910.36666,639.12566 h 400 c 26.4,0 48,21.6 48,48.8 v 88.8"
     id="path6"
     inkscape:connector-curvature="0" /><path
     inkscape:connector-curvature="0"
     id="path908"
     d="m -870.27471,768.24011 c -2.37579,-7.71008 -4.93299,-16.0155 -5.68267,-18.45648 l -1.36306,-4.43815 -8.90235,-2.68379 c -4.89629,-1.47609 -11.94315,-3.65374 -15.65971,-4.83922 -3.71655,-1.18549 -8.14934,-2.54046 -9.85064,-3.01104 l -3.09327,-0.8556 5.10774,-1.63909 c 5.21411,-1.67322 7.89324,-2.5089 23.47047,-7.32097 l 8.87694,-2.74223 2.20427,-7.00071 c 1.21234,-3.85039 3.78482,-12.17857 5.7166,-18.50708 4.03134,-13.2066 3.56712,-13.21869 7.5399,0.19638 1.24791,4.21388 2.55547,8.48249 2.90568,9.4858 0.35021,1.00331 1.51942,4.77938 2.59824,8.39129 1.07882,3.6119 2.17359,6.80393 2.43281,7.09341 0.25923,0.28948 6.53888,2.37626 13.9548,4.63729 7.41591,2.26103 15.72911,4.82472 18.47378,5.69709 l 4.99031,1.58613 -18.8016,5.81626 -18.80161,5.81625 -2.48742,8.02645 c -3.81838,12.32121 -5.25772,17.06255 -6.86677,22.61999 -0.81337,2.80925 -1.69574,5.34142 -1.96084,5.62704 -0.2651,0.28562 -2.42582,-5.78894 -4.8016,-13.49902 z"
     style="opacity:1;fill:#ef3340;fill-opacity:1;fill-rule:nonzero;stroke:#ffffff;stroke-width:5;stroke-linecap:round;stroke-linejoin:round;stroke-miterlimit:4;stroke-dasharray:none;stroke-opacity:1;paint-order:markers fill stroke" /></g></svg>