<?xml version="1.0" encoding="UTF-8" standalone="no"?>
<!-- Generator: Adobe Illustrator 19.0.0, SVG Export Plug-In . SVG Version: 6.00 Build 0)  -->

<svg
   xmlns:dc="http://purl.org/dc/elements/1.1/"
   xmlns:cc="http://creativecommons.org/ns#"
   xmlns:rdf="http://www.w3.org/1999/02/22-rdf-syntax-ns#"
   xmlns:svg="http://www.w3.org/2000/svg"
   xmlns="http://www.w3.org/2000/svg"
   xmlns:sodipodi="http://sodipodi.sourceforge.net/DTD/sodipodi-0.dtd"
   xmlns:inkscape="http://www.inkscape.org/namespaces/inkscape"
   version="1.1"
   id="Layer_1"
   x="0px"
   y="0px"
   viewBox="0 0 1920 1080"
   xml:space="preserve"
   sodipodi:docname="FLAG_UKRAINE.svg"
   width="1920"
   height="1080"
   inkscape:version="0.92.3 (2405546, 2018-03-11)"><metadata
   id="metadata49"><rdf:RDF><cc:Work
       rdf:about=""><dc:format>image/svg+xml</dc:format><dc:type
         rdf:resource="http://purl.org/dc/dcmitype/StillImage" /><dc:title></dc:title></cc:Work></rdf:RDF></metadata><defs
   id="defs47" /><sodipodi:namedview
   pagecolor="#ffffff"
   bordercolor="#666666"
   borderopacity="1"
   objecttolerance="10"
   gridtolerance="10"
   guidetolerance="10"
   inkscape:pageopacity="0"
   inkscape:pageshadow="2"
   inkscape:window-width="1920"
   inkscape:window-height="1017"
   id="namedview45"
   showgrid="false"
   inkscape:zoom="0.47580645"
   inkscape:cx="248"
   inkscape:cy="248"
   inkscape:window-x="-8"
   inkscape:window-y="-8"
   inkscape:window-maximized="1"
   inkscape:current-layer="Layer_1" />





<g
   id="g871"
   transform="matrix(1.2096774,0,0,1.2096774,660,-466.4516)"><g
     transform="translate(0,584)"
     id="g862"><path
       inkscape:connector-curvature="0"
       style="fill:#fdce0c"
       d="M 0,248 V 369.6 C 0,396.8 21.6,416 48,416 h 400 c 26.4,0 48,-19.2 48,-46.4 V 248 Z"
       id="path2" /><path
       inkscape:connector-curvature="0"
       style="fill:#f4ba00"
       d="M 248,248 445.6,416 C 472,416 496,396.8 496,369.6 V 248 Z"
       id="path4" /><path
       inkscape:connector-curvature="0"
       style="fill:#44c1ef"
       d="M 448,80 H 48 C 21.6,80 0,99.2 0,126.4 V 248 H 496 V 126.4 C 496,99.2 474.4,80 448,80 Z"
       id="path6" /><path
       inkscape:connector-curvature="0"
       style="fill:#18b4ea"
       d="M 448,80 H 48 L 248,248 H 496 V 126.4 C 496,99.2 474.4,80 448,80 Z"
       id="path8" /><path
       inkscape:connector-curvature="0"
       style="fill:#f2a700"
       d="m 496,368.8 c 0,29.6 -21.6,47.2 -48,47.2 H 48 C 21.6,416 0,395.2 0,368"
       id="path10" /><path
       inkscape:connector-curvature="0"
       style="fill:#10a2e2"
       d="m 48,80 h 400 c 26.4,0 48,19.2 48,46.4 V 216"
       id="path12" /></g></g>
<g
   id="g14"
   transform="translate(0,584)">
</g>
<g
   id="g16"
   transform="translate(0,584)">
</g>
<g
   id="g18"
   transform="translate(0,584)">
</g>
<g
   id="g20"
   transform="translate(0,584)">
</g>
<g
   id="g22"
   transform="translate(0,584)">
</g>
<g
   id="g24"
   transform="translate(0,584)">
</g>
<g
   id="g26"
   transform="translate(0,584)">
</g>
<g
   id="g28"
   transform="translate(0,584)">
</g>
<g
   id="g30"
   transform="translate(0,584)">
</g>
<g
   id="g32"
   transform="translate(0,584)">
</g>
<g
   id="g34"
   transform="translate(0,584)">
</g>
<g
   id="g36"
   transform="translate(0,584)">
</g>
<g
   id="g38"
   transform="translate(0,584)">
</g>
<g
   id="g40"
   transform="translate(0,584)">
</g>
<g
   id="g42"
   transform="translate(0,584)">
</g>
</svg>