<?xml version="1.0" encoding="UTF-8" standalone="no"?>
<!-- Generator: Adobe Illustrator 19.0.0, SVG Export Plug-In . SVG Version: 6.00 Build 0)  -->

<svg
   xmlns:dc="http://purl.org/dc/elements/1.1/"
   xmlns:cc="http://creativecommons.org/ns#"
   xmlns:rdf="http://www.w3.org/1999/02/22-rdf-syntax-ns#"
   xmlns:svg="http://www.w3.org/2000/svg"
   xmlns="http://www.w3.org/2000/svg"
   xmlns:sodipodi="http://sodipodi.sourceforge.net/DTD/sodipodi-0.dtd"
   xmlns:inkscape="http://www.inkscape.org/namespaces/inkscape"
   version="1.1"
   id="Capa_1"
   x="0px"
   y="0px"
   viewBox="0 0 1920 1080"
   xml:space="preserve"
   sodipodi:docname="FLAG_RWANDA.svg"
   width="1920"
   height="1080"
   inkscape:version="0.92.3 (2405546, 2018-03-11)"><metadata
   id="metadata59"><rdf:RDF><cc:Work
       rdf:about=""><dc:format>image/svg+xml</dc:format><dc:type
         rdf:resource="http://purl.org/dc/dcmitype/StillImage" /><dc:title></dc:title></cc:Work></rdf:RDF></metadata><defs
   id="defs57" /><sodipodi:namedview
   pagecolor="#ffffff"
   bordercolor="#666666"
   borderopacity="1"
   objecttolerance="10"
   gridtolerance="10"
   guidetolerance="10"
   inkscape:pageopacity="0"
   inkscape:pageshadow="2"
   inkscape:window-width="1920"
   inkscape:window-height="1017"
   id="namedview55"
   showgrid="false"
   inkscape:zoom="0.47504027"
   inkscape:cx="604.15931"
   inkscape:cy="364.17965"
   inkscape:window-x="-8"
   inkscape:window-y="-8"
   inkscape:window-maximized="1"
   inkscape:current-layer="Capa_1" />








<g
   id="g877"
   transform="matrix(1.2077295,0,0,1.2077295,659.99999,-464.34786)"><path
     inkscape:connector-curvature="0"
     id="path2"
     d="m 0,915.60001 v 37.6 c 0,25.6 18.4,45.6 43.2,48.79999 h 410.4 c 24,-2.39999 43.2,-23.19999 43.2,-48.79999 v -37.6 z"
     style="fill:#20603d" /><path
     inkscape:connector-curvature="0"
     id="path4"
     d="M 448,661.20001 H 48 c -26.4,0 -48,21.6 -48,48.8 v 120 h 496 v -120 c 0,-27.2 -21.6,-48.8 -48,-48.8 z"
     style="fill:#00a1de" /><path
     inkscape:connector-curvature="0"
     id="path6"
     d="m 48,661.20001 h 400 c 26.4,0 48,21.6 48,48.8 v 243.2 C 496,980.40001 474.4,1002 448,1002"
     style="fill:#009ac9" /><path
     inkscape:connector-curvature="0"
     id="path8"
     d="m 448,1002 h 5.6 v 0 c 3.2,0 5.6,-0.8 8,-1.6 0,0 0,0 0.8,0 2.4,-0.79999 4.8,-1.59999 7.2,-3.19999 0,0 0.8,0 0.8,-0.8 2.4,-1.6 4,-2.4 6.4,-4 l 0.8,-0.8 c 1.6,-1.6 4,-3.2 5.6,-4.8 l 0.8,-0.8 c 1.6,-1.6 3.2,-4 4.8,-6.4 l 0.8,-0.8 c 1.6,-2.4 2.4,-4.8 3.2,-7.2 v -0.8 c 0.8,-2.4 1.6,-4.8 2.4,-8 v -0.8 c 0.8,-2.4 0.8,-5.6 0.8,-8.8 v -37.6 H 346.4 Z"
     style="fill:#124f2c" /><path
     inkscape:connector-curvature="0"
     id="path10"
     d="m 48,661.20001 h 400 c 26.4,0 48,21.6 48,48.8 v 88.8"
     style="fill:#008eaf" /><path
     inkscape:connector-curvature="0"
     id="path12"
     d="M 496,953.20001 C 496,980.40001 474.4,1002 448,1002 H 48 C 21.6,1002 0,980.40001 0,953.20001"
     style="fill:#0c381f" /><rect
     x="0"
     id="rect14"
     height="86.400002"
     width="496"
     style="fill:#fad201"
     y="829.20001" /><polygon
     transform="translate(0,583.20001)"
     id="polygon16"
     points="346.4,332.4 496,332.4 496,246 245.6,246 "
     style="fill:#d8ae00" /><g
     transform="translate(0,583.20001)"
     id="g22">
	<path
   inkscape:connector-curvature="0"
   id="path18"
   d="m 405.6,143.6 c -11.2,0 -20,8.8 -20,20 0,11.2 8.8,20 20,20 11.2,0 20,-8.8 20,-20 0,-11.2 -8.8,-20 -20,-20 z"
   style="fill:#e5be01" />
	<path
   inkscape:connector-curvature="0"
   id="path20"
   d="m 427.2,166 48.8,-3.2 -48.8,-2.4 46.4,-15.2 -48,9.6 40.8,-27.2 -44,22.4 32.8,-36.8 -36.8,32.8 22.4,-44 -27.2,40.8 9.6,-48 -15.2,46.4 -3.2,-48.8 -3.2,48.8 -15.2,-46.4 9.6,48 -27.2,-40.8 22.4,44 -36.8,-32.8 32.8,36.8 -44,-22.4 40.8,27.2 -48,-9.6 48,15.2 -48.8,3.2 48.8,3.2 -46.4,15.2 48,-9.6 -40.8,27.2 44,-22.4 -32.8,36.8 36.8,-32.8 -22.4,43.2 27.2,-40.8 -9.6,48 15.2,-46.4 3.2,48.8 3.2,-48.8 15.2,46.4 -9.6,-48 27.2,40.8 -22.4,-44 36.8,32.8 -33.6,-36.8 44,22.4 -40.8,-27.2 48,9.6 z m -21.6,19.2 c -12,0 -21.6,-9.6 -21.6,-21.6 0,-12 9.6,-21.6 21.6,-21.6 12,0 21.6,9.6 21.6,21.6 0,12 -9.6,21.6 -21.6,21.6 z"
   style="fill:#e5be01" />
</g></g>
<g
   id="g24"
   transform="translate(0,583.20001)">
</g>
<g
   id="g26"
   transform="translate(0,583.20001)">
</g>
<g
   id="g28"
   transform="translate(0,583.20001)">
</g>
<g
   id="g30"
   transform="translate(0,583.20001)">
</g>
<g
   id="g32"
   transform="translate(0,583.20001)">
</g>
<g
   id="g34"
   transform="translate(0,583.20001)">
</g>
<g
   id="g36"
   transform="translate(0,583.20001)">
</g>
<g
   id="g38"
   transform="translate(0,583.20001)">
</g>
<g
   id="g40"
   transform="translate(0,583.20001)">
</g>
<g
   id="g42"
   transform="translate(0,583.20001)">
</g>
<g
   id="g44"
   transform="translate(0,583.20001)">
</g>
<g
   id="g46"
   transform="translate(0,583.20001)">
</g>
<g
   id="g48"
   transform="translate(0,583.20001)">
</g>
<g
   id="g50"
   transform="translate(0,583.20001)">
</g>
<g
   id="g52"
   transform="translate(0,583.20001)">
</g>
</svg>